<svg xmlns="http://www.w3.org/2000/svg" xmlns:xlink="http://www.w3.org/1999/xlink" xmlns:spine="http://powtoon.com/" version="1.1" x="0px" y="0px" viewBox="0 0 42.3 58.8" style="enable-background:new 0 0 42.3 58.8;" xml:space="preserve" naming="palm-R long-sleeve back-fist-R" id="palm-R_long-sleeve_back-fist-R.svg">
<style type="text/css">
	.c8-1e2d8f-0000000a{fill:#F7D7B9;}
	.c7-1e2d8f-0000000a{fill:#E4AF8F;}
	.c12-1e2d8f-0000000a{fill:#101D2D;}
	.c29-1e2d8f-0000000a{fill:#D39C08;}
</style>
<g>
	<g>
		<g>
			<g>
			</g>
			<g>
				<g>
					<path class="c8-1e2d8f-0000000a" d="M10.8,23c0.1,0.5,0.4,1.2,0.4,1.4c0.5,1.3,1,2,1.4,2c-0.4-0.4-0.5-1-0.5-1.8c0-0.7,0.3-0.8,0.7-0.2       c0.5,1,0.8,1.7,1,2c0,1.2,0.7,2.3,1.8,2.8c0.4,0.2,0.8,0.3,1.2,0.3c-0.3,0.1-0.6,0.1-0.9,0c0.3,0.1,0.8,0.1,1,0.1       c0.2,0.4,0.4,0.9,0.4,0.9c0.5,0.8,1.3,1.2,2.3,1.3c-0.9-0.1-1.7-0.5-2.2-1.3c0,0-0.8-1.2-0.6-2.3c0-0.2,0-0.5-0.1-0.7       c-0.1-0.3-0.1-0.6-0.1-0.9l0,0l1.4,2.5c0.7,1.7,1.6,2.5,2.5,2.6h0.2c-0.4,0.1-0.7,0.2-1.1,0.2c0,0,1.5,0,2.1-0.3       c-0.1,0-0.1,0-0.2,0c0.2-0.2,0.5-0.3,0.8-0.5c0.1,0,0.2-0.2,0.3-0.3s0.1-0.1,0.1-0.2s0.1-0.2,0.2-0.2c0.4-0.6,0.7-1.2,0.9-1.9       c0.2-0.7,0.5-1.3,0.9-1.8l1.3-1.3c0.1-0.1,0.3-0.2,0.5-0.2c-0.7,1.8-1.5,3.4-2.6,5c-0.1,0.3-0.2,0.6-0.3,0.9c0,0.1,0,0.1,0,0.1       l0,0c1.2,1.7,4.7,0.1,5.1-1.5c0.1-0.1,0.3-1,0.4-1.4c0.4-0.9,0.7-1.9,0.9-2.8c0-0.2,0.1-0.8,0.1-1.9c0-0.7-0.1-1.9-0.3-3.5       c0-0.9-0.2-1.8-0.3-2.9c-0.3-0.8-0.5-1.4-0.7-1.9c-0.1-0.2-0.3-0.4-0.3-0.5l-0.2-0.4c-0.1-0.3-0.2-0.5-0.3-0.8       c-0.7-1.8-1.4-3.7-2.3-5.4c0,0-1.2-3.2-2.6-5.8c-0.9-1.6-3.2-2.1-5-0.4c-0.3,0.2-0.8,0.9-1.3,1.9c-0.6,2.8-1.5,5.5-2.7,8.3       c-1,2.2-1.6,4.6-1.9,7c-0.3,0.5-0.4,1-0.4,1.7l-0.3,1.8c-0.1,0.2-0.2,0.4-0.4,0.6C10.9,23.2,10.8,23.1,10.8,23z M14.7,20.8       c1,0.3,2,0.6,3,0.7c1.4,0.1,2.7,0.4,4,0.9c1.2,0.4,2.4,0.7,3.7,0.9c0.6,0,1.1-0.1,1.7-0.2c0.6-0.2,1.1-0.2,1.7-0.1v0.1       c-0.5,0.3-1.1,0.5-1.6,0.6C26.6,23.9,26,24,25.3,24c-1.3,0-2.6-0.3-3.8-0.8c-1.2-0.4-2.4-0.7-3.7-0.8c-0.4,0-0.9-0.1-1.4-0.3       C15.8,21.9,15.2,21.5,14.7,20.8z" style="" spine:tagging="skin.primary.base"/>
					<path class="c7-1e2d8f-0000000a" d="M23.5,31c-0.6,0.3-1.2,0.5-1.8,0.5c0.1,0,0.1,0,0.2,0c0.6,0,1.2-0.2,1.7-0.4L23.5,31L23.5,31z" style="" spine:tagging="skin.primary.shadow"/>
					<path class="c7-1e2d8f-0000000a" d="M10.8,23c-0.1-0.3-0.2-0.6-0.2-0.8v0.1v0.1C10.6,22.6,10.6,22.8,10.8,23z" style="" spine:tagging="skin.primary.shadow"/>
					<path class="c7-1e2d8f-0000000a" d="M11.1,19.9c-0.2,1.1-0.4,2.2-0.4,2.3c0,0.2,0.1,0.5,0.2,0.8c0.1,0.1,0.2,0.2,0.3,0.3       c0.2-0.2,0.3-0.4,0.4-0.6l0.3-1.8c0-0.7,0.1-1.2,0.4-1.7c0.3-2.4,0.9-4.8,1.9-7c1.1-2.7,2-5.5,2.7-8.3       c-1.8,3.2-4.7,9.6-5.6,14.2c-0.1,0.1-0.1,0.3-0.1,0.4L11.1,19.9z" style="" spine:tagging="skin.primary.shadow"/>
					<path class="c7-1e2d8f-0000000a" d="M21.5,31.5c0.1,0,0.1,0,0.2,0c0.6,0,1.2-0.1,1.7-0.4h0.1l0.2,0.1l-0.1,0c0,0,0.1,0,0.1-0.1       c0.1-0.3,0.2-0.6,0.3-0.9c1.3-1.5,2-3.3,2.5-5c-0.2,0-0.4,0.1-0.5,0.2l-1.3,1.3c-0.4,0.5-0.7,1.1-0.9,1.8       c-0.2,0.7-0.5,1.3-0.9,1.9c-0.1,0-0.2,0.1-0.2,0.2s0,0.1-0.1,0.2c-0.1,0.1-0.2,0.3-0.3,0.3C22,31.2,21.7,31.3,21.5,31.5z" style="" spine:tagging="skin.primary.shadow"/>
					<path class="c7-1e2d8f-0000000a" d="M17.7,21.5c-1-0.1-2-0.4-3-0.7c0.5,0.7,1.1,1.1,1.7,1.3c0.5,0.2,1,0.3,1.4,0.3c1.3,0.1,2.5,0.4,3.7,0.8       c1.2,0.5,2.5,0.8,3.8,0.8c0.7,0,1.3-0.1,1.9-0.3c0.5-0.1,1.1-0.3,1.6-0.6V23c-0.6-0.1-1.1-0.1-1.7,0.1       c-0.6,0.1-1.1,0.2-1.7,0.2c-1.3-0.2-2.5-0.5-3.7-0.9C20.4,21.9,19.1,21.6,17.7,21.5z" style="" spine:tagging="skin.primary.shadow"/>
					<path class="c7-1e2d8f-0000000a" d="M12.1,24.6c0,0.8,0.1,1.4,0.5,1.8c0.2,0.4,0.4,0.8,0.6,1.2c0.1,0.3,0.4,0.6,0.7,0.7       c0.1,0.3,0.3,0.5,0.5,0.7c0.4,0.3,1,0.5,1.5,0.5c0.3,0.1,0.6,0.1,0.9,0c-0.4,0-0.8-0.1-1.2-0.3c-1.1-0.5-1.8-1.6-1.8-2.8       c-0.2-0.3-0.5-1-1-2C12.4,23.8,12.1,23.9,12.1,24.6z" style="" spine:tagging="skin.primary.shadow"/>
					<path class="c7-1e2d8f-0000000a" d="M19.6,31.8c0.4,0,0.7-0.1,1.1-0.2h-0.2c-0.9-0.1-1.8-0.9-2.5-2.6l-1.4-2.5v0.1c0,0.3,0,0.6,0.1,0.9       c0.1,0.2,0.1,0.5,0.1,0.7c-0.2,1.1,0.6,2.3,0.6,2.3C17.9,31.3,18.7,31.7,19.6,31.8z" style="" spine:tagging="skin.primary.shadow"/>
				</g>
			</g>
		</g>
	</g>
</g>
<g>
	<path class="c8-1e2d8f-0000000a" d="M30,23.5h0.1c0-0.6-0.1-1.4-0.2-2.4C30,22.1,30,23.1,30,23.5z" style="" spine:tagging="skin.primary.base"/>
	<path class="c12-1e2d8f-0000000a" d="M30.1,23.7c0-0.4-0.1-1.7-0.2-2.7c0-0.3-0.1-0.6-0.1-1c0-0.9-0.2-1.8-0.3-2.9c-0.3-0.8-0.5-1.4-0.7-1.9   c-0.1-0.2-0.3-0.4-0.3-0.5l-0.2-0.4c-0.1-0.3-0.2-0.5-0.3-0.8c-0.7-1.8-1.4-3.7-2.3-5.4c0,0-1.2-3.2-2.6-5.8   c-0.9-1.6-3.2-2.1-5-0.4c-0.3,0.2-0.8,0.9-1.3,1.9c0,0.1-0.1,0.2-0.1,0.3c0.1-0.1,0.1-0.2,0.2-0.3c-0.7,2.8-1.6,5.6-2.7,8.3   c-1,2.2-1.6,4.6-1.9,7c-0.3,0.5-0.4,1-0.4,1.7l-0.5,1.5l12.9,1.1c-0.1-0.1-6.4-1.2-6.5-1.3c-0.3,0-1.1,0.2-1.4,0.1   c-0.6-0.2-1.2-0.6-1.7-1.3c1,0.3,2,0.6,3,0.7c1.4,0.1,2.7,0.4,4,0.9c0.7,0.2,1.5,0.4,2.3,0.6l2.4,0.3c0.2,0,0.6,0.2,0.8,0.2   c0.6-0.2,1.1-0.3,1.7-0.2l-0.1-0.3c0,0.1-0.1,0.1-0.1,0.1c0.1,0,0.2,0,0.3,0v0.1c-0.1,0-0.1,0.1-0.2,0.1L30.1,23.7z" style="" spine:tagging="primary.base"/>
	<path class="c12-1e2d8f-0000000a" d="M16.7,4.2c-0.1,0.2-0.2,0.3-0.3,0.5c-0.6,2.5-1.5,5-2.5,7.4c-0.9,2.3-1.5,4.6-1.8,7c-0.2,0.5-0.4,1.1-0.5,1.6   l-0.2,1.4h0.2l0.2-1.2c0-0.7,0.1-1.2,0.4-1.7c0.3-2.4,0.9-4.8,1.9-7C15.3,9.5,16.1,6.9,16.7,4.2z" style="" spine:tagging="primary.base"/>
	<path class="c12-1e2d8f-0000000a" d="M11.6,22.1h0.1l0.2-1.2c0-0.7,0.1-1.2,0.4-1.7c0.3-2.4,0.9-4.8,1.9-7c1.1-2.7,2-5.5,2.7-8.3   c-0.1,0.1-0.1,0.2-0.2,0.3c-0.6,2.7-1.4,5.3-2.6,8c-1,2.2-1.6,4.6-1.9,7c-0.3,0.5-0.4,1-0.4,1.7L11.6,22.1z" style="" spine:tagging="primary.base"/>
	<path class="c12-1e2d8f-0000000a" d="M23.5,23l1.3,0.2c-0.8-0.1-1.9-0.8-2.7-1.1c-1.3-0.5-3-0.5-4.4-0.6c-1-0.1-2-0.4-3-0.7   c0.5,0.7,1.1,1.1,1.7,1.3c0.3,0.1,0.6,0.2,0.9,0.2c-0.3-0.1-0.6-0.1-0.9-0.2c-0.6-0.2-1.2-0.6-1.6-1.2c1,0.3,2,0.5,3,0.7   c1.4,0.1,2.7,0.4,4,0.9C22.4,22.7,22.5,22.9,23.5,23z" style="" spine:tagging="primary.base"/>
	<path d="M17.8,22.4c-0.2,0-0.3-0.1-0.5-0.1c0.1,0.1,0.3,0.1,0.4,0.2l2,0.2C19.1,22.6,18.5,22.5,17.8,22.4z" style=""/>
	<path d="M28.3,23.4h0.5c0.1,0,0.1-0.1,0.2-0.1v-0.1c-0.1,0-0.2,0-0.3,0C28.5,23.2,28.4,23.3,28.3,23.4z" style=""/>
	<path d="M14,12.1c1-2.4,1.8-4.9,2.5-7.4c-1.8,3.4-4.4,9.2-5.2,13.4c-0.1,0.1-0.1,0.3-0.1,0.4l-0.1,1.4c-0.2,0.9-0.3,1.7-0.4,2.1   l0.7,0.1l0.2-1.4c0.1-0.5,0.3-1.1,0.5-1.6C12.4,16.7,13,14.4,14,12.1z" style=""/>
	<path d="M16.5,22.2c0.3,0,0.6,0.1,0.9,0.2c0.2,0.1,0.4,0,0.5,0c0.6,0.1,1.3,0.2,1.9,0.3l3.8,0.3c-0.6-0.1-1.1-0.3-1.7-0.5   c-1.3-0.5-2.6-0.8-4-0.9c-1-0.2-2-0.4-3-0.7C15.2,21.5,15.9,22,16.5,22.2z" style=""/>
	<path d="M28.6,23.6c0.1-0.1,0-0.3,0.1-0.4c-0.4,0-1,0-1.4,0.1L28.6,23.6z" style=""/>
	<path class="c29-1e2d8f-0000000a" d="M26.4,25.4L26.4,25.4c0.1,0,0.1-0.1,0.1-0.2l0,0C26.4,25.3,26.4,25.4,26.4,25.4z" style="" spine:tagging="secondary.base"/>
	<path class="c29-1e2d8f-0000000a" d="M30,25.5c0,0.1,0,0.1,0,0.2h0.2v-2.2h-0.1v0.1C30.1,24.7,30,25.3,30,25.5z" style="" spine:tagging="secondary.base"/>
	<path class="c29-1e2d8f-0000000a" d="M26.4,25.4c0,0,0.1-0.1,0.1-0.2c-0.2,0-0.4,0.1-0.5,0.2l0,0H26.4z" style="" spine:tagging="secondary.base"/>
	<path class="c29-1e2d8f-0000000a" d="M26,25.4c0.1-0.1,0.3-0.2,0.5-0.2v-0.1c-0.2,0-0.4,0.1-0.5,0.2V25.4L26,25.4L26,25.4z" style="" spine:tagging="secondary.base"/>
	<path class="c29-1e2d8f-0000000a" d="M12.1,24.5l0.8,0.1c0-0.1-0.1-0.1-0.1-0.2C12.4,23.8,12.1,23.9,12.1,24.5z" style="" spine:tagging="secondary.base"/>
	<path class="c29-1e2d8f-0000000a" d="M10.8,23L10.8,23c0,0.1,0.1,0.2,0.3,0.3c0-0.1,0-0.1,0-0.1C11,23.2,11,23.1,10.8,23C11,23.1,11,23.1,10.8,23   C10.9,23.1,10.8,23,10.8,23z" style="" spine:tagging="secondary.base"/>
	<path class="c29-1e2d8f-0000000a" d="M25.4,23.3c0.3,0,0.7,0,1-0.1L24,23C24.5,23.1,24.9,23.2,25.4,23.3z" style="" spine:tagging="secondary.base"/>
	<path class="c29-1e2d8f-0000000a" d="M10.7,22.8c0,0.1,0,0.2,0.1,0.2l0,0C10.7,22.9,10.7,22.8,10.7,22.8z" style="" spine:tagging="secondary.base"/>
	<path class="c29-1e2d8f-0000000a" d="M11.6,22.7l0.1-0.6h-0.1l-0.1,0.6c-0.1,0.2-0.2,0.4-0.3,0.6l0,0C11.4,23.1,11.5,22.9,11.6,22.7z" style="" spine:tagging="secondary.base"/>
	<path class="c29-1e2d8f-0000000a" d="M27.2,23.3l-0.8-0.1c-0.3,0.1-0.6,0.1-1,0.1c-0.5-0.1-0.9-0.2-1.4-0.3h-0.5c0.7,0.2,1.3,0.3,2,0.4   C26.1,23.4,26.6,23.4,27.2,23.3C27.3,23.3,27.3,23.3,27.2,23.3z" style="" spine:tagging="secondary.base"/>
	<path class="c29-1e2d8f-0000000a" d="M10.7,22.2c0,0,0-0.1,0-0.2h-0.1c0,0.1,0,0.2,0,0.2c0,0.2,0.1,0.5,0.2,0.8c0,0,0.1,0.1,0.1,0   c0.1,0.1,0.1,0.1,0,0l0,0C10.8,22.7,10.7,22.4,10.7,22.2z" style="" spine:tagging="secondary.base"/>
	<path class="c29-1e2d8f-0000000a" d="M27.4,24c0.5-0.2,1.2-0.4,1.6-0.6l-2-0.2c-0.4,0.1,0.5,0.4,0.2,0.5c-0.6,0.2-1.2,0.3-1.9,0.3   c-1.3,0-2.6-0.3-3.8-0.8c-0.6-0.2-1.2-0.4-1.8-0.5l-2-0.2h0.1c1.3,0.1,2.5,0.4,3.7,0.8c1.2,0.4,2.5,0.7,3.8,0.8   C26,24.2,26.7,24.1,27.4,24z" style="" spine:tagging="secondary.base"/>
	<path class="c29-1e2d8f-0000000a" d="M10.6,22.3c0,0.2,0,0.3,0.1,0.5c0,0.1,0,0.1,0.1,0.2c-0.1-0.3-0.2-0.6-0.2-0.8V22.3L10.6,22.3z" style="" spine:tagging="secondary.base"/>
	<path class="c29-1e2d8f-0000000a" d="M10.6,22.1C10.6,22.2,10.6,22.1,10.6,22.1V22V22.1C10.6,22.2,10.6,22.2,10.6,22.1z" style="" spine:tagging="secondary.base"/>
	<g>
		<path class="c29-1e2d8f-0000000a" d="M30,23.5l-1.3-0.1c-0.4,0.2-0.9,0.3-1.4,0.5c-0.6,0.2-1.3,0.3-2,0.3c-1.3-0.1-2.6-0.4-3.8-0.8    c-1.2-0.4-2.4-0.7-3.7-0.8h-0.1l-7-0.6l-0.1,0.4c0.4,0.3,0.4-0.1,0.1,0.1c-0.2-0.1,0.1,0.6,0,0.5c0,0.1,0.1,0.2,0.1,0.3    c0.1,0.4,0.3,0.8,0.3,1c0.1,0.1,0.1,0.1,0.2,0.2h0.8c0-0.6,0.3-0.7,0.7-0.1c0,0.1,0.1,0.1,0.1,0.2l13,0.8l0.1-0.1    c0.1-0.1,0.3-0.2,0.5-0.2v0.1c-0.7,0-1.1,0.1-0.1,0.3l3.6,0.2c0-0.1,0-0.1,0-0.2c0-0.2,0.1-0.8,0.1-1.9L30,23.5L30,23.5z" style="" spine:tagging="secondary.base"/>
		<path class="c29-1e2d8f-0000000a" d="M10.9,23.1C11,23.1,11,23.1,10.9,23.1c0.1,0,0.1,0,0.2,0.1c0.2-0.1,0.3-0.3,0.4-0.6l0.1-0.6h-0.2l-0.1,0.4    v-0.3L10.6,22c0,0.1,0,0.2,0,0.2c0,0.2,0.1,0.5,0.2,0.8C10.9,23.1,10.9,23.1,10.9,23.1z" style="" spine:tagging="secondary.base"/>
	</g>
	<path class="c29-1e2d8f-0000000a" d="M23.4,23l-4.3-0.2c0.6,0.1,1.6,0.6,2.2,0.8c1.2,0.5,2.5,0.8,3.8,0.8c0.7,0,1.3-0.1,1.9-0.3   c0.4,0,0.7-0.1,1.1-0.3l-0.7-0.4h-0.1c-0.6,0.1-1.1,0.1-1.7,0.1C24.9,23.3,24.2,23.2,23.4,23z" style="" spine:tagging="secondary.base"/>
</g>
</svg>
