<svg xmlns="http://www.w3.org/2000/svg" xmlns:spine="http://powtoon.com/" viewBox="0 0 109 339">
  <defs>
    <style>
      .c4-4615-9d70a424{fill:#333}.c5-4615-9d70a424{fill:none;stroke:#fff;stroke-width:.3;stroke-linejoin:round}.c1-4616-5fffffbc{fill:#f7d7b9}.c4-4616-5fffffbc{fill:#999}.c4-4617-ccccccf{fill:#333}.c5-4617-ccccccf{fill:none;stroke:#fff;stroke-width:.3;stroke-linejoin:round}.c1-4618-6b851dfc{fill:#f7d7b9}.c4-4618-6b851dfc{fill:#999}.c5-461b-cf5c29a8{fill:#fff}.c10-461b-cf5c29a8{fill:#4488d8}.c8-461b-cf5c29a8{fill:#7a7a7a}.c7-461d-66666718{fill:#3588b0}.c9-461d-66666718{fill:#fff}.c8-461d-66666718{fill:#073b54}.c1-461e-8a3d707c,.c1-461f-00000004{fill:none}.c5-461f-00000004{fill:#333}.c3-4620-570a3cc4{fill:#e8b630}.c4-4620-570a3cc4{fill:#d3a21d}.c1-4621-3c28f624{fill:none;stroke:#4488d8;stroke-width:1.2427;stroke-miterlimit:10}.c5-4621-3c28f624{fill:#4488d8}.c4-4621-e51eb908{fill:#f7d7b9}.c10-4621-e51eb908,.c6-4622-d9999944{fill:#e4af8f}
    </style>
  </defs>
  <g id="main">
    <path xmlns:spine="http://powtoon.com/" d="M134.1 101c-7.9-1.5-17-.8-27.3 2.2-14.2 4.7-22 25.6-23.2 62.9-5.7 24.8 9.5 39.5 45.6 44.3 15.5 3.3 25-1 28.4-13 1.4-5.4.3-10.6-3.4-15.5-8.5-14.2-11.2-31.7-8.2-52.5 2.2-16.2-1.8-25.6-11.9-28.4z" style="fill:#f60000" transform="translate(48.8846 335.1115) matrix(0.2485,0.0269,-0.0269,0.2485,-36.2801,-335.112) scale(2.1001, 2.0977)" spine:tagging="head.primary.shadow"/>
    <g transform="translate(48.8846 335.1115) matrix(0.2499,0.0054,-0.0054,0.2499,5.2456,-29.1725) scale(2.0848, 2.0949)">
      <g id="main">
        <path xmlns:spine="http://powtoon.com/" fill="#F7D7B9" d="M15.4 36c-.2-5.3-1.1-8.4-5.3-8.7-1.3-.2-4.5 1.2-4.5 4.5l-.3 2.4c-.1 3.3-.6 6.6-1.4 9.8-.9 3.6-1 6.3-.5 8.1.2.9.7 1.7 1.5 2.2 1.3.6 4 .6 8.1 0l2.2-.5c2.7-.3 5.4-.5 8.2-.5 1.8 0 3.7.2 5.7.5 1.1.1 2.6.3 4.4.7 2 .3 3.9.3 5.9.3a4 4 0 0 0 2.3-1.2c.8-.8 1.3-1.9 1.3-3 0-.6-.1-1.3-.4-1.8l-5.9-2-3.5-1.2c-2.7-.9-5.4-2-7.9-3.3l-5-2.7a44.1 44.1 0 0 1-4.9-3.6z" style="fill:#f7d7b9" spine:tagging="skin.primary.base"/>
        <path xmlns:spine="http://powtoon.com/" fill="#EDBF9E" d="M11.8 35l.1.1v.1l-.1.1v.1l-.1.1-.4.9v.2l-.1.1-.2.4v.5l-.3.9-.1.2v.2l-.1.2-.1.5-.1.3v.4l-.1.9.1 2.1.1.4v.2l.2.7v.3l.1.2.1.4v.2h-.1l-.1-.1-.1-.1-.1-.2-.4-.2-.4-.5-.6-1.4V43l-.1-.3v-2l.1-.6c0-.4.1-.8.3-1.1l.4-1 .1-.2.1-.2.8-1.2 1-1.1h.1l.1-.1-.1-.2z" style="fill:#edbf9e" spine:tagging="skin.primary.shadow"/>
        <path fill="#fff" d="M4.8 33.5l-.2.6c1.9-.5 2.6.4 2.5 2.6.1 2.4 3.3 2.2 3.3 2.3 0 0 7.2.5 8.6-2.6-.5-.2-1.2-.9-2.4-2.7l-11.8-.2z"/>
        <path xmlns:spine="http://powtoon.com/" fill="#dee0a3" d="M3.4 37.7c-.4 1-.4 2.3-.6 3.2a9.5 9.5 0 0 1 8.8 4.1c.8 1.5 2.3 2.9 3.9 3.1 4.2 1 10.2-.2 16.4-3.4l-.9-.4-1.5-1-.5-.2-2-1.3c-5-3.3-7.6-5.2-7.9-5.5-3.9 1.4-6.8 2-8.9 1.8l-1.4-.4a4 4 0 0 1-1.6-1c.1-2.2-.7-3.1-2.6-2.6l-.8 2.6-.4 1z" style="fill:#67ece7" spine:tagging="primary.shadow"/>
        <path xmlns:spine="http://powtoon.com/" fill="#f0f0f0" d="M1.8 51.7V55l32.8-.3 3.8-.1.4.1h.1l.6-.1c.9-.1 1.8-.6 2.4-1.4.4-.5.8-.9 1-1.6l-41.1.1z" spine:tagging="tertiary.base"/>
        <path xmlns:spine="http://powtoon.com/" fill="#edefbc" d="M43.1 51.1l.1-.8a4.4 4.4 0 0 0-2.4-3.9L40 46h-.7c-1.6-.4-3.2-.8-4.7-1l-1.3-.2-.3-.1-1.9-.3c-6.2 3.2-11.5 4.4-15.6 3.4a5 5 0 0 1-3.8-2.7 10 10 0 0 0-8.9-4.5l-.1.4-.1.3v.3c-.6 3.1-.8 6.2-.7 9.3l41.2.2z" style="fill:#80ffff" spine:tagging="primary.base"/>
        <path fill="#d2d2d2" d="M9.4 36.6l-.7 1-.1.1 1.4.4.1-.4.1-.3.1-.4.1-.2.1-.2v-.2l.1-.2.6-1.4v-.1l.1-.1-.1-.1-.1.1-.1.1-1 .9-.1.2-.5.8z"/>
        <path xmlns:spine="http://powtoon.com/" fill="#999" d="M1.9 50.8V52h40.9l.3-1.2H1.9z" spine:tagging="secondary.base"/>
        <path d="M27.3 43.4l-.2-.5-.5-.2c-.2 0-.4 0-.5.2l-.2.5.2.5.5.2.5-.2.2-.5z" class="c4-4615-9d70a424"/>
        <path d="M27.3 43.4c0 .4-.3.7-.7.7a.8.8 0 0 1-.5-.2l-.2-.5.2-.5.5-.2c.2 0 .4 0 .5.2l.2.5z" class="c5-4615-9d70a424"/>
        <path d="M24.5 41.6l-.2-.5a.8.8 0 0 0-.5-.2c-.3 0-.7.2-.7.6v.1l.2.5.5.2c.4 0 .7-.3.7-.7z" class="c4-4615-9d70a424"/>
        <path d="M24.5 41.6l-.2.5-.5.2a.8.8 0 0 1-.5-.2l-.2-.5.2-.5.5-.2c.2 0 .4 0 .5.2l.2.5z" class="c5-4615-9d70a424"/>
        <path d="M21.7 39.7l-.2-.5-.5-.2c-.2 0-.4 0-.5.2l-.2.5.2.5.5.2.5-.2c.2-.1.2-.3.2-.5z" class="c4-4615-9d70a424"/>
        <path d="M21.7 39.8l-.2.5-.5.2a.8.8 0 0 1-.5-.2l-.2-.5.2-.5.5-.2c.2 0 .4 0 .5.2l.2.5z" class="c5-4615-9d70a424"/>
        <path xmlns:spine="http://powtoon.com/" d="M21.2 39.5l.8-.9m2.1 2.7l.8-.9m1.9 2.7l.8-.9" spine:tagging="secondary.base" style="stroke:#999;stroke-width:.75;stroke-linecap:round;fill:none;stroke-linejoin:round"/>
        <path d="M14.7 32h-9" class="c7-4615-9d70a424"/>
      </g>
    </g>
    <g transform="translate(48.8846 335.1115) matrix(0.25,-0.0034,0.0034,0.25,22.474,-4.7971) scale(2.0833, 2.1649)">
      <g id="main">
        <path xmlns:spine="http://powtoon.com/" d="M17.1 6.4c-.5-1.1-1.9-1.8-4.3-2a.8.8 0 0 0-.4-.2l-1.5-.4-8.5-3-.9.7a4.2 4.2 0 0 0-.1 6c.6.7 1.4 1.1 2.2 1.3l.5.1 7.9-.2.8.3 1.5.3c1.4.1 2.4-.3 2.8-1.3l.2-.8-.2-.8z" class="c1-4616-5fffffbc" style="fill:#f7d7b9" spine:tagging="skin.primary.base"/>
        <path xmlns:spine="http://powtoon.com/" d="M.1 4.4c0-1.2.5-2.3 1.4-3.1l.9-.7 8.6 3 1.6.4.4.2c2.4.3 3.9 1 4.3 2.1l.2.8-.2.8c-.4 1-1.3 1.5-2.8 1.3L13 8.9l-.8-.3-8 .2-.5-.1c-1-.1-1.8-.6-2.3-1.2C.5 6.6.1 5.5.1 4.4z" class="c1-4616-5fffffbc" style="fill:#f7d7b9" spine:tagging="skin.primary.base"/>
        <path xmlns:spine="http://powtoon.com/" d="M14 4.9l.1-.1v-.2l.1-.1h.2l.1.1v.2l.2.4v.1l.2.5v.1l.1.1.3.2.2.1.2.1h.1l.1.1H17l.1.1-.1.1h-.1l-.2.2-.3.1h-1.1l-.1-.1-.5-.2-.4-.4-.1-.2V6l-.1-.2v-.1l-.1-.1V4.9z" style="fill:#edbf9e" spine:tagging="skin.primary.shadow"/>
        <path xmlns:spine="http://powtoon.com/" d="M8.9 8.8l.4.1-.4-.1zM16.5 6v-.1h-.3V6c.1-.4.1-.8-.1-1.2v-.2l-.6-.8-.2-.2v-.1c-1-.8-2.2-1.5-3.4-2A23 23 0 0 0 9.4.6l-1-.2C7.1.1 5.9 0 4.6.1a4 4 0 0 0-2.9 1.2C.8 2.1.3 3.3.4 4.5v.2L.6 6l1 1.4a4 4 0 0 0 2.1 1.2l.2.1H4l.3.1h.1l1.2-.1h10.8l.1-2.7zM7.2 8.2zm.5.3l.1.1-.1-.1z" class="c4-4616-5fffffbc" spine:tagging="secondary.base"/>
        <path xmlns:spine="http://powtoon.com/" fill="#edefbc" d="M8.3.3l1 .2 2.6.9c1.3.5 2.4 1.1 3.5 2v.1l.2.2.6.8v.2H.2v-.2c0-1.2.5-2.4 1.4-3.3C2.3.4 3.4 0 4.5 0a12 12 0 0 1 3.8.3M7.2 7.5l.1.1h-.1c-.1-.1-.1-.1 0-.1M16.4 6l.3-.1V6h-.3M9 8.8h-.1l.4.1-.3-.1" style="fill:#80ffff" spine:tagging="primary.base"/>
        <path xmlns:spine="http://powtoon.com/" fill="#f0f0f0" d="M1.4 7.5C1 7.1.6 6.6.3 6h16.4v2.7H5.6l-1.3.1h-.1l-.3-.1h-.1l-.2-.1c-.8-.1-1.6-.5-2.2-1.1m6.4 1.1h-.1.1m-.6-.4" spine:tagging="tertiary.base"/>
        <path xmlns:spine="http://powtoon.com/" d="M.3 6L.1 4.7h16.2c.2.4.2.8.1 1.3H.3z" class="c4-4616-5fffffbc" spine:tagging="secondary.base"/>
      </g>
    </g>
    <g transform="translate(48.8846 335.1115) matrix(0.2478,0.033,-0.033,0.2478,14.4267,-104.675) scale(2.1224, 2.0965)">
      <g id="main">
        <path xmlns:spine="http://powtoon.com/" fill="#f7d7b9" d="M20 11h-2c-7 0-11 5-11 11v1l3 153s1 5 5 5c2 0 4-2 4-4L29 23v-1c0-3-1-6-3-8l-6-3z" style="fill:#f7d7b9" spine:tagging="skin.primary.base"/>
        <path fill="#0f81b1" fill-opacity="0" d="M0 192.7h52.3V0H0v192.7z"/>
        <path xmlns:spine="http://powtoon.com/" fill="#85b2f1" d="M31.4 177.2c-3 5-8.9 3.4-29.1 4-.4-4.9 3.6-3 3.6-5.8 0-1.5-5.9-2-5.9-4 0-1.5 2.2-3.3 2.2-5-.1-35.7 4.4-142.9 4.4-142.9 0-3.9 1.9-11.4 10.6-12.1C29.5 11.8 29.5 23 29.5 23s.6 113.9 1.8 144.5c.2 4.3-3.4 3.5-3.4 6.1 0 2.3 3.4 1.2 3.5 3.6z" style="fill:#c11e1e" spine:tagging="primary.base"/>
        <path xmlns:spine="http://powtoon.com/" fill="#4488d8" d="M3.6 177.7c1.1-.6 2.4-.7 2.4-2.3 0-1.3-4.4-1.9-5.6-3.3 19.2-.5 9.9 4.8 3.2 5.6z" style="fill:#b00000" spine:tagging="primary.shadow"/>
      </g>
    </g>
    <g transform="translate(48.8846 335.1115) matrix(0.2464,-0.042,0.042,0.2464,-4.7842,-166.036) scale(2.1088, 2.1024)">
      <g id="main">
        <path xmlns:spine="http://powtoon.com/" fill="#f7d7b9" d="M41 6a17 17 0 0 0-8-4h-4c-9 0-16 7-16 15h-1v16l1 23 2 91v2c0 3 1 5 3 8 2 2 5 3 8 3h1c3 0 6-1 8-4 2-2 3-5 3-8l6-97 2-28c1-6-1-12-5-17z" style="fill:#f7d7b9" spine:tagging="skin.primary.base"/>
        <path xmlns:spine="http://powtoon.com/" fill="#2f8a9d" d="M41.2 6.5a16 16 0 0 1 5.3 11.8 18 18 0 0 1-.5 4.6l-8 124.8v.5c.1 3-1.1 6-3.3 8.1-2 2.3-4.9 3.7-8 3.7h-.9c-2.8-.2-5.4-1.4-7.3-3.4a11 11 0 0 1-3.5-7.9v-1.3L12.1 17.2h.4A17 17 0 0 1 32.9 2c3.2.7 6 2.2 8.3 4.5z" style="fill:#c11e1e" spine:tagging="primary.base"/>
      </g>
    </g>
    <g transform="translate(48.8846 335.1115) matrix(0.25,-0.0013,0.0013,0.25,-29.3859,-28.9785) scale(2.0848, 2.0949)">
      <g id="main">
        <path xmlns:spine="http://powtoon.com/" fill="#F7D7B9" d="M36.3 39.6l-5 2.7a54.8 54.8 0 0 1-7.9 3.3l-3.5 1.2-5.9 2c-.3.5-.4 1.2-.4 1.8 0 1.1.5 2.2 1.3 3a4 4 0 0 0 2.3 1.2c2 0 3.9 0 5.9-.3a35 35 0 0 1 4.4-.7c2-.3 3.9-.5 5.7-.5a73.7 73.7 0 0 1 10.4 1c4.1.6 6.8.6 8.1 0 .8-.5 1.3-1.3 1.5-2.2.5-1.8.4-4.5-.5-8.1-.8-3.2-1.3-6.5-1.4-9.8l-.3-2.4c.1-3.3-3.2-4.7-4.5-4.5-4.2.3-5.1 3.4-5.3 8.7a44.1 44.1 0 0 1-4.9 3.6z" style="fill:#f7d7b9" spine:tagging="skin.primary.base"/>
        <path xmlns:spine="http://powtoon.com/" fill="#EDBF9E" d="M44.7 35.2l.2.1 1 1.1.8 1.2.1.2.1.2.4 1c.2.3.3.7.3 1.1l.1.6v2l-.1.3v.2l-.6 1.4-.4.5-.4.2-.1.2-.1.1-.1.1h-.1v-.2l.1-.4.1-.2v-.3l.2-.7v-.2l.1-.4.1-2.1-.1-.9v-.4l-.1-.3-.1-.5-.1-.2v-.2l-.1-.2-.3-.9v-.5l-.2-.4-.1-.1v-.2l-.4-.9-.1-.1v-.1l-.1-.1.1-.2-.1.2z" style="fill:#edbf9e" spine:tagging="skin.primary.shadow"/>
        <path fill="#fff" d="M40 33.6c-1.2 1.8-1.9 2.5-2.4 2.7 1.4 3.1 8.6 2.6 8.6 2.6 0-.1 3.2.2 3.3-2.3-.1-2.2.6-3.1 2.5-2.6a4 4 0 0 1-.2-.6l-11.8.2z"/>
        <path xmlns:spine="http://powtoon.com/" fill="#dee0a3" d="M52.9 36.7l-.8-2.6c-1.9-.5-2.7.4-2.6 2.6a4 4 0 0 1-1.6 1l-1.4.4c-2.1.2-5-.4-8.9-1.8-.3.3-2.9 2.2-7.9 5.5l-2 1.3-.3.2-1.5 1-.9.4a25.5 25.5 0 0 0 16.4 3.4c1.6-.2 3.1-1.6 3.9-3.1 2-3 5.1-4.3 8.8-4.1-.2-.9-.2-2.2-.7-3.2l-.5-1z" style="fill:#67ece7" spine:tagging="primary.shadow"/>
        <path xmlns:spine="http://powtoon.com/" fill="#f0f0f0" d="M54.9 51.6H13.8c.2.7.6 1.1 1 1.6a4 4 0 0 0 2.4 1.4l.6.1h.1l.4-.1 3.8.1 32.8.3v-3.4z" spine:tagging="tertiary.base"/>
        <path xmlns:spine="http://powtoon.com/" fill="#edefbc" d="M54.8 50.9c.1-3.1-.1-6.2-.7-9.3v-.3L54 41l-.1-.4a10 10 0 0 0-8.9 4.5 5 5 0 0 1-3.8 2.7c-4.1 1-9.4-.2-15.6-3.4l-1.9.3-.3.1-1.3.2a44 44 0 0 0-4.7 1h-.7l-.8.4a4.4 4.4 0 0 0-2.4 3.9l.1.8 41.2-.2z" style="fill:#80ffff" spine:tagging="primary.base"/>
        <path fill="#d2d2d2" d="M46.8 35.8l-.1-.2-1-.9-.1-.1-.1-.1-.1.1.1.1v.1l.6 1.4.1.2v.2l.1.2.1.2.1.4.1.3.1.4 1.4-.4-.1-.1-.7-1-.5-.8z"/>
        <path xmlns:spine="http://powtoon.com/" fill="#999" d="M13.6 50.8l.3 1.2h40.9v-1.2H13.6z" spine:tagging="secondary.base"/>
        <path d="M29.6 43.9l.5.2.5-.2.2-.5-.2-.5c-.1-.2-.3-.2-.5-.2l-.5.2-.2.5.2.5z" class="c4-4617-ccccccf"/>
        <path d="M29.6 42.9c.1-.2.3-.2.5-.2l.5.2.2.5-.2.5-.5.2a.7.7 0 0 1-.7-.7l.2-.5z" class="c5-4617-ccccccf"/>
        <path d="M32.9 42.3l.5-.2.2-.5v-.1c0-.4-.4-.6-.7-.6l-.5.2-.2.5c0 .4.3.7.7.7z" class="c4-4617-ccccccf"/>
        <path d="M32.4 41.1c.1-.2.3-.2.5-.2l.5.2.2.5-.2.5-.5.2a.8.8 0 0 1-.5-.2.8.8 0 0 1-.2-.5l.2-.5z" class="c5-4617-ccccccf"/>
        <path d="M35.2 40.2l.5.2.5-.2.2-.5-.2-.5c-.1-.2-.3-.2-.5-.2l-.5.2-.2.5c0 .2 0 .4.2.5z" class="c4-4617-ccccccf"/>
        <path d="M35.2 39.3c.1-.2.3-.2.5-.2l.5.2.2.5-.2.5-.5.2a.8.8 0 0 1-.5-.2l-.2-.5.2-.5z" class="c5-4617-ccccccf"/>
        <path xmlns:spine="http://powtoon.com/" d="M34.7 38.6l.8.9m-3.7.9l.8.9m-3.5.9l.8.9" spine:tagging="secondary.base" style="stroke:#999;stroke-width:.75;stroke-linecap:round;fill:none;stroke-linejoin:round"/>
      </g>
    </g>
    <g transform="translate(48.8846 335.1115) matrix(0.25,0,0,0.25,-28.7621,-5.1256) scale(2.0833, 2.1649)">
      <g id="main">
        <path xmlns:spine="http://powtoon.com/" d="M4.6 6.4c.5-1.1 1.9-1.8 4.3-2l.3-.3 1.5-.4L19.2.8l.9.7a4.2 4.2 0 0 1 .1 6c-.6.6-1.3 1.1-2.2 1.3l-.5.1-7.8-.2-.8.3-1.5.3C5.9 9.4 5 9 4.6 8l-.2-.8c0-.2 0-.5.2-.8z" class="c1-4618-6b851dfc" style="fill:#f7d7b9" spine:tagging="skin.primary.base"/>
        <path xmlns:spine="http://powtoon.com/" d="M20.3 7.5c-.6.7-1.3 1.1-2.2 1.3l-.5.1-8-.2a19.7 19.7 0 0 1-2.4.5c-1.5.2-2.4-.3-2.9-1.3l-.1-.8c0-.3 0-.6.2-.8.5-1.1 1.9-1.8 4.3-2.1l.4-.3 1.6-.4 8.6-3 .9.7c.9.8 1.4 1.9 1.4 3.1s-.5 2.3-1.3 3.2z" class="c1-4618-6b851dfc" style="fill:#f7d7b9" spine:tagging="skin.primary.base"/>
        <path xmlns:spine="http://powtoon.com/" d="M7.6 5.3v.5l-.1.2v.1l-.2.2-.4.4-.4.2-.2.1h-1L5 6.9l-.2-.2h-.2l.1-.1.1-.1H6l.1-.1h.1l.2-.1.2-.1.3-.2.1-.1v-.1l.2-.5.2-.4v-.2l.1-.1h.2l.1.1v.2l.1.1-.3.3z" style="fill:#edbf9e" spine:tagging="skin.primary.shadow"/>
        <path xmlns:spine="http://powtoon.com/" d="M12.7 8.8l-.4.1.4-.1zM5.1 6v2.6H16l1.2.1h.1l.3-.1h.1l.2-.1c.8-.2 1.5-.6 2.1-1.2.4-.4.8-.9 1-1.4.2-.4.2-.9.2-1.3v-.2c0-1.2-.5-2.4-1.3-3.2A4 4 0 0 0 17 0a12 12 0 0 0-3.8.3l-.9.2-2.5.9C8.6 2 7.4 2.7 6.4 3.5v.1l-.2.1c-.3.3-.5.5-.6.8v.2c-.2.4-.3.9-.1 1.3v-.1h-.4V6zm9.3 2.1zm-.6.5l.2-.1-.2.1z" class="c4-4618-6b851dfc" spine:tagging="secondary.base"/>
        <path xmlns:spine="http://powtoon.com/" fill="#edefbc" d="M13.3.3c1.3-.3 2.6-.4 3.9-.3 1.1 0 2.2.4 3 1.2.9.8 1.4 2 1.4 3.3v.2H5.5v-.2l.5-.8.2-.2v-.1a11 11 0 0 1 3.5-2l2.6-.9 1-.2m1.2 7.2c.1 0 .1 0 0 .1h-.1l.1-.1M5.3 6H5v-.1l.3.1m7.4 2.8l-.4.1.4-.1" style="fill:#80ffff" spine:tagging="primary.base"/>
        <path xmlns:spine="http://powtoon.com/" fill="#f0f0f0" d="M20.2 7.5c-.6.6-1.3 1.1-2.1 1.2l-.2.1h-.1l-.3.1h-.1l-1.3-.1H5V6h16.3c-.2.6-.6 1.1-1.1 1.5m-6.3 1.1h.1-.1m.6-.4" spine:tagging="tertiary.base"/>
        <path xmlns:spine="http://powtoon.com/" d="M13 6H5.3a2 2 0 0 1 .1-1.3h16.2L21.4 6H13z" class="c4-4618-6b851dfc" spine:tagging="secondary.base"/>
      </g>
    </g>
    <g transform="translate(48.8846 335.1115) matrix(0.2482,-0.0302,0.0302,0.2482,-35.8435,-101.443) scale(2.1224, 2.0965)">
      <g id="main">
        <path xmlns:spine="http://powtoon.com/" d="M26.5 14a11 11 0 0 0-3.6 8.1v.4h-.1l10.1 153.8c.2 2.5 2.2 4.5 4.4 4.4 3.6-.4 4.5-2.4 4.6-4.4L45.7 23v-.4-.4a11.3 11.3 0 0 0-13.8-11c-2.1.4-3.9 1.4-5.4 2.8z" style="fill:#f7d7b9" spine:tagging="skin.primary.base"/>
        <path fill="#0f81b1" fill-opacity="0" d="M52.3 0H0v192.7h52.3V0z"/>
        <path xmlns:spine="http://powtoon.com/" fill="#85b2f1" d="M24.4 173.1c0-2.6-3.6-1.8-3.4-6.1 1.2-30.6 1.8-144.5 1.8-144.5s0-11.2 12.4-11.6c8.7.6 10.5 8.1 10.5 12.1 0 0 4.5 107.2 4.4 142.9 0 1.7 2.2 3.5 2.2 5 0 2-5.9 2.5-5.9 4 0 2.8 4 .9 3.6 5.8-20.2-.6-26.1 1-29.1-4 .1-2.4 3.5-1.3 3.5-3.6z" style="fill:#c11e1e" spine:tagging="primary.base"/>
        <path xmlns:spine="http://powtoon.com/" fill="#4488d8" d="M51.9 171.6c-1.2 1.4-5.6 2-5.6 3.3 0 1.6 1.3 1.7 2.4 2.3-6.7-.8-16-6.1 3.2-5.6z" style="fill:#b00000" spine:tagging="primary.shadow"/>
      </g>
    </g>
    <g transform="translate(48.8846 335.1115) matrix(0.2452,0.0488,-0.0488,0.2452,-17.9171,-171.527) scale(2.1088, 2.1024)">
      <g id="main">
        <path xmlns:spine="http://powtoon.com/" fill="#f7d7b9" d="M46.3 17.1A17 17 0 0 0 25.9 2a17.3 17.3 0 0 0-13.1 20.5h.1v.3l1.8 27.7h.1l6.1 97.2v.5c-.1 3 1.1 6 3.3 8.1 2 2.3 4.9 3.7 8 3.7h.9a11 11 0 0 0 7.3-3.3c2.2-2 3.5-4.9 3.5-7.9v-1.3l2-91.5.1.1.5-23.5.2-15.5h-.4z" style="fill:#f7d7b9" spine:tagging="skin.primary.base"/>
        <path xmlns:spine="http://powtoon.com/" fill="#2f8a9d" d="M17.9 6.4C20.2 4.2 23 2.7 26.1 2l3.9-.3a17 17 0 0 1 16.6 15.4h.4l-3 130.3v1.3c0 3-1.3 5.8-3.5 7.9a11 11 0 0 1-7.3 3.3h-.9c-3.1 0-6-1.4-8-3.7a10.8 10.8 0 0 1-3.3-8.1v-.5L13 22.8a17 17 0 0 1 4.9-16.4z" style="fill:#c11e1e" spine:tagging="primary.base"/>
      </g>
    </g>
    <g transform="translate(48.8846 335.1115) matrix(0.2257,0.1075,-0.1075,0.2257,-14.736,-245.356) scale(2.1106, 2.1004)">
      <g id="main">
        <path xmlns:spine="http://powtoon.com/" d="M12.7 91.1c-.2.8-.1 1.5 0 2.3.3 2 1.4 3.9 3.1 5l.1.1a7.7 7.7 0 0 0 10.7-1.7c.6-1 1.1-2.1 1.3-3.3L29 54.1l-.1-29.7c1.1-2 1.4-4.3.9-6.5a9.2 9.2 0 0 0-3.6-6A9.8 9.8 0 0 0 12.5 14l-.3.4a8.5 8.5 0 0 0-1.5 4.1V21.8l2 69.3z" style="fill:#f7d7b9" spine:tagging="skin.primary.base"/>
        <path xmlns:spine="http://powtoon.com/" d="M29.1 44.2l-.1-7.1c-5.9.8-11.9.9-17.7-.2l.5 10.9c5.9-.5 12.1-.9 17.3-3.6z" style="fill:#edbf9e" spine:tagging="skin.primary.shadow"/>
        <path xmlns:spine="http://powtoon.com/" d="M30.8 25.8c0-3.1-.6-6.3-1.2-9.4-3.4-8.2-12.8-8.8-18.2-1.4-.3.5-.6 1-.7 1.6L8.6 24c-.5 2-.8 4.2-1 6.2L7 34.1c-.2 1.8-.7 3.5-1.5 5.2-.9 1.5-.4 2.6 1.4 3.2a56 56 0 0 0 22.3 1.8c.4-2.5.8-5 1-7.6.2-3.3.5-6.8.6-10.9z" style="fill:#c11e1e" spine:tagging="primary.base"/>
      </g>
    </g>
    <g transform="translate(48.8846 335.1115) matrix(0.2228,-0.1133,0.1133,0.2228,6.504,-234.886) scale(2.1106, 2.1004)">
      <g id="main">
        <path xmlns:spine="http://powtoon.com/" d="M29.4 22V18.7a8.5 8.5 0 0 0-1.5-4.1l-.3-.4A9.7 9.7 0 0 0 10.2 18a8 8 0 0 0 1 5.9l-.1 30 1.1 39c.2 1.2.7 2.3 1.3 3.3a7.6 7.6 0 0 0 10.6 1.7l.1-.1c1.7-1.1 2.8-3 3.1-4.9.1-.8.2-1.5 0-2.3L29.4 22z" style="fill:#f7d7b9" spine:tagging="skin.primary.base"/>
        <path xmlns:spine="http://powtoon.com/" d="M28.5 48.1l.5-10.9c-5.8 1.1-11.8 1-17.7.2l-.1 7.1c5.2 2.7 11.4 3.1 17.3 3.6z" style="fill:#edbf9e" spine:tagging="skin.primary.shadow"/>
        <path xmlns:spine="http://powtoon.com/" d="M31.8 24.3c-1.2-6.2-3.8-13.3-11.1-14A10.1 10.1 0 0 0 9.9 19c-1.1 8.6 0 17.1 1.2 25.6 3.6.5 25.5 1.3 23.9-4.7-.8-3-1.7-5.7-2.2-8.8l-1-6.8z" style="fill:#c11e1e" spine:tagging="primary.base"/>
      </g>
    </g>
    <g transform="translate(48.8846 335.1115) matrix(0.2485,0.0031,-0.0031,0.25,-16.0526,-184.283) scale(2.1024, 2.1008)">
      <g id="main" fill="#66a">
        <path xmlns:spine="http://powtoon.com/" d="M64.5 61.8a8.5 8.5 0 0 0 6.6-7.3c.3-2.4.5-5 .6-7.7.3-5.1.4-9.7.3-14L4 33c.1 6.9.6 13.8 1.3 20.6a10 10 0 0 0 7.8 8.7 122 122 0 0 0 51.4-.5z" spine:tagging="primary.base"/>
        <path xmlns:spine="http://powtoon.com/" d="M64.5 61.8a8.5 8.5 0 0 0 6.6-7.3c.3-2.4.5-5 .6-7.7.3-5.1.4-9.7.3-14L4 33c.1 6.9.6 13.8 1.3 20.6a10 10 0 0 0 7.8 8.7 122 122 0 0 0 51.4-.5z" style="fill:#c11e1e" spine:tagging="primary.base"/>
      </g>
    </g>
    <path xmlns:spine="http://powtoon.com/" d="M73.3 9l-15.6.3.2.2-39-.8c-5.7 2-7.8 6-6.1 12.1l7.4 20.4 2.8 7.6-.5.9a47.3 47.3 0 0 0-3.5 8.4c-.5 1.8-.6 3.6-.3 5.4.8 4 2.4 6.8 4.9 8.3.8.5 1.7.9 2.5 1.2l.7.3 1.8.5-2.9 25.4-.7 2.8-.1.3-.1.5c-.4 1.2-1.5 3.7-3.2 7.4a46.2 46.2 0 0 0-5.2 16.4 45.8 45.8 0 0 0-.7 17.7c.4 11.6 22 13.2 34.4 13.3 11.1-.3 31.8-3.8 32.1-13.8.1-3.8-.1-7.3-.7-10.8h.2c-.3-1-1.7-7.8-2-8.6l-3.2-8.9c-.9-2.3-1.6-4.6-2.2-7l-1.7-7.2h-.1l-.1-.7-.4-1.4-2.9-25.4 1-.3c1.4-.4 2.8-1 4-1.8a12 12 0 0 0 5.2-8.3c.8-3.9-.2-7.9-3-12l-.3-.5-1.2-2.2 2.7-7.6 2.8-7.8 3.4-8.4a54 54 0 0 0 1.2-5.5c.5-3.6-3.3-7-11.6-10.4z" style="fill:#f7d7b9" transform="translate(48.8846 335.1115) matrix(0.2529,0.0077,-0.0076,0.2499,-20.4217,-241.791) scale(2.1114, 2.1017)" spine:tagging="skin.primary.base"/>
    <path xmlns:spine="http://powtoon.com/" d="M26.8 73.3l1.8.5-.5 4 9.4-4-10.7-.5m31.5 0l11.3 5.6-.6-5.1v-.3l-10.7-.2z" transform="translate(48.8846 335.1115) matrix(0.2529,0.0077,-0.0076,0.2499,-20.4217,-241.791) scale(2.1114, 2.1017)" spine:tagging="primary.shadow" style="fill:#bb7070"/>
    <path xmlns:spine="http://powtoon.com/" fill="#f99" d="M65 39.6c-9 1-14.4 2.4-16.2 4.4-2.6-2.2-8.1-3.7-16.5-4.5-8.4-.8-12.4-.1-12 1.9a35 35 0 0 1-.8 12.8 41.5 41.5 0 0 0-1.4 9.3A11.9 11.9 0 0 0 26 73l.7.3 10.8.5-9.4 4-.5 4h42.2l-.3-2.9-11.2-5.6 10.7.2v.3l1-.3c1.4-.4 2.8-1 4-1.8a12 12 0 0 0 5.4-8.3c.2-1-.2-4.5-1.2-10.5S77 43 77.6 41.1c.6-1.8-3.6-2.3-12.6-1.5z" transform="translate(48.8846 335.1115) matrix(0.2529,0.0077,-0.0076,0.2499,-20.4217,-241.791) scale(2.1114, 2.1017)" spine:tagging="primary.base"/>
    <path xmlns:spine="http://powtoon.com/" fill="#ebb79e" d="M50.7 124l-1-.9-.2.2.1.1v.1l.1.1.1.1.3.7v.3l.1.3-.1.4v.6l-.1.2v.2l-.1.2v.2l-.1.3-.1.1-.1.2v.1h-.1v.1l-.1.1-.1.1h-.1v.1h-.3l-.1-.1-.1-.1-.3-.6v-.3l-.1-.1v-.4l.2-.8v-.2l.1-.1v-.2l-.2-.1-.3.3-.2.5-.2.3-.1.4v.3l-.1.1v.6l.1.3v.1l.1.1v.1l.1.3.1.1.5.5.1.1h1.2l.1-.1h.1l.2-.1.2-.1.4-.4.1-.2.1-.1.1-.1v-.1l.1-.1.2-.9v-1.4l-.1-.2-.1-.5-.1-.4-.3-.3z" style="fill:#edbf9e" transform="translate(48.8846 335.1115) matrix(0.2529,0.0077,-0.0076,0.2499,-20.4217,-241.791) scale(2.1114, 2.1017)" spine:tagging="skin.primary.shadow"/>
    <g transform="translate(48.8846 335.1115) matrix(0.2485,0.0031,-0.0031,0.25,-16.0526,-184.283) scale(2.1024, 2.1008)">
      <g id="main" fill="#66a">
        <path xmlns:spine="http://powtoon.com/" d="M64.5 61.8a8.5 8.5 0 0 0 6.6-7.3c.3-2.4.5-5 .6-7.7.3-5.1.4-9.7.3-14L4 33c.1 6.9.6 13.8 1.3 20.6a10 10 0 0 0 7.8 8.7 122 122 0 0 0 51.4-.5z" spine:tagging="primary.base"/>
        <path xmlns:spine="http://powtoon.com/" d="M64.5 61.8a8.5 8.5 0 0 0 6.6-7.3c.3-2.4.5-5 .6-7.7.3-5.1.4-9.7.3-14L4 33c.1 6.9.6 13.8 1.3 20.6a10 10 0 0 0 7.8 8.7 122 122 0 0 0 51.4-.5z" style="fill:#c11e1e" spine:tagging="primary.base"/>
      </g>
    </g>
    <g transform="translate(48.8846 335.1115) matrix(0.2529,0.0077,-0.0076,0.2499,-20.4217,-241.791) scale(2.1114, 2.1017)">
      <path xmlns:spine="http://powtoon.com/" fill="#7db2ee" d="M80.1 33.3l3.4-8.4a54 54 0 0 0 1.2-5.5c.4-1.9-.5-3.8-2.7-5.6-1.3-1.2-3-2.2-4.8-3L73.4 9l-14.2.3-.9 1.2-22.5-.3-.7-1.6-5.7.1h-6.9l-3.7-.1-.2.1h-.2a9.4 9.4 0 0 0-3.7 2.2c-.4.4-.8.7-1.1 1.2l-.2.3-.1.1-.9 1.4c-1.1 2.5-.6 5.1.2 7.6l5.8 16.3 1.5 3.5.3.7c.5 3.1.2 7.1-.9 12.3l-.2 1.1c-1.2 2.7-1.6 5.3-1.2 7.7v.5a12 12 0 0 0 7.9 9.5l.7.3h.2l1.7.5-.4 4-.5 4-2 17.5c-.7 11.3-14.7 31.9-14.2 56.8.8 15 73.5 13 73.5 0l-.1-7.4a104.5 104.5 0 0 0-5.6-26.8c-1.6-4.8-4.1-9.3-5.1-13.4l-1.8-7.8-.4-1.4-2-17.5-.4-2.9-.6-5 1-.3c1.4-.4 2.8-1 4-1.8l2-1.6c1.8-1.8 3-4.2 3.4-6.7v-.2c.3-1.8.2-3.8-.4-5.8l-.7-5.9c-.8-6.7-.9-11.1-.2-13 .4-.2 2.2-5.4 2.2-5.4z" style="fill:#c11e1e" spine:tagging="primary.base"/>
      <path d="M59.3 9.3h-1.5l-.2.7-20.2-.2-.4-1.3-2-.1 12.6 27L59.3 9.3z" class="c5-461b-cf5c29a8"/>
      <path xmlns:spine="http://powtoon.com/" d="M27.9 78.3l9.4-4-10.9-.9 2 .6-.5 4.3m30.2-4.5l11.3 5.6-.6-5.1V74l-10.7-.2z" class="c10-461b-cf5c29a8" style="fill:#b00000" spine:tagging="primary.shadow"/>
      <path xmlns:spine="http://powtoon.com/" d="M37.1 8.6s3.1 13.6 10.7 14c7.9.3 10-13.3 10-13.3l-20.7-.7z" style="fill:#f7d7b9" spine:tagging="skin.primary.base"/>
      <ellipse cx="63.2" cy="64.6" fill="#bcbcbc" rx="5.6" ry="5.6"/>
      <ellipse cx="63.2" cy="64.8" class="c8-461b-cf5c29a8" rx="2.9" ry="2.9"/>
      <path d="M60.9 64.5a2.8 2.8 0 0 1 2.3-2.5 2.8 2.8 0 0 0-2.9 2.6 2.8 2.8 0 0 0 2.6 3h.7-.1a2.7 2.7 0 0 1-2.6-3.1z" class="c5-461b-cf5c29a8"/>
      <path d="M63.4 65.9c-.1 0-.1 0 0 0-.5-.1-.6-.4-.6-.7 0-.2 4.5-39.1 4-46.6-.6-3.8-1.8-6.6-3.8-8.2-1.4-1.2-4.1-1-4.7-1.1-.1 0-.2-.8.5-1.1.4-.1 3-.4 4.9 1.3 2.3 1.9 3.7 4.9 4.2 9.1.6 7.8-3.8 45.8-4 46.9 0 .2-.3.4-.5.4zM28.4 35c-.2 0-.6-.2-.6-.5a52.5 52.5 0 0 1-.8-16C29.7 7 36.4 7.7 36.7 7.7c.4 0 .6.6.6 1l-1 .1c-.5.1-5.9-.4-8.2 9.9-.6 2.5-.4 7.9.8 15.5.2.3 0 .6-.5.8.1 0 .1 0 0 0z"/>
      <path d="M24.2 73.1l1.8.4c.2.1.5-.1.5-.4l.4-1.2c.1-.2-.1-.6-.4-.6l-1.7-.8c-.1 0-.7-.1-1.1 1.1-.2 1 .4 1.5.5 1.5zm20-1.7l-1.9.4c-.2.1-.6 0-.6-.4l-.4-1.2c-.1-.2 0-.6.4-.6l1.8-.7c.1 0 .8-.1 1.2 1s-.4 1.5-.5 1.5z" class="c5-461b-cf5c29a8"/>
      <path d="M28.6 73.1h-.7l-1.7-.2.1-.8 1.7.2c2.4.4 4.2-1.4 5.4-5.4l4.3-20.2.8.2L34.3 67c-.4 1.5-1.9 6.1-5.7 6.1z" class="c8-461b-cf5c29a8"/>
      <path d="M38.7 72.1c-3.1 0-5.1-3.5-6.1-5L22.4 47.7l.8-.4 10.2 19.4c1.6 2.6 3.5 5.3 6.5 4.3l2.1-.7.2.8-2.2.7c-.4.3-.9.3-1.3.3z" class="c8-461b-cf5c29a8"/>
      <path d="M22.9 48.5a.5.5 0 0 1-.5-.3c-2.3-4.8-2-9.1.8-11.8A9.5 9.5 0 0 1 33.9 35c4 2.1 5.9 6.6 5 12.5-.1.3-.4.5-.7.5-.3-.1-.6-.4-.5-.7.8-5.3-.8-9.4-4.3-11.2a8.1 8.1 0 0 0-9.3 1.2c-2.4 2.4-2.6 6.2-.6 10.5.1.3 0 .7-.3.8-.1-.2-.2-.1-.3-.1z"/>
      <path d="M23.7 48.9l-.2-.4c.5-.2.2-1.6-.1-3-1.4-5.5.7-7.3.7-7.3s1.4-2 4.4-2.2c7.5-.8 8.2 6 8.7 9.7.1 1.2.3 2.3.5 2.4v.2c-.5-.1-.6-1.1-.8-2.6-.4-3.8-1.1-10.1-8.3-9.4-2 .3-3.4 1.1-4.2 2.2-1.5 1.9-1 4.8-.6 7.1.2 1.8.5 3-.1 3.3z" class="c8-461b-cf5c29a8"/>
      <path xmlns:spine="http://powtoon.com/" d="M77.3 130.3a97.6 97.6 0 0 1-21.6 0 97.6 97.6 0 0 1 21.6 0zM42.1 130.3a115.2 115.2 0 0 1-23.6 0 115.2 115.2 0 0 1 23.6 0z" class="c10-461b-cf5c29a8" style="fill:#b00000" spine:tagging="primary.shadow"/>
    </g>
    <path xmlns:spine="http://powtoon.com/" fill="#f7d7b9" d="M26.4 10.7a9.8 9.8 0 0 0-16.7 6.9v65.5a9.8 9.8 0 0 0 19.6 0V17.6a9.4 9.4 0 0 0-2.9-7z" style="fill:#f7d7b9" transform="translate(48.8846 335.1115) matrix(0.2475,0.0356,-0.0356,0.2475,-1.9452,-264.124) scale(2.1867, 2.1071)" spine:tagging="skin.primary.base"/>
    <path xmlns:spine="http://powtoon.com/" fill="#ebb79e" d="M29.3 36.4V17.6a9.8 9.8 0 0 0-19.6 0v14z" style="fill:#edbf9e" transform="translate(48.8846 335.1115) matrix(0.2475,0.0356,-0.0356,0.2475,-1.9452,-264.124) scale(2.1867, 2.1071)" spine:tagging="skin.primary.shadow"/>
    <path xmlns:spine="http://powtoon.com/" fill="#f7d7b9" d="M110.6 85.5c-.5-1.8-.5-4.6-.1-8.4.5-4.3.8-8.7.8-13.1-.1-1.9-.5-3.7-1-5.5l-.9-3.5a28 28 0 0 0-17.2-20c-8.9-4-19.7-5.1-32.5-3.2C45.6 36.1 37.2 42 34.4 49.3a52.3 52.3 0 0 0-3.7 17v2.4l.2 1.1c.3.8.8 1.6 1.3 2.3l2 2.6h-.4c-.9 0-1.7.2-2.5.4a6.4 6.4 0 0 0-4.5 2.6c-1.3 1.9-1.4 4.1-.3 6.7a18 18 0 0 0 2.7 4.4 12 12 0 0 0 4 3.4 9 9 0 0 0 2.7.7l.1.2.4 1.5c1.2 2.2 2.7 3.1 4.5 2.7l-.5-4.3v-.5l.3-.1c1.2 4.8 3 9.4 5.2 13.8v.1a75.2 75.2 0 0 0 17.3 17.4c3.7 2.6 7.7 4.7 11.9 6.3 4.8 1.9 8.6 2.7 11.4 2.4 2.7-.4 5.2-1.6 7.1-3.5 2.6-2.3 6.5-6.9 11.7-13.7 3.3-4.4 5.5-8.5 6.3-12.2 1.3-5 1-10.9-1-17.5z" style="fill:#f7d7b9" transform="translate(48.8846 335.1115) matrix(0.2469,0.0394,-0.0394,0.2469,-16.3324,-316.735) scale(2.0983, 2.1033)" spine:tagging="skin.primary.base"/>
    <path xmlns:spine="http://powtoon.com/" fill="#ebbb98" d="M30.8 78.5l-.5.4-.4.4-.2.2h-.1s-1.2 2.2-.3 3.5l3.4-.3c1.4.4 2.7 1.2 3.8 2.2l-.1-.4.1-.7.4-.7.6-.5 1.3-.5-.9-1-.1-.2-.9-.9-2-1.6c-.3-.2-.7-.4-1.1-.4l-.6-.1h-1l-.3.1-.2.1-.1.1h-.2l-.2.1-.1.1-.3.1z" style="fill:#edbf9e" transform="translate(48.8846 335.1115) matrix(0.2469,0.0394,-0.0394,0.2469,-16.3324,-316.735) scale(2.0983, 2.1033)" spine:tagging="skin.primary.shadow"/>
    <path xmlns:spine="http://powtoon.com/" fill="#a67362" d="M29.5 79.8l.1-.3.1-.1.3-.3V79l.2-.1.8-.5.2-.1.2-.2.3-.1.7-.1h1.2l1.3.4 1.3.7.6.4c.5.3 2.6 2.4 2.6 2.4.2.2.2.3 0 .5l-.1.1-.3.1h-.2l-.4.1-.2.1-.4.2-.1.1-.3.2-.1.2v.3l-.1.4v.7l.1.3.2.3.3.2.3.2.8.1h.1v.1h-1.6c-.2 0-.3-.1-.4-.3l-.3-.4-.2-.4v-1l.1-.2v-.2l.1-.2.1-.2.1-.1.1-.1.1-.1.1-.1.1-.1.2-.1.3-.2.2-.1.4-.2-1.8-1.5-.1-.1-.8-.6-1.8-1.1-.5-.2h-1.7l-.2.1-.3.1-.6.3-.2.1V79l-.2.1-.1.1-.1.1" style="fill:#a77362" transform="translate(48.8846 335.1115) matrix(0.2469,0.0394,-0.0394,0.2469,-16.3324,-316.735) scale(2.0983, 2.1033)" spine:tagging="skin.primary.outline"/>
    <path fill="#f7e122" d="M36 93.1l.4 1.5c1.2 2.2 2.7 3.1 4.5 2.7l-.5-4.3H36m4.4-1.6c-.1-2-1-3-2.8-3s-2.5.7-2.3 2l.2.8 4.9.2z" transform="translate(48.8846 335.1115) matrix(0.2469,0.0394,-0.0394,0.2469,-16.3324,-316.735) scale(2.0983, 2.1033)"/>
    <path fill="#fff" d="M40.4 91.4l-4.9-.1.5 1.8h4.5l-.1-1.7z" transform="translate(48.8846 335.1115) matrix(0.2469,0.0394,-0.0394,0.2469,-16.3324,-316.735) scale(2.0983, 2.1033)"/>
    <path d="M49 18.2H11.7a7.1 7.1 0 0 1-7.1-7.1V11c0-3.9 3.2-7.1 7.1-7.1H49c3.9 0 7.1 3.2 7.1 7.1v.2c0 3.8-3.2 7-7.1 7z" style="fill:#fff" transform="translate(48.8846 335.1115) matrix(0.2473,0.0369,-0.0369,0.2473,6.1585,-278.1) scale(2.0911, 2.1097)"/>
    <path xmlns:spine="http://powtoon.com/" d="M20 9.5a5 5 0 0 0-2.7-2.7 5 5 0 0 0-6.7 2.4 5 5 0 0 0-.1 4 4.4 4.4 0 0 0 2.7 2.8c1.2.6 2.6.6 3.8.1a5.5 5.5 0 0 0 2.8-2.6c.5-1.3.6-2.7.2-4z" class="c7-461d-66666718" style="fill:#8080ff" transform="translate(48.8846 335.1115) matrix(0.2473,0.0369,-0.0369,0.2473,5.8915,-278.427) scale(2.1417, 2.1941)" spine:tagging="head.tertiary.base"/>
    <path d="M17.6 10.5c-.2-.6-.7-1.1-1.3-1.4-.6-.3-1.3-.3-2-.1-.6.2-1.1.7-1.4 1.3-.3.6-.3 1.4 0 2 .2.6.7 1.1 1.3 1.4 1.1.6 2.5.2 3.1-.9l.2-.4c.2-.7.3-1.3.1-1.9z" transform="translate(48.8846 335.1115) matrix(0.2473,0.0369,-0.0369,0.2473,5.8915,-278.427) scale(2.1417, 2.1941)"/>
    <path d="M12.6 11.3c.1.3.3.6.6.6.3.1.7.2 1 0 .3-.1.6-.3.7-.6v-1c-.1-.3-.4-.5-.7-.6h-.9c-.6.2-.9.8-.7 1.6 0-.1 0-.1 0 0z" class="c9-461d-66666718" transform="translate(48.8846 335.1115) matrix(0.2473,0.0369,-0.0369,0.2473,5.8915,-278.427) scale(2.1417, 2.1941)"/>
    <path xmlns:spine="http://powtoon.com/" d="M20 9.5a5 5 0 0 0-2.7-2.7 5 5 0 0 0-6.7 2.4 5 5 0 0 0-.1 4 4.4 4.4 0 0 0 2.7 2.8c1.2.6 2.6.6 3.8.1a5.5 5.5 0 0 0 2.8-2.6c.5-1.3.6-2.7.2-4z" class="c7-461d-66666718" style="fill:#8080ff" transform="translate(48.8846 335.1115) matrix(0.2473,0.0369,-0.0369,0.2473,5.8915,-278.427) scale(2.1417, 2.1941)" spine:tagging="head.tertiary.base"/>
    <path xmlns:spine="http://powtoon.com/" d="M18.1 10.3A3.2 3.2 0 0 0 14 8.5c-.7.3-1.4.9-1.7 1.6-.4.8-.4 1.7-.1 2.5a3.3 3.3 0 0 0 4 1.8c.8-.3 1.4-.9 1.7-1.7a3 3 0 0 0 .2-2.4z" class="c8-461d-66666718" style="fill:#0e09c5" transform="translate(48.8846 335.1115) matrix(0.2473,0.0369,-0.0369,0.2473,5.8915,-278.427) scale(2.1417, 2.1941)" spine:tagging="head.tertiary.outline"/>
    <path d="M12 11.3c.1.4.4.7.8.9.4.2.8.2 1.2 0 .3-.1.6-.4.8-.8.2-.4.2-.8.1-1.1-.2-.4-.4-.6-.8-.8-.3-.2-.7-.2-1.1-.1-.4.2-.7.5-.8.9-.3.2-.4.6-.2 1z" class="c9-461d-66666718" transform="translate(48.8846 335.1115) matrix(0.2473,0.0369,-0.0369,0.2473,5.8915,-278.427) scale(2.1417, 2.1941)"/>
    <g>
      <path xmlns:spine="http://powtoon.com/" d="M50.5 8.1c-.7-1.1-1.8-2-3-2.3a5 5 0 0 0-6.2 3.3v.1c-.7 2.7.9 5.5 3.5 6.2 1.3.4 2.6.2 3.8-.5 2.4-1.4 3.4-4.4 1.9-6.8z" class="c7-461d-66666718" style="fill:#8080ff" transform="translate(48.8846 335.1115) matrix(0.2473,0.0369,-0.0369,0.2473,5.8915,-278.427) scale(2.1417, 2.1941)" spine:tagging="head.tertiary.base"/>
      <path d="M48.3 9.3c-.3-.6-.9-1-1.5-1.2-.7-.2-1.4-.1-2 .3-.6.3-1 .8-1.2 1.5s-.1 1.4.2 2 .9 1 1.5 1.1c.6.2 1.3.1 1.9-.2.6-.4 1-.9 1.2-1.6.4-.7.3-1.3-.1-1.9z" transform="translate(48.8846 335.1115) matrix(0.2473,0.0369,-0.0369,0.2473,5.8915,-278.427) scale(2.1417, 2.1941)"/>
      <path d="M43.5 10.9c.1.3.4.5.7.6s.7 0 1-.1.5-.4.5-.7v-1c-.2-.3-.5-.4-.8-.5s-.6-.1-.8 0c-.3.2-.5.4-.6.8v.9z" class="c9-461d-66666718" transform="translate(48.8846 335.1115) matrix(0.2473,0.0369,-0.0369,0.2473,5.8915,-278.427) scale(2.1417, 2.1941)"/>
      <path xmlns:spine="http://powtoon.com/" d="M50.5 8.1c-.7-1.1-1.8-2-3-2.3a5 5 0 0 0-6.2 3.3v.1c-.7 2.7.9 5.5 3.5 6.2 1.3.4 2.6.2 3.8-.5 2.4-1.4 3.4-4.4 1.9-6.8z" class="c7-461d-66666718" style="fill:#8080ff" transform="translate(48.8846 335.1115) matrix(0.2473,0.0369,-0.0369,0.2473,5.8915,-278.427) scale(2.1417, 2.1941)" spine:tagging="head.tertiary.base"/>
      <path xmlns:spine="http://powtoon.com/" d="M48.8 9.1a3.3 3.3 0 0 0-4.2-1.2c-1.5.9-2 2.7-1.2 4.3.9 1.5 2.7 2 4.2 1.2.7-.4 1.2-1.1 1.5-2a3 3 0 0 0-.3-2.3z" class="c8-461d-66666718" style="fill:#0e09c5" transform="translate(48.8846 335.1115) matrix(0.2473,0.0369,-0.0369,0.2473,5.8915,-278.427) scale(2.1417, 2.1941)" spine:tagging="head.tertiary.outline"/>
      <path d="M43 10.9c.1.4.5.7.8.8.8.1 1.6-.3 1.8-1.1.2-.4.2-.8 0-1.1-.3-.3-.6-.5-1-.6h-1.1c-.3.2-.5.6-.7 1-.1.3 0 .7.2 1z" class="c9-461d-66666718" transform="translate(48.8846 335.1115) matrix(0.2473,0.0369,-0.0369,0.2473,5.8915,-278.427) scale(2.1417, 2.1941)"/>
    </g>
    <g>
      <path xmlns:spine="http://powtoon.com/" d="M18.2 10.6c2.5 0 5 .4 7.4 1.2 1.3.3 2.4.9 3.5 1.5.9-1.4.3-3-1.7-4.4a8.9 8.9 0 0 0-7.6-1.1 105.6 105.6 0 0 0-14.1 4.6l.3-.8-.3-.3-.5.8-.1.7.2.8.3-.1-.1-.5h.1a27.5 27.5 0 0 1 12.6-2.4z" style="fill:#00ec00" transform="translate(48.8846 335.1115) matrix(0.2473,0.0369,-0.0369,0.2473,9.8805,-261.628) scale(2.1053, 2.1034)" spine:tagging="head.quaternary.shadow"/>
      <path xmlns:spine="http://powtoon.com/" d="M18.9 15.7c.1 0 .3 0 .4-.3-.9-.5-1.8-.6-2.8-.4-.9.1-1.4.3-1.4.6-.1.3 0 .2 0 .2.1.1.3.1.4 0l1.5-.2 1.9.1" style="fill:#f7d7b9" transform="translate(48.8846 335.1115) matrix(0.2473,0.0369,-0.0369,0.2473,9.8805,-261.628) scale(2.1053, 2.1034)" spine:tagging="skin.primary.base"/>
    </g>
    <g>
      <path d="M14.3 5.3h-.7l-2.1.2c-1.1.3-2.1.8-3 1.5a5.9 5.9 0 0 0-2.4 4.2c-.1.8.1 1.6.6 2.4.4.8 1 1.5 1.7 2 1 .7 3.4 1.1 7.3 1.4l7.7.5c.2-3.3-.2-5.8-1.3-7.7-1.4-2.4-4-3.9-7.8-4.5zM55.8 10.2a6.5 6.5 0 0 0-2.6-4.1l-.7-.5a8 8 0 0 0-5-1c-1.9.3-3.8 1.1-5.4 2.2l-.3.3c-.9.6-1.5 1.4-2 2.3a12.3 12.3 0 0 0-1 7.7l7.7-.8c3.9-.4 6.3-1 7.3-1.7.7-.5 1.3-1.3 1.7-2.1.3-.7.4-1.5.3-2.3z" class="c1-461e-8a3d707c" transform="translate(48.8846 335.1115) matrix(0.2473,0.0369,-0.0369,0.2473,6.0538,-278.244) scale(2.1079, 2.1519)"/>
      <path xmlns:spine="http://powtoon.com/" d="M50.4.1H0v23.7h50.6A15 15 0 0 0 50.4.1zm-27 17.4l-7.7-.5c-3.9-.3-6.3-.7-7.3-1.4a5.5 5.5 0 0 1-1.7-2c-.5-.8-.7-1.6-.6-2.4.2-1.7 1-3.2 2.4-4.2.9-.7 1.9-1.2 3-1.5l2.1-.2h.7c3.8.6 6.4 2.1 7.8 4.5 1.1 1.9 1.5 4.4 1.3 7.7zm30.4-2.9c-1 .7-3.4 1.3-7.3 1.7l-7.7.8c-.4-3.2-.1-5.8 1-7.7.5-.9 1.1-1.7 2-2.3l.3-.3c1.6-1.1 3.5-1.9 5.4-2.2a8 8 0 0 1 5 1l.7.5c1.4 1 2.3 2.5 2.6 4.1.1.8 0 1.6-.3 2.3-.4.8-1 1.6-1.7 2.1z" transform="translate(48.8846 335.1115) matrix(0.2473,0.0369,-0.0369,0.2473,6.0538,-278.244) scale(2.1079, 2.1519)" spine:tagging="skin.primary.base" style="fill:#f7d7b9;opacity:0"/>
    </g>
    <g>
      <path d="M14.3 5.3h-.7l-2.1.2c-1.1.3-2.1.8-3 1.5a5.9 5.9 0 0 0-2.4 4.2c-.1.8.1 1.6.6 2.4.4.8 1 1.5 1.7 2 1 .7 3.4 1.1 7.3 1.4l7.7.5c.2-3.3-.2-5.8-1.3-7.7-1.4-2.4-4-3.9-7.8-4.5zM55.8 10.2a6.5 6.5 0 0 0-2.6-4.1l-.7-.5a8 8 0 0 0-5-1c-1.9.3-3.8 1.1-5.4 2.2l-.3.3c-.9.6-1.5 1.4-2 2.3a12.3 12.3 0 0 0-1 7.7l7.7-.8c3.9-.4 6.3-1 7.3-1.7.7-.5 1.3-1.3 1.7-2.1.3-.7.4-1.5.3-2.3z" class="c1-461f-00000004" transform="translate(48.8846 335.1115) matrix(0.2473,0.0369,-0.0369,0.2473,6.0351,-278.117) scale(2.1079, 2.1097)"/>
      <path xmlns:spine="http://powtoon.com/" d="M50.4.1H0v23.7h50.6A15 15 0 0 0 50.4.1zm-27 17.4l-7.7-.5c-3.9-.3-6.3-.7-7.3-1.4a5.5 5.5 0 0 1-1.7-2c-.5-.8-.7-1.6-.6-2.4.2-1.7 1-3.2 2.4-4.2.9-.7 1.9-1.2 3-1.5l2.1-.2h.7c3.8.6 6.4 2.1 7.8 4.5 1.1 1.9 1.5 4.4 1.3 7.7zm30.4-2.9c-1 .7-3.4 1.3-7.3 1.7l-7.7.8c-.4-3.2-.1-5.8 1-7.7.5-.9 1.1-1.7 2-2.3l.3-.3c1.6-1.1 3.5-1.9 5.4-2.2a8 8 0 0 1 5 1l.7.5c1.4 1 2.3 2.5 2.6 4.1.1.8 0 1.6-.3 2.3-.4.8-1 1.6-1.7 2.1z" style="fill:#f7d7b9" transform="translate(48.8846 335.1115) matrix(0.2473,0.0369,-0.0369,0.2473,6.0351,-278.117) scale(2.1079, 2.1097)" spine:tagging="skin.primary.base"/>
      <path d="M18.2 6.3C16.4 5.2 12.9 5 12.9 5s-1.4-.2-5 1.2l-.3.1-.6.2-1.2.4-.6.1H5l-.5-.1h-.1s.3.8 1.7.8c.4 0 .3.1-.5.3s-2.2.1-2.2.1.6.6 1.5.7h.5l.8-.1.3-.1.3-.1.7-.4.4-.3.3-.3.1-.1.6-.3c2.9-.9 4.6-.7 4.6-.7s2 0 3.1.4 3.4.7 3.4.7l-1.8-1.2zM16.6 6.8c2.7.9 3.4.7 3.4.7M43.9 5.3C45.6 4.2 49.2 4 49.2 4s1.4-.2 5 1.2l.3.1.6.2 1.2.4.6.1h.2l.5-.1h.1s-.3.8-1.7.8c-.4 0-.3.1.5.3.8.2 2.2.1 2.2.1s-.6.6-1.5.7h-.5l-.8-.1-.3-.1-.3-.1-.7-.4-.4-.3-.3-.3-.1-.1-.6-.3c-2.9-.9-4.6-.7-4.6-.7s-2 0-3.1.4l-3.3 1s-.1-.4 1.7-1.5z" class="c5-461f-00000004" transform="translate(48.8846 335.1115) matrix(0.2473,0.0369,-0.0369,0.2473,6.0351,-278.117) scale(2.1079, 2.1097)"/>
    </g>
    <g>
      <path xmlns:spine="http://powtoon.com/" d="M17.5 17.6l.1.1m.7 1.2a8.3 8.3 0 0 1-6.4 3c-3.8.1-5.7.2-5.9.5s-.2 0-.2-.4l-.1-3.2v-7.9c0-2.3.4-3.9 1.2-4.5 1-.7 1.9-1.6 2.6-2.6h.2l1.8 3.7.1.1.1.2 6.3 9.8.3 1.3z" style="fill:#f7d7b9" transform="translate(48.8846 335.1115) matrix(0.2473,0.0369,-0.0369,0.2473,17.7775,-272.955) scale(2.2083, 2.2161)" spine:tagging="skin.primary.base"/>
      <path xmlns:spine="http://powtoon.com/" d="M6.9 25.1c-1-.7-1.3-1.9-.9-3-.1.3-.1.2.1-.1s2.1-.5 5.9-.6c2.2.1 4.7-.9 6-2.6l-.6 1.6-.4.6-1.6 2.1-.5.5-.1.1-.3.3-.3.2-.5.5-.3.2-.2.2-.7.6-.1.1s.1.1.1 0l.4-.3-.3.1-.1.1c-2.7.6-4.5.4-5.6-.6z" style="fill:#edbf9e" transform="translate(48.8846 335.1115) matrix(0.2473,0.0369,-0.0369,0.2473,17.7775,-272.955) scale(2.2083, 2.2161)" spine:tagging="skin.primary.shadow"/>
      <path xmlns:spine="http://powtoon.com/" d="M18.3 17c.3.5.4 1.7.2 2.4l-.3.9-.5 1-.3.4-.3.4-2.1 2-2.1 1.5-.4.3h-.1v-.1l1-.9.8-.7.7-.7.5-.5 1.6-2.1.5-.9.2-.7s.3-1.1 0-1.6L16.5 16l-4.9-8-.1-.2-.1-.1-1.8-4L12 7.1m5.3 8.3" style="fill:#a77362" transform="translate(48.8846 335.1115) matrix(0.2473,0.0369,-0.0369,0.2473,17.7775,-272.955) scale(2.2083, 2.2161)" spine:tagging="skin.primary.outline"/>
    </g>
    <g>
      <path xmlns:spine="http://powtoon.com/" fill="#2b1807" d="M530.8 268a6.1 6.1 0 0 1 6-.6q9.5 5 16.4 2.9l.4 3q-8 2.9-17.4-4.1a7.5 7.5 0 0 0-5.4-1.3zM587.3 267.2a6.2 6.2 0 0 0-6.1-.4q-9.4 5-16.2 3l-.5 3q8 2.8 17.4-4.3a7.5 7.5 0 0 1 5.4-1.3z" style="fill:#f0f" transform="translate(48.8846 335.1115) matrix(0.2473,0.0367,-0.0367,0.2473,1.1107,-288.131) scale(2.1317, 2.2719) translate(-517.45 -251.31)" spine:tagging="head.secondary.base"/>
    </g>
    <g>
      <path xmlns:spine="http://powtoon.com/" d="M569.5 236.4a62 62 0 0 0-26-6 67.2 67.2 0 0 0-26.8 5.2c-3.7 1.6-6.3 3.6-7.8 6.2s-2.3 6.4-2.1 11.3q.8 15.3 9.4 15.1t9 .3a54.4 54.4 0 0 0 26.8-9.3q14-9.5 17.5-22.8z" class="c3-4620-570a3cc4" style="fill:red" transform="translate(48.8846 335.1115) matrix(0.2473,0.0369,-0.0369,0.2473,-23.5635,-312.68) scale(2.1015, 2.0973) translate(-462.8 -210)" spine:tagging="head.primary.base"/>
      <path xmlns:spine="http://powtoon.com/" d="M567.3 242.7l-.2-.3-4.8 4.7L550 257l-.3.2h-.1l-.2.1-1.4 1-8 4h-.3l-.2.2-4.7 1.6-1.7.3-.3.1-1.6.5-8.7 1 1.2 2.3 9.2-.6a26.4 26.4 0 0 0 5.7-1.5 35.1 35.1 0 0 0 5.6-2.1l7-4 .2-.2 3.6-3a3 3 0 0 0 1-.8l6-6.1 4.8-6.8z" class="c4-4620-570a3cc4" style="fill:#f60000" transform="translate(48.8846 335.1115) matrix(0.2473,0.0369,-0.0369,0.2473,-23.5635,-312.68) scale(2.1015, 2.0973) translate(-462.8 -210)" spine:tagging="head.primary.shadow"/>
      <path xmlns:spine="http://powtoon.com/" d="M567.9 235.6q12 11.3 15.9 19.3 2.1-15.3-16-19.3z" class="c3-4620-570a3cc4" style="fill:red" transform="translate(48.8846 335.1115) matrix(0.2473,0.0369,-0.0369,0.2473,-23.5635,-312.68) scale(2.1015, 2.0973) translate(-462.8 -210)" spine:tagging="head.primary.base"/>
      <path xmlns:spine="http://powtoon.com/" d="M551.4 243.4l-.5.3-.9.7-3 2-.3.1-.5.4-.7.4-.6.4-3 1.7-.3.1-.6.5-10.3 4.7-.5.2-1.5.6-.4.2h-.2l-.2.2-.8.2-1.3.7v.2h2.5l.2-.1h.5l2.2-.3 4.7-1 1.4-.4.7-.4.9-.2 1.4-.6.4-.2.4-.1 2.1-1.1.2-.1.2-.1.4-.2.3-.3.3-.2 3.3-2.2 4.4-4.4.3-.5.2-.2 2-3 .1-.3-.2-.3-.3.3-.4.3-.3.1-.2.2-1.7 1.3-.2.2z" class="c4-4620-570a3cc4" style="fill:#f60000" transform="translate(48.8846 335.1115) matrix(0.2473,0.0369,-0.0369,0.2473,-23.5635,-312.68) scale(2.1015, 2.0973) translate(-462.8 -210)" spine:tagging="head.primary.shadow"/>
    </g>
    <g>
      <path xmlns:spine="http://powtoon.com/" fill="#e8b630" d="M506.7 241.6q-3.4 3-5.2 14.9t-1.6 31.4l.1 5.1-4.1 50.6q-2.9 36.4 6.7 35.1 20.2 35.7 30.7 21.7 5.5-38.7 3.1-68.3-.9-15.8-6-39.2-4.2-19.5-6.3-24.2a73 73 0 0 0 1.4-18.2q-1.7-15.8-8.8-14.8a61 61 0 0 0-10 5.9z" style="fill:red" transform="translate(48.8846 335.1115) matrix(0.249,0.0227,-0.0227,0.249,-25.1759,-305.609) scale(2.1125, 2.0991) translate(-465.05 -220)" spine:tagging="head.primary.base"/>
      <path xmlns:spine="http://powtoon.com/" fill="#d3a21d" d="M513.7 241.6l-.6 1.2-2.5 9-.4 2.3-.6 5v.6l-.1.7.1 9.6.6 5.5 2.9 14.4 2.3 7.3.6 1.3h.2l-.4-4.1-.1-.4-2.5-20.2v-.7l-.1-1.3-.2-19.7 1.3-11-.2-.1zM504.5 259.2v.4l-.2.5-.1.6-.2.5-1.4 15.4.4 9.6v1.2l2.3 15 1.3 4.9.1.4.5 1.7h.3l-2.3-50.8v-.6h-.3z" style="fill:#f60000" transform="translate(48.8846 335.1115) matrix(0.249,0.0227,-0.0227,0.249,-25.1759,-305.609) scale(2.1125, 2.0991) translate(-465.05 -220)" spine:tagging="head.primary.shadow"/>
    </g>
    <g>
      <g transform="translate(48.8846 335.1115) matrix(0.2474,0.0363,-0.0363,0.2474,-15.5793,-330.853) scale(2.0923, 2.0923)">
        <path xmlns:spine="http://powtoon.com/" d="M26.1 90.1S0 90.8 3.4 86c1.5-2 5-4.7 9.6-4a85 85 0 0 1 13.1 8.1zM24.6 85.2S6.1 66.9 12 66.2c2.6-.2 6.8.2 9.4 4.1 1.5 2 3.2 14.9 3.2 14.9z" class="c1-4621-3c28f624" style="stroke:#b00000" spine:tagging="head.quinary.shadow"/>
        <ellipse xmlns:spine="http://powtoon.com/" cx="25.5" cy="86.6" class="c5-4621-3c28f624" rx="6.8" ry="4.5" style="fill:#b00000" spine:tagging="head.quinary.shadow"/>
        <path xmlns:spine="http://powtoon.com/" d="M107.9 67.2a81.8 81.8 0 0 0-7.3-18.6c-8.5-14.9-35.8-11.8-49-8.5-14.5 5-23.1 11.6-25.7 20A62 62 0 0 0 23 82.3l.5 5.1v.6c0 .5 1 4.5 1.1 5.2 0 0-1.7 7.2 29.5-5.1s56.4-9.7 56.4-9.7l-2.6-11.2z" style="fill:#c11e1e" spine:tagging="head.quinary.base"/>
        <path xmlns:spine="http://powtoon.com/" d="M67.8 79.5c-3.4 1.2-7 2.5-10.6 3.6-3.6 1.1-7.1 2.2-10.7 3.1l-10.7 2.9-5.3 1.4c-1.7.4-3.6.9-5.5 1.2a156 156 0 0 1 5.2-1.7l5.3-1.6c3.6-1.1 7.1-2.2 10.7-3.1l10.7-2.9c3.6-1.3 7.2-2.1 10.9-2.9zM48 77c-3.2 2.5-6.7 4.5-10.2 6.5-3.6 1.9-7.1 3.7-10.9 5.2 3.2-2.5 6.7-4.5 10.2-6.5 3.6-1.8 7-3.8 10.9-5.2z" class="c5-4621-3c28f624" style="fill:#b00000" spine:tagging="head.quinary.shadow"/>
      </g>
    </g>
    <g>
      <path xmlns:spine="http://powtoon.com/" d="M19.7 31.8zM29.8 20l-.3-2.9-.7-1.9-.3-.5-.2-.4-.3-.8c-.7-1.8-1.4-3.7-2.3-5.4 0 0-1.3-3.2-2.6-5.8-.8-1.6-3.1-2.1-5-.4l-1.3 1.9c-.1.3-4.6 10.1-5.4 14.3l-.1.4-.1 1.4-.4 2.3.1.3h.3l-.2.5-.1-.5h-.1l.4 1.9c.5 1.2 1 1.9 1.4 2l-.1-.1c-.1 0 2.1 2.4 3.2 2.9l1.2.3-.5.1-.5-.1 1 .1.4.9.5.6-.4-.5-.4-.8c-.1-.3-.1-.4 0 0l.4.7c.3.5.8.9 1.4 1.1l.9.2 1-.2h.1l-1.1.2c.4 0 1.5 0 2-.3h-.1c.6 0 1.3-.1 1.8-.4l.2-.1c.1-.3.2-.3.1 0v.1l-.1-.1v.1c1.2 1.7 4.7.1 5.1-1.5l.4-1.4c.4-.9.7-1.9.9-2.8l.1-1.9-.3-3.5zm-9.3 11.6c-.2 0-.5-.2-.8-.5l.8.5zm1-.1l.8-.5-.8.5z" class="c4-4621-e51eb908" style="fill:#f7d7b9" transform="translate(48.8846 335.1115) matrix(0.0152,-0.227,0.227,0.0152,4.5624,-171.446) scale(2.104, 2.0918)" spine:tagging="skin.primary.base"/>
      <path xmlns:spine="http://powtoon.com/" d="M17.9 31.1a3.3 3.3 0 0 0 .9.5 2 2 0 0 1-.9-.5zM19.6 31.8c.1 0 .1 0 0 0zM15.6 29.2a3 3 0 0 1-1.8-2.8l-1-2c-.4-.6-.7-.5-.7.2 0 .8.1 1.4.5 1.8.2.4.6.8.7 1.2.1.3.4.6.7.7l.5.7c.4.3 1 .5 1.5.5l.4.1.4-.1-1.2-.3z" class="c4-4621-e51eb908" style="fill:#f7d7b9" transform="translate(48.8846 335.1115) matrix(0.0152,-0.227,0.227,0.0152,4.5624,-171.446) scale(2.104, 2.0918)" spine:tagging="skin.primary.base"/>
      <path xmlns:spine="http://powtoon.com/" d="M23.6 31l.1.1c-.5.2-1.1.4-1.7.4h-.2a4 4 0 0 0 1.8-.5zM11.3 18.5l.1-.4c.9-4.6 3.8-11 5.6-14.2-.7 2.8-1.6 5.6-2.7 8.3-1 2.2-1.6 4.6-1.9 7a3 3 0 0 0-.4 1.7l-.3 1.8a2 2 0 0 1-.4.6L11 23a3 3 0 0 1-.2-.8l.4-2.3.1-1.4z" class="c10-4621-e51eb908" style="fill:#edbf9e" transform="translate(48.8846 335.1115) matrix(0.0152,-0.227,0.227,0.0152,4.5624,-171.446) scale(2.104, 2.0918)" spine:tagging="skin.primary.shadow"/>
      <path xmlns:spine="http://powtoon.com/" d="M22.3 31l.3-.3.1-.2.2-.2a7 7 0 0 0 1-1.9c.2-.7.4-1.4.8-1.9l1.4-1.3.5-.1c-.7 1.8-1.5 3.4-2.6 5l-.3.9v.1l-.1-.1-.2.1c-.5.3-1.2.4-1.8.4h-.2l.9-.5zM21.8 22.4c1.2.4 2.4.7 3.7.9l1.7-.2c.6-.2 1.1-.2 1.7-.1v.1c-.5.3-1.1.5-1.6.6-.6.2-1.2.3-1.9.3a10 10 0 0 1-3.8-.8c-1.2-.4-2.4-.7-3.7-.8a4 4 0 0 1-1.4-.3c-.6-.2-1.2-.6-1.7-1.3 1 .3 2 .6 3 .7 1.4.1 2.7.4 4 .9zM12.9 24.4l1 2a3 3 0 0 0 1.8 2.8l1.2.3H16c-.5 0-1.1-.2-1.5-.5l-.5-.7c-.3-.1-.6-.4-.7-.7l-.8-1.3c-.1 0-.5-1-.5-1.8 0-.7.5-.7.9-.1zM17.4 30.6s-.8-1.4-.6-2.5l-.1-.7-.1-.9v-.1l1.5 2.6c.7 1.7 1.6 2.5 2.5 2.6h.2l-1.1.2c-.9-.1-1.8-.4-2.3-1.2z" class="c10-4621-e51eb908" style="fill:#edbf9e" transform="translate(48.8846 335.1115) matrix(0.0152,-0.227,0.227,0.0152,4.5624,-171.446) scale(2.104, 2.0918)" spine:tagging="skin.primary.shadow"/>
    </g>
    <g>
      <g transform="translate(48.8846 335.1115) matrix(0.0988,-0.2066,0.2066,0.0988,-33.4418,-194.118) scale(2.1304, 2.102)">
        <g id="main">
          <path xmlns:spine="http://powtoon.com/" d="M4.7 10c-.8 2.6-1.3 5.2-1.7 7.9-2.1 15.5-.1 39 6 70.7.4 1 1.5 1.5 3.2 1.5 1.3 0 2.4-.9 2.6-2.2l3.1-77c-1.8-5.2-6.2-5.5-13.2-.9z" style="fill:#f7d7b9" spine:tagging="skin.primary.base"/>
        </g>
      </g>
    </g>
    <g>
      <path xmlns:spine="http://powtoon.com/" d="M31.5 22.6l-.4-2.3-.1-1.4-.1-.4a58.4 58.4 0 0 0-5.4-13.9l-.1-.3c-.5-1-1-1.7-1.3-1.9-1.8-1.7-4.1-1.2-5 .4a55.4 55.4 0 0 0-2.6 5.8c-.9 1.7-1.6 3.6-2.3 5.4l-.3.8-.2.4-.3.5-.7 1.9-.3 2.9-.3 3.5.1 1.9c.2.9.5 1.9.9 2.8l.4 1.4c.4 1.6 3.9 3.2 5.1 1.5v-.1c-.1-.3-.1-.4 0-.1v.1l.1-.1h.1c.5.3 1.1.5 1.7.5h.1l.1.1h-.2c.6.3 2.1.3 2.1.3-.4 0-.3-.1 0-.1 1-.1 1.8-.5 2.3-1.3l.4-.9 1-.1c.5 0 1.1-.2 1.5-.5l.5-.7c.3-.1.6-.4.7-.7l.6-1.2c.4 0 .9-.7 1.4-2l.4-1.4.1-.8z" style="fill:#f7d7b9" transform="translate(48.8846 335.1115) matrix(0.0102,0.2287,-0.2287,0.0102,4.8553,-193.252) scale(2.104, 2.0918)" spine:tagging="skin.primary.base"/>
      <path xmlns:spine="http://powtoon.com/" d="M18.7 31.4l-.1.1c.5.2 1.1.4 1.7.4h.2a4 4 0 0 1-1.8-.5zM31 18.9l-.1-.4c-.9-4.6-3.8-11-5.6-14.2.7 2.8 1.6 5.6 2.7 8.3 1 2.2 1.6 4.6 1.9 7 .3.5.4 1 .4 1.7l.3 1.8.4.6.3-.3.2-.8-.4-2.3-.1-1.4z" class="c6-4622-d9999944" style="fill:#edbf9e" transform="translate(48.8846 335.1115) matrix(0.0102,0.2287,-0.2287,0.0102,4.8553,-193.252) scale(2.104, 2.0918)" spine:tagging="skin.primary.shadow"/>
      <path xmlns:spine="http://powtoon.com/" d="M19.9 31.4l-.3-.3-.1-.2-.2-.2c-.4-.6-.7-1.2-.9-1.9a5 5 0 0 0-.9-1.8l-1.3-1.3a.8.8 0 0 0-.5-.2c.7 1.8 1.5 3.4 2.6 5l.3.9v.1l.1-.1h.1c.5.3 1.1.5 1.7.5h.2l-.8-.5zM20.5 22.8c-1.2.4-2.4.7-3.7.9l-1.7-.2c-.6-.2-1.1-.2-1.7-.1v.1c.5.3 1.1.5 1.6.6.6.2 1.2.3 1.9.3a10 10 0 0 0 3.8-.8c1.2-.4 2.4-.7 3.7-.8a4 4 0 0 0 1.4-.3c.6-.2 1.2-.6 1.7-1.3-1 .3-2 .6-3 .7-1.4.1-2.7.4-4 .9zM29.4 24.8l-1 2a3 3 0 0 1-1.8 2.8l-1.2.3h.9c.5 0 1.1-.2 1.5-.5l.5-.7c.3-.1.6-.4.7-.7l.6-1.2c.4-.4.5-1 .5-1.8 0-.7-.3-.8-.7-.2zM24.8 30.9s.8-1.2.6-2.3l.1-.7.1-.9v-.1l-1.4 2.5c-.7 1.7-1.6 2.5-2.5 2.6h-.2l1.1.2c.9-.1 1.7-.5 2.2-1.3z" class="c6-4622-d9999944" style="fill:#edbf9e" transform="translate(48.8846 335.1115) matrix(0.0102,0.2287,-0.2287,0.0102,4.8553,-193.252) scale(2.104, 2.0918)" spine:tagging="skin.primary.shadow"/>
    </g>
    <g>
      <g transform="translate(48.8846 335.1115) matrix(0.0844,0.2104,-0.2104,0.0844,39.7827,-203.812) scale(2.1739, 2.102)">
        <g id="main">
          <path xmlns:spine="http://powtoon.com/" d="M5.9 10.9l3.1 77a2.6 2.6 0 0 0 2.6 2.2c1.7 0 2.8-.5 3.2-1.5 6.1-31.7 8.1-55.2 6-70.7-.4-2.7-.9-5.3-1.7-7.9-7-4.6-11.4-4.3-13.2.9z" style="fill:#f7d7b9" spine:tagging="skin.primary.base"/>
        </g>
      </g>
    </g>
  </g>
</svg>
