<svg xmlns="http://www.w3.org/2000/svg" xmlns:spine="http://powtoon.com/" viewBox="0 0 122 338" preserveAspectRatio="xMidYMid meet" width="100%" height="100%"><defs><style>
	.st0{opacity:1.000000e-02;fill:#0414FB;}
	.c14-30ff18-f3333394{fill:#AB3E18;}
	.c16-30ff18-f3333394{fill:#8E300F;}

	.st0{fill:#0414FB;fill-opacity:0.21;}
	.c0-30ff19-f47ae124{fill:#D1A01E;}

	.c8-30ff1a-af5c2854{display:none;}
	.c1-30ff1a-af5c2854{display:inline;opacity:1.000000e-02;fill:#442A18;enable-background:new    ;}
	.c2-30ff1a-af5c2854{fill:#F7D7B9;}
	.c3-30ff1a-af5c2854{fill:#EDBF9E;}
	.c11-30ff1a-af5c2854{display:inline;fill:none;stroke:#000000;stroke-width:0.1;stroke-miterlimit:10;}
	.c7-30ff1a-af5c2854{display:inline;fill:none;stroke:#000000;stroke-width:0.25;stroke-miterlimit:10;}

	.c1-30ff1b-ef5c29d{fill:#F7D7B9;}
	.c2-30ff1b-ef5c29d{fill:#EDBF9E;}
	.c7-30ff1b-ef5c29d{display:none;}
	.c6-30ff1b-ef5c29d{display:inline;fill:none;stroke:#000000;stroke-width:0.1;stroke-miterlimit:10;}
	.st4{display:inline;opacity:1.000000e-02;fill:#0414FB;}

	.c0-30ff1c-b1eb8568{fill:#0F81B1;fill-opacity:0;}
	.c1-30ff1c-b1eb8568{fill:#F7D7B9;}

	.c8-30ff1d-a6666798{display:none;}
	.c1-30ff1d-a6666798{display:inline;opacity:1.000000e-02;fill:#442A18;enable-background:new    ;}
	.c2-30ff1d-a6666798{fill:#F7D7B9;}
	.c3-30ff1d-a6666798{fill:#EDBF9E;}
	.c11-30ff1d-a6666798{display:inline;fill:none;stroke:#000000;stroke-width:0.1;stroke-miterlimit:10;}
	.c7-30ff1d-a6666798{display:inline;fill:none;stroke:#000000;stroke-width:0.25;stroke-miterlimit:10;}

	.c0-30ff1e-b851ecb{fill:#644926;}

	.c0-30ff1f-628f5c58{opacity:1.000000e-02;}
	.st1{fill:#0414FB;fill-opacity:0.21;}
	.c1-30ff1f-628f5c58{fill:#666666;}
	.c2-30ff1f-628f5c58{fill:#F7D7B9;}

	.c0-30ff20-55c28fd{opacity:1.000000e-02;fill:#442A18;enable-background:new    ;}
	.c1-30ff20-55c28fd{fill:#F7D7B9;}
	.c2-30ff20-55c28fd{fill:#EDBF9E;}
	.c7-30ff20-55c28fd{display:none;}
	.c10-30ff20-55c28fd{display:inline;fill:none;stroke:#000000;stroke-width:0.1;stroke-miterlimit:10;}
	.c6-30ff20-55c28fd{display:inline;fill:none;stroke:#000000;stroke-width:0.25;stroke-miterlimit:10;}

	.c1-30ff21-eccccd4{fill:#F7D7B9;}
	.c2-30ff21-eccccd4{fill:#EDBF9E;}
	.c7-30ff21-eccccd4{display:none;}
	.c6-30ff21-eccccd4{display:inline;fill:none;stroke:#000000;stroke-width:0.1;stroke-miterlimit:10;}
	.st4{display:inline;opacity:1.000000e-02;fill:#0414FB;}

	.c0-30ff22-e7ae152{fill:#0F81B1;fill-opacity:0;}
	.c1-30ff22-e7ae152{fill:#F7D7B9;}

	.c0-30ff23-a28f5c5{opacity:1.000000e-02;fill:#442A18;enable-background:new    ;}
	.c1-30ff23-a28f5c5{fill:#F7D7B9;}
	.c2-30ff23-a28f5c5{fill:#EDBF9E;}
	.c7-30ff23-a28f5c5{display:none;}
	.c10-30ff23-a28f5c5{display:inline;fill:none;stroke:#000000;stroke-width:0.1;stroke-miterlimit:10;}
	.c6-30ff23-a28f5c5{display:inline;fill:none;stroke:#000000;stroke-width:0.25;stroke-miterlimit:10;}

	.c0-30ff24-8f5c2a18{fill:#644926;}

	.c0-30ff25-133333b8{fill:#F7D7B9;}
	.c1-30ff25-133333b8{fill:#666666;}

	.c0-30ff26-1eb8532{opacity:1.000000e-02;}
	.st1{fill:#0414FB;}
	.c2-30ff26-1eb8532{fill:#F7D7B9;}
	.c3-30ff26-1eb8532{fill:#999999;}

	.c0-30ff27-08f5c378{opacity:1.000000e-02;}
	.st1{fill:#0414FB;}
	.c2-30ff27-08f5c378{fill:#F7D7B9;}
	.c3-30ff27-08f5c378{fill:#999999;}

	.c0-30ff27-e3d70b{opacity:1.000000e-02;}
	.st1{fill:#0414FB;fill-opacity:0.21;}
	.c1-30ff27-e3d70b{fill:#666666;}

	.c0-30ff28-93333394{fill:#999999;}
	.c1-30ff28-93333394{fill:#737373;}
	.c2-30ff28-93333394{fill:#F7D7B9;}
	.c3-30ff28-93333394{fill:none;stroke:#000000;stroke-width:1.5;stroke-linejoin:round;}

	.c0-30ff29-851eb854{opacity:1.000000e-02;}
	.st1{fill:#0414FB;fill-opacity:0.21;}
	.c1-30ff29-851eb854{fill:#666666;}

	.c0-30ff2a-28f5c24c{fill:#999999;}
	.c1-30ff2a-28f5c24c{fill:#737373;}
	.c2-30ff2a-28f5c24c{fill:#F7D7B9;}
	.c3-30ff2a-28f5c24c{fill:none;stroke:#000000;stroke-width:1.5;stroke-linejoin:round;}

	.c0-30ff2b-a3d70998{opacity:1.000000e-02;}
	.st1{fill:#0414FB;}
	.c4-30ff2b-a3d70998{fill:#F7D7B9;}
	.c5-30ff2b-a3d70998{fill:#EBBB98;}
	.c6-30ff2b-a3d70998{fill:#A67362;}
	.c7-30ff2b-a3d70998{fill:#F7E122;}
	.c8-30ff2b-a3d70998{fill:#FFFFFF;}

	.c0-30ff2c-cb851f24{fill:#FFFFFF;}

	.c7-30ff2d-7851ec3c{fill:#3588B0;}
	.c9-30ff2d-7851ec3c{fill:#FFFFFF;}
	.c8-30ff2d-7851ec3c{fill:#073B54;}

	.c0-30ff30-4a3d7048{fill:#FFFFFF;}
	.c1-30ff30-4a3d7048{fill:#C47777;}

	.c1-30ff30-c7ae1438{fill:none;}
	.c2-30ff30-c7ae1438{opacity:0;fill:#F7D7B9;}

	.c1-30ff31-d1eb84e8{fill:none;}
	.c2-30ff31-d1eb84e8{fill:#F7D7B9;}
	.c8-30ff31-d1eb84e8{fill:#E8AE84;}
	.c10-30ff31-d1eb84e8{fill:#333333;}
	.c7-30ff31-d1eb84e8{fill:#FFFFFF;}

	.c0-30ff33-6f5c29fc{fill:#F7D7B9;}
	.c1-30ff33-6f5c29fc{fill:#EBBB98;}
	.c2-30ff33-6f5c29fc{fill:#A67362;}
.c0-30ff34-ae147acc{filter:url(#Filter_1);}.cls-2{fill:#0414fb;}.c3-30ff34-ae147acc{fill:#e8b630;}.c4-30ff34-ae147acc{fill:#d3a21d;}
	.st0{fill:#0414FB;}
	.c0-30ff35-8e147b4{fill:url(#SVGID_1_);}
	.c1-30ff35-8e147b4{fill:url(#SVGID_2_);}
	.c2-30ff35-8e147b4{opacity:0.32;}
	.c3-30ff35-8e147b4{fill:#FFFFFF;}
	.c4-30ff35-8e147b4{fill:#EBD90D;}

	.c1-30ff36-cccccc1{fill:#D82A13;}
	.c2-30ff36-cccccc1{fill:#B2170B;}
	.c3-30ff36-cccccc1{fill:#96A30D;}
	.c4-30ff36-cccccc1{fill:#FFD215;}
	.c5-30ff36-cccccc1{fill:none;stroke:#E2AD05;stroke-width:1.0598;stroke-linecap:round;stroke-miterlimit:10;}
	.c6-30ff36-cccccc1{fill:#E2AD05;}
	.c11-30ff36-cccccc1{fill:none;stroke:#717701;stroke-width:1.3992;stroke-linecap:round;stroke-miterlimit:10;}

	.c4-30ff38-00000038{fill:#F7D7B9;}
	.c10-30ff38-00000038{fill:#E4AF8F;}

	.c0-30ff38-9ae1471{opacity:1.000000e-02;}
	.st1{fill:#0414FB;fill-opacity:0.21;}
	.c1-30ff38-9ae1471{fill:#F7D7B9;}

	.c0-30ff39-428f5d3{fill:#F7D7B9;}
	.c6-30ff39-428f5d3{fill:#E4AF8F;}

	.c0-30ff39-cccccc8{opacity:1.000000e-02;}
	.st1{fill:#0414FB;fill-opacity:0.21;}
	.c1-30ff39-cccccc8{fill:#F7D7B9;}
</style><filter x="-547.45" y="-323.65" width="140" height="140" name="Filter_1"><feColorMatrix result="result1" values="1 0 0 0 0 0 1 0 0 0 0 0 1 0 0 0 0 0 0.21 0" in="SourceGraphic"/></filter><filter x="-482.8" y="-230" width="140" height="140" name="Filter_1"><feColorMatrix result="result1" values="1 0 0 0 0 0 1 0 0 0 0 0 1 0 0 0 0 0 0.21 0" in="SourceGraphic"/></filter></defs><g id="main" transform="translate(49.5249 333.7749)"><g mapping="skin hair-braid" transform="matrix(0.2449,0.0501,-0.0501,0.2449,-29.6237,-273.837)"><g transform="scale(2.0904, 2.0884)"><g>
	<g>
		<g>
			<path class="c14-30ff18-f3333394" d="M64.5,34.8c3.9-16.5,0.6-26.2-9.8-29.2C40.2-0.2,32.2,4.9,30.6,20.7c-1.3,16.1,1.2,24.8,7.7,26     c4,1.3,8.2,2,12.4,2.1C57.2,48.7,61.8,44.1,64.5,34.8z" style="fill: rgb(232, 182, 48);" xmlns:spine="http://powtoon.com/" spine:tagging="head.primary.base"/>
		</g>
		<g>
			<path class="c14-30ff18-f3333394" d="M29.7,15.4L28.6,17l-0.2,0.4l-0.2,0.4l-0.3,1c-0.4,1.3-0.6,2.7-0.7,4.1l0.1,2.2l0.1,0.8V26v0.2l0.3,1.6     l0.2,0.6l1.2,3c0.7,1.1,1.7,2.2,2.8,3l0.2,0.2h0.1l0.5,0.4l0.4,0.3l0.5,0.3l0.4,0.2l0.5,0.3l0.2,0.1H35l0.4,0.1     c1.1,0.4,2.2,0.8,3.4,1l2.2,0.4h1.3l0.6,0.1l2.5,0.1l0.5-0.1v-0.3l-0.5-0.1l-0.6,0.1L38.9,37c-1.1-0.2-2.2-0.5-3.3-1l-0.7-0.5     l-0.1-0.1h-0.3l-1-0.6l-0.1-0.1l-0.9-0.5L32.4,34l-0.2-0.1c-1.1-0.8-1.9-1.8-2.6-3l-0.8-1.8l-0.4-1L28.2,27     c-0.3-1.3-0.4-2.7-0.3-4.1c0.1-1.3,0.3-2.7,0.7-3.9l0.3-0.9l0.2-0.4l0.1-0.3l1-1.6l1.2-1.3l0.1-0.1l0.2-0.1L32,14l0.3-0.2     l0.3-0.3c0.7-0.6,1.5-1.1,2.3-1.5l2.6-1.3l0.4-0.1h0.3l0.5-0.2l-0.3-0.8l-3.9,1.7c-0.8,0.5-1.7,1.1-2.4,1.7l-0.9,0.9l-0.3,0     l-0.1,0.2L29.7,15.4z" style="fill: rgb(232, 182, 48);" xmlns:spine="http://powtoon.com/" spine:tagging="head.primary.base"/>
		</g>
		<g>
			<path class="c14-30ff18-f3333394" d="M58.7,14.3L58.2,15l0.3,0.3l0.5,0.3l1.2,1.1l0.2,0.1l1,1l1.4,1.8l0.3,0.3l0.4,0.6l2.3,4.3     c0.4,1.1,0.7,2.3,0.9,3.5l0.1,1v0.2v0.3v2.3c-0.1,1.2-0.4,2.5-0.8,3.6l-0.9,1.7l-1,1.5l-0.9,0.9l-0.1,0.1L61.7,41     c-0.9,0.6-1.8,1.1-2.7,1.4c-0.8,0.3-1.6,0.6-2.4,0.8L52.9,44v0.4h0.4l1.3-0.2l2-0.5c0.8-0.2,1.7-0.5,2.5-0.8     c1-0.4,1.9-0.9,2.7-1.4l1.8-1.3l0.9-1l1.1-1.4l0.8-1.7c0.5-1.2,0.8-2.5,0.9-3.8v-2.4v-0.2l-0.1-1.3c-0.2-1.2-0.4-2.5-0.8-3.7     L65.9,24l-0.1-0.4l-1-2l-0.7-1l-0.2-0.4l-2.1-2.8l-1-1l-0.1-0.2L59.4,15L59,14.6L58.7,14.3z" style="fill: rgb(232, 182, 48);" xmlns:spine="http://powtoon.com/" spine:tagging="head.primary.base"/>
		</g>
		<g>
			<path class="c16-30ff18-f3333394" d="M36.8,11l-0.6,1.1L35,15.4L34.9,16l-0.2,0.6l-0.4,3l0.1,2.5v0.2l0.1,0.2v0.4c0.2,1,0.4,2,0.7,3l1,2.8     l0.7,1.3l0.1,0.3l0.1,0.2v0.2l0.3,0.6l1.9,2.8l0.4,0.5l3.8,3.7l0.4,0.2l0.2,0.2l0.3-0.2l-0.3-0.3L40,32.7l-1.1-2.3l-0.3-0.6     l-0.1-0.1l-0.1-0.2l-0.7-1.6c-0.4-0.8-0.7-1.7-0.9-2.7l-0.2-0.6l-0.1-0.7l-0.1-0.4v-0.4l-0.1-0.3L36,17.4l0.1-0.6v-0.6l1.3-5.5     l0.1-0.3l-0.2-0.1l-0.2,0.3L36.8,11z" style="fill: rgb(211, 162, 29);" xmlns:spine="http://powtoon.com/" spine:tagging="head.primary.shadow"/>
		</g>
		<g>
			<path class="c16-30ff18-f3333394" d="M57.9,15.9l-0.1-1v-0.3l-0.1-0.5v-0.4l-0.1-0.5h-0.3l-0.1,0.2L56.3,18l-0.2,0.4L56,18.8l-0.2,0.4l0.1,0.5     L55.4,21v0.2l-0.1,0.2l-0.7,1.8l-0.2,0.4l-0.2,0.5l-1.5,2.3L52.1,27l-0.2,0.4l-0.3,0.3l-0.3,0.2l-0.7,0.5l-0.3,0.2l-0.2,0.2     L48.4,30l-0.2,0.1l-0.3,0.2l-0.3,0.1l0.2,0.3H48l0.7-0.1l1.3-0.5l0.2-0.1l0.1-0.1l0.7-0.4c0.1-0.1,0.3-0.1,0.4-0.2l0.4-0.2     l0.7-0.5c0.5-0.4,1-0.8,1.4-1.3l1.1-1.4l0.2-0.2L57,22l0.8-3.8v-0.4l0.1-0.4L57.9,15.9z" style="fill: rgb(211, 162, 29);" xmlns:spine="http://powtoon.com/" spine:tagging="head.primary.shadow"/>
		</g>
		<g>
			<path class="c14-30ff18-f3333394" d="M63.8,79.1c6.8-13,5-26-5.4-39.3c-3.6-3.8-9.1-5-13.9-3.1c-3.8,1.3-7.1,3.8-9.2,7.2c-3.1,7-1.1,14.3,6,21.7     c-0.8,2.6-1.3,5.4-1.4,8.1c-0.5,7.8,2.4,12.1,8.8,13C55.8,87,60.8,84.4,63.8,79.1z" style="fill: rgb(232, 182, 48);" xmlns:spine="http://powtoon.com/" spine:tagging="head.primary.base"/>
		</g>
		<g>
			<path class="c14-30ff18-f3333394" d="M45.9,62v-0.3l-1.2,0.4l-5.2,1.3c-0.5,0.1-1.3,0.1-2.4,0.2l-1.2-0.1l-1.2-0.3l-1.1-0.6l-0.9-0.9l-0.1-0.1     l-0.1-0.2l-0.1-0.1l-0.1-0.1V61v-0.1l-0.1-0.1l-0.1-0.3l-0.3-1.2L31.7,58l0.1-1.2c0.1-0.8,0.3-1.5,0.6-2.2s0.6-1.3,1-1.9l1-1.6     l1.6-2l-0.5-0.5l-1.6,2.2l-1,1.6c-0.4,0.6-0.7,1.3-0.9,2c-0.3,0.8-0.6,1.6-0.8,2.4l0.1,2.7l0.5,1.6l0.1,0.1v0.1l0.3,0.4v0.2     l0.2,0.1c0.3,0.4,0.6,0.7,0.9,1c0.4,0.3,0.8,0.5,1.3,0.6c0.4,0.1,0.9,0.2,1.3,0.3l1.3,0.1l2.5-0.2l6.1-1.7L45.9,62z" style="fill: rgb(232, 182, 48);" xmlns:spine="http://powtoon.com/" spine:tagging="head.primary.base"/>
		</g>
		<g>
			<path class="c14-30ff18-f3333394" d="M65.1,51.7l3.6,8.4c0.4,1.1,0.6,2.3,0.9,3.4c0.3,1.2,0.5,2.5,0.6,3.7c0.2,1.3,0.1,2.6,0,3.9     c-0.1,0.6-0.2,1.3-0.3,1.9l-0.6,1.9l-0.2,0.4l-0.2,0.5l-1.5,2.3c-0.7,1-1.6,1.8-2.7,2.4l-1.5,0.7l-1.5,0.5l-2.6,0.2     c-0.7,0-1.4-0.1-2.1-0.2l-1.3-0.2l-0.5-0.2l0.1-0.2l3.7,0.5l2.5-0.3l1.5-0.4l1.4-0.7c0.9-0.6,1.8-1.4,2.5-2.3l1-1.5l0.2-0.4     l0.2-0.4l0.2-0.4l0.2-0.5c0.3-0.5,0.4-1.1,0.5-1.7c0.2-0.6,0.3-1.3,0.3-1.9c0.2-1.3,0.2-2.5,0-3.8l-0.6-3.6l-2.2-6.9L64.5,52     l-0.3-0.4l0.7-0.3L65.1,51.7z" style="fill: rgb(232, 182, 48);" xmlns:spine="http://powtoon.com/" spine:tagging="head.primary.base"/>
		</g>
		<g>
			<path class="c16-30ff18-f3333394" d="M60.3,50.1l-0.1-0.5L60,49.4h-0.3l0.2,5.1v0.3v0.3L59.6,62l-0.5,2.7l-0.4,1.2l-0.1,0.7l-0.2,0.6l-0.3,0.6     L57.7,69l-2.9,5.4l-1.1,1.5l-0.1,0.2l-0.2,0.2l-0.2,0.3L53,76.8l0.2,0.3l0.3-0.2l1.8-1.7l0.2-0.3l0.4-0.4l0.6-0.8l1.3-1.9     l2.1-4.1l0.2-0.7c0.3-1.3,0.6-2.2,0.7-2.8l0.4-2.8l0.1-3.4l0.1-0.3l-0.6-4.8l-0.5-2.3L60.3,50.1z" style="fill: rgb(211, 162, 29);" xmlns:spine="http://powtoon.com/" spine:tagging="head.primary.shadow"/>
		</g>
		<g>
			<path class="c16-30ff18-f3333394" d="M44.3,60l-0.7-0.7L43.2,59l-2.5-3.2l-0.1-0.3l-0.4-0.6L40,54.4L39.7,54l-0.8-2.2l-0.4-1.6l-0.1-0.4v-0.4     l-0.1-0.2V49l-0.1-0.9v-0.5v-0.3v-0.2l-0.1-0.6h-0.3l-0.1,0.2l-0.4,3.4V51l0.2,0.9c0.1,0.7,0.3,1.4,0.5,2c0.2,0.7,0.5,1.4,0.9,2     l1.1,1.9l1.5,1.7l2.3,2l2.9,1.9l2.4,1.1h0.3l0.1-0.2l-0.2-0.2L44.3,60z" style="fill: rgb(211, 162, 29);" xmlns:spine="http://powtoon.com/" spine:tagging="head.primary.shadow"/>
		</g>
		<g>
			<path class="c16-30ff18-f3333394" d="M43.6,44.5h0.3l0.5-0.2l0.9-0.1h0.3l0.9-0.1h0.3h0.3h0.2h0.2l1.7,0.3l1.2,0.5c0.4,0.3,0.8,0.5,1.1,0.9     l0.8,1.2l0.2,0.4v0.2l0.2,0.1l0.1,0.4l0.1,0.3l1.3,4.7v0.2l0.1,0.3v0.2h0.3l0.1-0.8l0.1-1.5l-0.2-2.1l-1-3.2     c-0.3-0.5-0.7-1-1.1-1.5c-0.4-0.5-0.9-0.9-1.5-1.2l-0.2-0.1l-0.2-0.1L49.7,43l-0.4-0.1l-1.7-0.1l-1.4,0.3h-0.4l-0.6,0.2h-0.3     l-1.4,0.6L43.4,44L43.6,44.5z" style="fill: rgb(211, 162, 29);" xmlns:spine="http://powtoon.com/" spine:tagging="head.primary.shadow"/>
		</g>
		<g>
			<path class="c14-30ff18-f3333394" d="M46.5,75c-6.6,0.7-10.7,3.8-12.3,9.1c-0.9,6.7,0.5,12.1,4,16.2c3.8,2.5,7.2,1.7,10.3-2.2     c3.8,1.5,6.7,1,8.5-1.5c3.3-7.1,3.2-13-0.3-17.6C54.2,76,50.3,74.4,46.5,75z" style="fill: rgb(232, 182, 48);" xmlns:spine="http://powtoon.com/" spine:tagging="head.primary.base"/>
		</g>
		<g>
			<path class="c16-30ff18-f3333394" d="M37.3,83.4v-0.2v-0.3v-0.2h-0.4l-0.1,0.2l-0.3,1.9l0.1,3.4l1,3.2l1.3,1.9l0.8,0.7c0.4,0.3,0.8,0.6,1.2,0.9     l1.3,0.6l0.3,0.1l0.2,0.1l1.4,0.3l0.2-0.1l0.3,0.1l0.2-0.1l0.1-0.2l-0.7-0.3l-0.3-0.2L43.5,95l-1-0.5L42,94.2l-0.2-0.1l-0.3-0.2     l-0.2-0.1l-0.1-0.1l-0.3-0.2v-0.2l-0.3-0.2l-0.4-0.5l-0.1-0.1l-0.3-0.4l-0.7-1.2c-0.2-0.4-0.4-0.8-0.6-1.3L38,88.2l-0.8-4.4     L37.3,83.4z" style="fill: rgb(211, 162, 29);" xmlns:spine="http://powtoon.com/" spine:tagging="head.primary.shadow"/>
		</g>
		<g>
			<path class="c16-30ff18-f3333394" d="M54.2,84v-0.2h-0.3l-0.1,0.1l-0.1,0.3L53.4,85l-0.1,0.3l-0.1,0.3L53.1,86l-0.3,0.7l-0.1,0.4l-0.1,0.2v0.3     L52,89.2l-0.6,1.1l-0.2,0.3l-0.3,0.8l-0.3,0.3v0.2L50.5,92l-0.2,0.2v0.1l-0.2,0.1v0.1L50,92.7l-0.1,0.1l0.2,0.3l0.1-0.1h0.2     l0.1-0.1h0.1l0.2-0.1l0.9-0.4l0.3-0.3l0.2-0.1l0.1-0.1l0.4-0.3l0.6-0.9l0.1-0.2l0.1-0.1l0.8-1.9l0.3-2.3l-0.2-1.7l-0.1-0.1v-0.1     L54.2,84z" style="fill: rgb(211, 162, 29);" xmlns:spine="http://powtoon.com/" spine:tagging="head.primary.shadow"/>
		</g>
		<g>
			<path class="c14-30ff18-f3333394" d="M48.6,125.2c0.1,0,0.1-0.1,0.2-0.1c10.5-7.8,11.4-16.5,2.7-26.1c-3.3-4.6-7.4-5.3-12.3-2.3     c-7,1.5-10.4,7.2-10.1,17.1c0,0.8,0.1,1.6,0.1,2.4c0.1,1,0.3,2,0.6,3c0.7,5.7-1.1,9.6-5.3,11.6c-0.5,0.1-1,0.2-1.6,0.3l-4.5,0.1     l-4.8-0.6h-0.4l-0.2,0.1l0.1,0.1l5.1,3.6l0.7,0.4c1,0.6,2.1,1.1,3.2,1.5c1.3,0.5,2.7,0.9,4.1,1.2c1.6,0.3,3.2,0.4,4.9,0.3l2-0.2     l1-0.3h0.4l1.7-0.6l2.9-1.3l0.3-0.2l0.4-0.2l1.2-0.8l0.3-0.1l3.6-3.4l0.1-0.2l0.3-0.3l0.1-0.1V130h0.1v-0.2l0.2-0.2l1-1.3     l0.1-0.2l1.3-1.9C48.2,125.8,48.4,125.5,48.6,125.2z" style="fill: rgb(232, 182, 48);" xmlns:spine="http://powtoon.com/" spine:tagging="head.primary.base"/>
		</g>
		<g>
			<path class="c16-30ff18-f3333394" d="M49.3,111.5l-2.9,8l-0.4,0.6l-0.3,0.7l-0.4,0.6l-0.3,0.7l-2.8,4.5l-0.3,0.3l-0.3,0.5l-0.2,0.2     c-0.7,0.8-1.5,1.6-2.3,2.3s-1.7,1.3-2.6,1.8c-0.9,0.5-1.7,1-2.6,1.4l-0.7,0.2l-0.3,0.1h-0.4l-1.3,0.4h-0.3l-0.3,0.1l-2.6,0.3     h-0.4l-0.5,0.1l-1.6,0.1v0.3l1.6,0.3h0.4l0.4,0.1l4.1-0.3l0.7-0.1l0.4-0.1h0.4l0.7-0.2c1-0.3,2-0.7,3-1.2l2.9-1.9     c0.9-0.8,1.7-1.6,2.5-2.5c0.8-0.9,1.5-1.9,2.1-2.9l0.7-1.1l0.2-0.4l1.4-2.9l1-2.9l1.5-6.5v-0.4L49.3,111.5z" style="fill: rgb(211, 162, 29);" xmlns:spine="http://powtoon.com/" spine:tagging="head.primary.shadow"/>
		</g>
		<g>
			<path class="c16-30ff18-f3333394" d="M35.6,109.6l-0.1,0.7v0.2l-0.1,1.6l-0.1,0.7v1.1l-0.8,5.5l-0.5,1.7l-0.1,0.4l-0.2,0.4v0.3l-0.1,0.2l-0.1,0.4     l-0.3,0.6v0.2l-1.8,4.2l-0.2,0.3v0.3l-0.1,0.2l0.2,0.1l0.6-0.3l1.7-2.1l0.1-0.3l0.7-1l1.4-3.4l0.5-1.8l0.4-2.9v-1l0.1-0.4v-1.3     l-0.5-3.9v-0.2v-0.2v-0.3l-0.1-0.2L35.6,109.6z" style="fill: rgb(211, 162, 29);" xmlns:spine="http://powtoon.com/" spine:tagging="head.primary.shadow"/>
		</g>
	</g>
</g></g></g><g mapping="skin hair-back" transform="matrix(0.2448,0.0506,-0.0506,0.2448,-22.8557,-333.775)"><g transform="scale(2.1001, 2.0977)"><g>
	<path class="c0-30ff19-f47ae124" d="M134.1,101L134.1,101c-7.9-1.5-17-0.8-27.3,2.2c-14.2,4.7-22,25.6-23.2,62.9c-5.7,24.8,9.5,39.5,45.6,44.3   c15.5,3.3,25-1,28.4-13l0,0c1.4-5.4,0.3-10.6-3.4-15.5l0,0c-8.5-14.2-11.2-31.7-8.2-52.5C148.2,113.2,144.2,103.8,134.1,101z" style="fill: rgb(211, 162, 29);" xmlns:spine="http://powtoon.com/" spine:tagging="head.primary.shadow"/>
</g></g></g><g mapping="skin foot-L" transform="matrix(0.25,0.0049,-0.0049,0.25,5.1445,-29.1655)"><g transform="scale(2.0848, 2.0949)"><g class="c8-30ff1a-af5c2854">
	<rect class="c1-30ff1a-af5c2854" width="56.6" height="61.1" style=""/>
</g><g>
	<path class="c2-30ff1a-af5c2854" d="M15.4,36L15.4,36c-0.2-5.3-1.1-8.4-5.3-8.7c-1.3-0.2-4.5,1.2-4.5,4.5c-0.2,1.3-0.1,1.1-0.3,2.4   c-0.1,3.3-0.6,6.6-1.4,9.8c-0.9,3.6-1,6.3-0.5,8.1c0.2,0.9,0.7,1.7,1.5,2.2c1.3,0.6,4,0.6,8.1,0c0.7-0.2,1.5-0.4,2.2-0.5   c2.7-0.3,5.4-0.5,8.2-0.5c1.8,0,3.7,0.2,5.7,0.5c1.1,0.1,2.6,0.3,4.4,0.7c2,0.3,3.9,0.3,5.9,0.3c0.9-0.1,1.7-0.6,2.3-1.2   c0.8-0.8,1.3-1.9,1.3-3c0-0.6-0.1-1.3-0.4-1.8l-5.9-2l-3.5-1.2c-2.7-0.9-5.4-2-7.9-3.3l-5-2.7C18.6,38.5,16.9,37.3,15.4,36z" style="fill: rgb(247, 215, 185);" xmlns:spine="http://powtoon.com/" spine:tagging="skin.primary.base"/>
</g><g>
	<path class="c3-30ff1a-af5c2854" d="M11.8,35l0.1,0.1v0.1l-0.1,0.1v0.1l-0.1,0.1l-0.4,0.9v0.2l-0.1,0.1L11,37.1v0.2v0.3c-0.1,0.3-0.2,0.6-0.3,0.9   l-0.1,0.2v0.2l-0.1,0.2l-0.1,0.5l-0.1,0.3v0.2v0.2l-0.1,0.9l0.1,2.1l0.1,0.4v0.2l0.2,0.7v0.3l0.1,0.2l0.1,0.4v0.2h-0.1l-0.1-0.1   l-0.1-0.1l-0.1-0.2L10,45.1l-0.4-0.5L9,43.2V43l-0.1-0.3v-0.1v-0.1v-0.3v-1.5L9,40.1c0-0.4,0.1-0.8,0.3-1.1l0.4-1l0.1-0.2l0.1-0.2   l0.8-1.2l1-1.1h0.1l0.1-0.1L11.8,35z" style="fill: rgb(237, 191, 158);" xmlns:spine="http://powtoon.com/" spine:tagging="skin.primary.shadow"/>
</g><g class="c8-30ff1a-af5c2854">
	<circle class="c11-30ff1a-af5c2854" cx="10.2" cy="31.8" r="4.6" style=""/>
	<line class="c7-30ff1a-af5c2854" x1="14.7" y1="32" x2="5.7" y2="32" style=""/>
	<line class="c7-30ff1a-af5c2854" x1="10.2" y1="27.4" x2="10.2" y2="36.4" style=""/>
</g><g class="c8-30ff1a-af5c2854">
	<circle class="c11-30ff1a-af5c2854" cx="38.7" cy="50.2" r="4.5" style=""/>
	<line class="c11-30ff1a-af5c2854" x1="34.2" y1="50.1" x2="43.2" y2="50.1" style=""/>
	<line class="c11-30ff1a-af5c2854" x1="38.7" y1="45.6" x2="38.7" y2="54.6" style=""/>
</g></g></g><g mapping="skin toe-L" transform="matrix(0.25,-0.0039,0.0039,0.25,22.4214,-4.8245)"><g transform="scale(2.0833, 2.1649)"><g>
	<path class="c1-30ff1b-ef5c29d" d="M17.1,6.4c-0.5-1.1-1.9-1.8-4.3-2c-0.1-0.1-0.3-0.2-0.4-0.2C12,4.1,11.5,4,10.9,3.8l-8.5-3   C2.1,1,1.8,1.2,1.5,1.5c-0.8,0.8-1.3,1.9-1.3,3s0.4,2.2,1.2,3C2,8.2,2.8,8.6,3.6,8.8c0.2,0,0.3,0.1,0.5,0.1L12,8.7   c0.3,0.1,0.5,0.2,0.8,0.3c0.4,0.1,0.9,0.2,1.5,0.3C15.7,9.4,16.7,9,17.1,8c0.1-0.2,0.2-0.5,0.2-0.8C17.3,7,17.2,6.7,17.1,6.4z" style="fill: rgb(247, 215, 185);" xmlns:spine="http://powtoon.com/" spine:tagging="skin.primary.base"/>
	<g>
		<g>
			<path class="c1-30ff1b-ef5c29d" d="M0.1,4.4c0-1.2,0.5-2.3,1.4-3.1C1.8,1,2.1,0.8,2.4,0.6l8.6,3c0.7,0.2,1.2,0.3,1.6,0.4c0.1,0,0.3,0.1,0.4,0.2     c2.4,0.3,3.9,1,4.3,2.1c0.1,0.3,0.2,0.5,0.2,0.8s-0.1,0.5-0.2,0.8c-0.4,1-1.3,1.5-2.8,1.3C13.9,9.1,13.3,9,13,8.9     s-0.6-0.2-0.8-0.3l-8,0.2c-0.2,0-0.4,0-0.5-0.1c-1-0.1-1.8-0.6-2.3-1.2C0.5,6.6,0.1,5.5,0.1,4.4z" style="fill: rgb(247, 215, 185);" xmlns:spine="http://powtoon.com/" spine:tagging="skin.primary.base"/>
		</g>
		<g>
			<path class="c2-30ff1b-ef5c29d" d="M14,4.9l0.1-0.1V4.6l0.1-0.1h0.2l0.1,0.1v0.2l0.2,0.4v0.1l0.2,0.5v0.1L15,6l0.3,0.2c0.1,0.1,0.1,0.1,0.2,0.1     l0.2,0.1h0.1l0.1,0.1H17l0,0l0.1,0.1L17,6.7h-0.1l-0.2,0.2L16.4,7h-1.1l-0.1-0.1l-0.5-0.2l-0.4-0.4l-0.1-0.2V6l-0.1-0.2V5.7     L14,5.6V5.5V5.3V4.9z" style="fill: rgb(237, 191, 158);" xmlns:spine="http://powtoon.com/" spine:tagging="skin.primary.shadow"/>
		</g>
	</g>
	<g class="c7-30ff1b-ef5c29d">
		<circle class="c6-30ff1b-ef5c29d" cx="4.6" cy="4.5" r="4.5" style=""/>
		<line class="c6-30ff1b-ef5c29d" x1="0.1" y1="4.4" x2="9.1" y2="4.4" style=""/>
		<line class="c6-30ff1b-ef5c29d" x1="4.6" y1="-0.1" x2="4.6" y2="8.9" style=""/>
	</g>
</g></g></g><g mapping="skin shin-L" transform="matrix(0.2448,0.0507,-0.0507,0.2448,21.0082,-104.137)"><g transform="scale(2.1224, 2.0965)"><g>
	<g>
		<path class="c0-30ff1c-b1eb8568" d="M0,192.7h52.3V0H0V192.7z" style=""/>
	</g>
	<g>
		<path class="c1-30ff1c-b1eb8568" d="M20.3,11.2c-0.8-0.2-1.7-0.3-2.6-0.3c-6.2,0-11.2,5.1-11.2,11.3c0,0.2,0,0.3,0,0.4V23l3.9,153.3    c0,0,0.1,4.2,4.5,4.4c2,0.1,4.1-1.5,4.5-3.6l10-154.6h-0.1v-0.4c0-3.1-1.3-6-3.6-8.1C24.2,12.6,22.4,11.6,20.3,11.2z" style="fill: rgb(247, 215, 185);" xmlns:spine="http://powtoon.com/" spine:tagging="skin.primary.base"/>
	</g>
</g></g></g><g mapping="skin foot-L" transform="matrix(0.25,0.0049,-0.0049,0.25,5.1445,-29.1655)"><g transform="scale(2.0848, 2.0949)"><g class="c8-30ff1d-a6666798">
	<rect class="c1-30ff1d-a6666798" width="56.6" height="61.1" style=""/>
</g><g>
	<path class="c2-30ff1d-a6666798" d="M15.4,36L15.4,36c-0.2-5.3-1.1-8.4-5.3-8.7c-1.3-0.2-4.5,1.2-4.5,4.5c-0.2,1.3-0.1,1.1-0.3,2.4   c-0.1,3.3-0.6,6.6-1.4,9.8c-0.9,3.6-1,6.3-0.5,8.1c0.2,0.9,0.7,1.7,1.5,2.2c1.3,0.6,4,0.6,8.1,0c0.7-0.2,1.5-0.4,2.2-0.5   c2.7-0.3,5.4-0.5,8.2-0.5c1.8,0,3.7,0.2,5.7,0.5c1.1,0.1,2.6,0.3,4.4,0.7c2,0.3,3.9,0.3,5.9,0.3c0.9-0.1,1.7-0.6,2.3-1.2   c0.8-0.8,1.3-1.9,1.3-3c0-0.6-0.1-1.3-0.4-1.8l-5.9-2l-3.5-1.2c-2.7-0.9-5.4-2-7.9-3.3l-5-2.7C18.6,38.5,16.9,37.3,15.4,36z" style="fill: rgb(247, 215, 185);" xmlns:spine="http://powtoon.com/" spine:tagging="skin.primary.base"/>
</g><g>
	<path class="c3-30ff1d-a6666798" d="M11.8,35l0.1,0.1v0.1l-0.1,0.1v0.1l-0.1,0.1l-0.4,0.9v0.2l-0.1,0.1L11,37.1v0.2v0.3c-0.1,0.3-0.2,0.6-0.3,0.9   l-0.1,0.2v0.2l-0.1,0.2l-0.1,0.5l-0.1,0.3v0.2v0.2l-0.1,0.9l0.1,2.1l0.1,0.4v0.2l0.2,0.7v0.3l0.1,0.2l0.1,0.4v0.2h-0.1l-0.1-0.1   l-0.1-0.1l-0.1-0.2L10,45.1l-0.4-0.5L9,43.2V43l-0.1-0.3v-0.1v-0.1v-0.3v-1.5L9,40.1c0-0.4,0.1-0.8,0.3-1.1l0.4-1l0.1-0.2l0.1-0.2   l0.8-1.2l1-1.1h0.1l0.1-0.1L11.8,35z" style="fill: rgb(237, 191, 158);" xmlns:spine="http://powtoon.com/" spine:tagging="skin.primary.shadow"/>
</g><g class="c8-30ff1d-a6666798">
	<circle class="c11-30ff1d-a6666798" cx="10.2" cy="31.8" r="4.6" style=""/>
	<line class="c7-30ff1d-a6666798" x1="14.7" y1="32" x2="5.7" y2="32" style=""/>
	<line class="c7-30ff1d-a6666798" x1="10.2" y1="27.4" x2="10.2" y2="36.4" style=""/>
</g><g class="c8-30ff1d-a6666798">
	<circle class="c11-30ff1d-a6666798" cx="38.7" cy="50.2" r="4.5" style=""/>
	<line class="c11-30ff1d-a6666798" x1="34.2" y1="50.1" x2="43.2" y2="50.1" style=""/>
	<line class="c11-30ff1d-a6666798" x1="38.7" y1="45.6" x2="38.7" y2="54.6" style=""/>
</g></g></g><g mapping="skin topshoe-L" transform="matrix(0.2451,0.0493,-0.0493,0.2451,7.5601,-33.5632)"><g transform="scale(2.0939, 2.0968)"><g>
	<g>
		<path class="c0-30ff1e-b851ecb" d="M19.8,42c-0.3-5.2-0.6-13-0.5-17.4c-1.9,0-6.1-0.2-9-0.1c-1.3-0.1-2.1-0.1-4.1-0.4c-1.1,5.7-0.3,8.5,1.2,8.8    l-0.6,9.8c0.2,4.5,2.6,4.6,2.9,4.6c0.7,0.2,2.8,0.6,4.2,0.5C15.6,47.7,20.1,47.2,19.8,42z" style="fill: rgb(100, 73, 38);" xmlns:spine="http://powtoon.com/" spine:tagging="footwear.primary.base"/>
		<path d="M12,24.6L12,24.6l-1-0.1h-1L9.8,47.6h2.5L12,24.6z" style=""/>
	</g>
</g></g></g><g mapping="skin hip-L" transform="matrix(0.2424,-0.0614,0.0614,0.2424,-5.0252,-162.48)"><g transform="scale(2.1088, 2.1024)"><g>
	<path class="c1-30ff1f-628f5c58" d="M12.1,17.1h0.4C13.2,8.6,20.3,1.9,29,1.7c1.3,0,2.6,0.1,3.9,0.3c3.1,0.7,5.9,2.2,8.2,4.4   c4.3,4.1,6.2,10.2,4.9,16.1c0,0,0,0-0.1,0c0,0.1,0,0.2,0,0.3l-1.8,27.7c-12.1-0.4-23.4,2.6-31.3,5.6l-0.5-23.5l0,0L12.1,17.1z" style="fill: rgb(102, 102, 102);" xmlns:spine="http://powtoon.com/" spine:tagging="lowerBody.primary.base"/>
	<path class="c2-30ff1f-628f5c58" d="M44.1,50.5l-6.2,97.1v0.5c0.1,3-1.1,6-3.3,8.1c-2,2.3-4.9,3.7-8,3.7h-0.9c-2.8-0.2-5.4-1.4-7.4-3.4   c-2.2-2.1-3.5-4.9-3.5-7.9c0-0.4,0-0.9,0-1.3l-2-91.2C20.7,53.2,32,50.1,44.1,50.5z" style="fill: rgb(247, 215, 185);" xmlns:spine="http://powtoon.com/" spine:tagging="skin.primary.base"/>
</g></g></g><g mapping="skin foot-R" transform="matrix(0.25,-0.0017,0.0017,0.25,-29.4147,-28.9713)"><g transform="scale(2.0848, 2.0949)"><rect class="c0-30ff20-55c28fd" width="56.6" height="61.1" style=""/><g>
	<path class="c1-30ff20-55c28fd" d="M36.3,39.6l-5,2.7c-2.5,1.3-5.2,2.4-7.9,3.3l-3.5,1.2l-5.9,2c-0.3,0.5-0.4,1.2-0.4,1.8c0,1.1,0.5,2.2,1.3,3   c0.6,0.6,1.4,1.1,2.3,1.2c2,0,3.9,0,5.9-0.3c1.8-0.4,3.3-0.6,4.4-0.7c2-0.3,3.9-0.5,5.7-0.5c2.8,0,5.5,0.2,8.2,0.5   c0.7,0.1,1.5,0.3,2.2,0.5c4.1,0.6,6.8,0.6,8.1,0c0.8-0.5,1.3-1.3,1.5-2.2c0.5-1.8,0.4-4.5-0.5-8.1c-0.8-3.2-1.3-6.5-1.4-9.8   c-0.2-1.2-0.2-1-0.3-2.4c0.1-3.3-3.2-4.7-4.5-4.5c-4.2,0.3-5.1,3.4-5.3,8.7l0,0C39.7,37.3,38,38.5,36.3,39.6z" style="fill: rgb(247, 215, 185);" xmlns:spine="http://powtoon.com/" spine:tagging="skin.primary.base"/>
</g><g>
	<path class="c2-30ff20-55c28fd" d="M44.7,35.2L44.7,35.2l0.2,0.1l1,1.1l0.8,1.2l0.1,0.2l0.1,0.2l0.4,1c0.2,0.3,0.3,0.7,0.3,1.1l0.1,0.6v1.5v0.3   v0.1v0.1L47.6,43v0.2L47,44.6l-0.4,0.5l-0.4,0.2l-0.1,0.2L46,45.6l-0.1,0.1h-0.1v-0.2l0.1-0.4l0.1-0.2v-0.3l0.2-0.7v-0.2l0.1-0.4   l0.1-2.1l-0.1-0.9v-0.2v-0.2l-0.1-0.3l-0.1-0.5L46,38.9v-0.2l-0.1-0.2c-0.1-0.3-0.2-0.6-0.3-0.9v-0.3v-0.2l-0.2-0.4l-0.1-0.1v-0.2   l-0.4-0.9l-0.1-0.1v-0.1L44.7,35.2L44.7,35.2l0.1-0.2L44.7,35.2z" style="fill: rgb(237, 191, 158);" xmlns:spine="http://powtoon.com/" spine:tagging="skin.primary.shadow"/>
</g><g class="c7-30ff20-55c28fd">
	<circle class="c10-30ff20-55c28fd" cx="46.4" cy="31.8" r="4.6" style=""/>
	<line class="c6-30ff20-55c28fd" x1="41.9" y1="32" x2="51" y2="32" style=""/>
	<line class="c6-30ff20-55c28fd" x1="46.4" y1="27.4" x2="46.4" y2="36.4" style=""/>
</g><g class="c7-30ff20-55c28fd">
	<circle class="c10-30ff20-55c28fd" cx="17.9" cy="50.2" r="4.5" style=""/>
	<line class="c10-30ff20-55c28fd" x1="22.4" y1="50.1" x2="13.4" y2="50.1" style=""/>
	<line class="c10-30ff20-55c28fd" x1="17.9" y1="45.6" x2="17.9" y2="54.6" style=""/>
</g></g></g><g mapping="skin toe-R" transform="matrix(0.25,-0.0003,0.0003,0.25,-28.7564,-5.1193)"><g transform="scale(2.0833, 2.1649)"><g>
	<path class="c1-30ff21-eccccd4" d="M4.6,6.4c0.5-1.1,1.9-1.8,4.3-2C9,4.3,9.1,4.2,9.2,4.1c0.4-0.1,0.9-0.2,1.5-0.4l8.5-2.9   c0.3,0.2,0.6,0.4,0.9,0.7c0.8,0.8,1.3,1.9,1.3,3s-0.4,2.2-1.2,3c-0.6,0.6-1.3,1.1-2.2,1.3c-0.2,0-0.3,0.1-0.5,0.1L9.7,8.7   C9.4,8.8,9.2,8.9,8.9,9C8.5,9.1,8,9.2,7.4,9.3C5.9,9.4,5,9,4.6,8C4.5,7.8,4.4,7.5,4.4,7.2C4.4,7,4.4,6.7,4.6,6.4z" style="fill: rgb(247, 215, 185);" xmlns:spine="http://powtoon.com/" spine:tagging="skin.primary.base"/>
	<g>
		<g>
			<path class="c1-30ff21-eccccd4" d="M20.3,7.5c-0.6,0.7-1.3,1.1-2.2,1.3c-0.2,0-0.4,0.1-0.5,0.1l-8-0.2C9.3,8.8,9,8.9,8.7,8.9     C8.3,9,7.8,9.1,7.2,9.2C5.7,9.4,4.8,8.9,4.3,7.9C4.2,7.7,4.2,7.4,4.2,7.1s0-0.6,0.2-0.8c0.5-1.1,1.9-1.8,4.3-2.1     C8.8,4.1,8.9,4,9.1,3.9c0.4-0.1,0.9-0.2,1.6-0.4l8.6-3c0.3,0.2,0.6,0.4,0.9,0.7c0.9,0.8,1.4,1.9,1.4,3.1S21.1,6.6,20.3,7.5z" style="fill: rgb(247, 215, 185);" xmlns:spine="http://powtoon.com/" spine:tagging="skin.primary.base"/>
		</g>
		<g>
			<path class="c2-30ff21-eccccd4" d="M7.6,5.3v0.2v0.1v0.1v0.1L7.5,6v0.1L7.3,6.3L6.9,6.7L6.5,6.9L6.3,7h-1L5,6.9L4.8,6.7H4.6l0,0l0.1-0.1     l0.1-0.1H6l0.1-0.1h0.1l0.2-0.1c0.1,0,0.2-0.1,0.2-0.1L6.9,6L7,5.9V5.8l0.2-0.5l0,0l0.2-0.4V4.7l0.1-0.1h0.2l0.1,0.1v0.2L7.9,5     L7.6,5.3z" style="fill: rgb(237, 191, 158);" xmlns:spine="http://powtoon.com/" spine:tagging="skin.primary.shadow"/>
		</g>
	</g>
	<g class="c7-30ff21-eccccd4">
		<circle class="c6-30ff21-eccccd4" cx="17" cy="4.5" r="4.5" style=""/>
		<line class="c6-30ff21-eccccd4" x1="21.5" y1="4.4" x2="12.5" y2="4.4" style=""/>
		<line class="c6-30ff21-eccccd4" x1="17" y1="-0.1" x2="17" y2="8.9" style=""/>
	</g>
</g></g></g><g mapping="skin shin-R" transform="matrix(0.2457,-0.0461,0.0461,0.2457,-41.5226,-99.3124)"><g transform="scale(2.1224, 2.0965)"><g>
	<g>
		<g>
			<path class="c0-30ff22-e7ae152" d="M52.3,0H0v192.7h52.3V0z" style=""/>
		</g>
		<g>
			<path class="c1-30ff22-e7ae152" d="M26.5,14c-2.3,2.1-3.6,5-3.6,8.1v0.4h-0.1l10.1,153.8c0.2,2.5,2.2,4.5,4.4,4.4c3.6-0.4,4.5-2.4,4.6-4.4     L45.7,23v-0.4c0-0.1,0-0.2,0-0.4c0-6.2-5-11.3-11.2-11.3c-0.9,0-1.8,0.1-2.6,0.3C29.8,11.6,28,12.6,26.5,14z" style="fill: rgb(247, 215, 185);" xmlns:spine="http://powtoon.com/" spine:tagging="skin.primary.base"/>
		</g>
	</g>
</g></g></g><g mapping="skin foot-R" transform="matrix(0.25,-0.0017,0.0017,0.25,-29.4147,-28.9713)"><g transform="scale(2.0848, 2.0949)"><rect class="c0-30ff23-a28f5c5" width="56.6" height="61.1" style=""/><g>
	<path class="c1-30ff23-a28f5c5" d="M36.3,39.6l-5,2.7c-2.5,1.3-5.2,2.4-7.9,3.3l-3.5,1.2l-5.9,2c-0.3,0.5-0.4,1.2-0.4,1.8c0,1.1,0.5,2.2,1.3,3   c0.6,0.6,1.4,1.1,2.3,1.2c2,0,3.9,0,5.9-0.3c1.8-0.4,3.3-0.6,4.4-0.7c2-0.3,3.9-0.5,5.7-0.5c2.8,0,5.5,0.2,8.2,0.5   c0.7,0.1,1.5,0.3,2.2,0.5c4.1,0.6,6.8,0.6,8.1,0c0.8-0.5,1.3-1.3,1.5-2.2c0.5-1.8,0.4-4.5-0.5-8.1c-0.8-3.2-1.3-6.5-1.4-9.8   c-0.2-1.2-0.2-1-0.3-2.4c0.1-3.3-3.2-4.7-4.5-4.5c-4.2,0.3-5.1,3.4-5.3,8.7l0,0C39.7,37.3,38,38.5,36.3,39.6z" style="fill: rgb(247, 215, 185);" xmlns:spine="http://powtoon.com/" spine:tagging="skin.primary.base"/>
</g><g>
	<path class="c2-30ff23-a28f5c5" d="M44.7,35.2L44.7,35.2l0.2,0.1l1,1.1l0.8,1.2l0.1,0.2l0.1,0.2l0.4,1c0.2,0.3,0.3,0.7,0.3,1.1l0.1,0.6v1.5v0.3   v0.1v0.1L47.6,43v0.2L47,44.6l-0.4,0.5l-0.4,0.2l-0.1,0.2L46,45.6l-0.1,0.1h-0.1v-0.2l0.1-0.4l0.1-0.2v-0.3l0.2-0.7v-0.2l0.1-0.4   l0.1-2.1l-0.1-0.9v-0.2v-0.2l-0.1-0.3l-0.1-0.5L46,38.9v-0.2l-0.1-0.2c-0.1-0.3-0.2-0.6-0.3-0.9v-0.3v-0.2l-0.2-0.4l-0.1-0.1v-0.2   l-0.4-0.9l-0.1-0.1v-0.1L44.7,35.2L44.7,35.2l0.1-0.2L44.7,35.2z" style="fill: rgb(237, 191, 158);" xmlns:spine="http://powtoon.com/" spine:tagging="skin.primary.shadow"/>
</g><g class="c7-30ff23-a28f5c5">
	<circle class="c10-30ff23-a28f5c5" cx="46.4" cy="31.8" r="4.6" style=""/>
	<line class="c6-30ff23-a28f5c5" x1="41.9" y1="32" x2="51" y2="32" style=""/>
	<line class="c6-30ff23-a28f5c5" x1="46.4" y1="27.4" x2="46.4" y2="36.4" style=""/>
</g><g class="c7-30ff23-a28f5c5">
	<circle class="c10-30ff23-a28f5c5" cx="17.9" cy="50.2" r="4.5" style=""/>
	<line class="c10-30ff23-a28f5c5" x1="22.4" y1="50.1" x2="13.4" y2="50.1" style=""/>
	<line class="c10-30ff23-a28f5c5" x1="17.9" y1="45.6" x2="17.9" y2="54.6" style=""/>
</g></g></g><g mapping="skin topshoe-R" transform="matrix(0.2455,-0.047,0.047,0.2455,-16.6202,-30.9658)"><g transform="scale(2.0939, 2.0968)"><g>
	<path class="c0-30ff24-8f5c2a18" d="M7.9,42c0.3-5.2,0.6-13,0.5-17.4c1.9,0,6.1-0.2,9-0.1c1.3-0.1,2.1-0.1,4.1-0.4c1.1,5.7,0.3,8.5-1.2,8.8   l0.6,9.8c-0.2,4.5-2.6,4.6-2.9,4.6c-0.7,0.2-2.8,0.6-4.2,0.5C12.1,47.7,7.6,47.2,7.9,42z" style="fill: rgb(100, 73, 38);" xmlns:spine="http://powtoon.com/" spine:tagging="footwear.primary.base"/>
	<path d="M15.4,47.6h2.5l-0.2-23.1h-1l-1,0.1l0,0L15.4,47.6z" style=""/>
</g></g></g><g mapping="skin hip-R" transform="matrix(0.2403,0.0689,-0.0689,0.2403,-16.2874,-170.545)"><g transform="scale(2.1088, 2.1024)"><g>
	<path class="c0-30ff25-133333b8" d="M45.9,53.7l-2,93.8c0,0.4,0,0.9,0,1.3c0,3-1.3,5.9-3.5,7.9c-2,2-4.6,3.2-7.3,3.3h-0.9c-3.1,0-6-1.4-8-3.7   c-2.2-2.1-3.4-5.1-3.3-8.1v-0.5L14.6,47.3C14.6,47.2,45.9,53.7,45.9,53.7z" style="fill: rgb(247, 215, 185);" xmlns:spine="http://powtoon.com/" spine:tagging="skin.primary.base"/>
</g><g>
	<path class="c1-30ff25-133333b8" d="M46.7,17.1h-0.4C45.5,8.6,38.4,1.9,29.8,1.7c-1.3,0-2.6,0.1-3.9,0.3c-3.1,0.7-5.9,2.2-8.2,4.4   c-4.3,4.1-6.2,10.2-4.9,16.1c0,0,0,0,0.1,0c0,0.1,0,0.2,0,0.3l1.8,27.7c12.1-0.4,23.4,2.6,31.3,5.6l0.5-23.5l0,0L46.7,17.1z" style="fill: rgb(102, 102, 102);" xmlns:spine="http://powtoon.com/" spine:tagging="lowerBody.primary.base"/>
</g></g></g><g mapping="skin toparm-R" transform="matrix(0.1939,0.1578,-0.1578,0.1939,-9.2097,-244.598)"><g transform="scale(2.1106, 2.1004)"><g class="c0-30ff26-1eb8532">
	<g>
		
	</g>
</g><g>
	<path class="c2-30ff26-1eb8532" d="M12.7,91.1c-0.2,0.8-0.1,1.5,0,2.3c0.3,2,1.4,3.9,3.1,5l0.1,0.1c3.4,2.5,8.2,1.7,10.7-1.7   c0.6-1,1.1-2.1,1.3-3.3l0,0L29,54.1l-0.1-29.7c1.1-2,1.4-4.3,0.9-6.5c-0.4-2.4-1.6-4.5-3.6-6C21.8,8.7,15.7,9.6,12.5,14   c-0.1,0.1-0.2,0.3-0.3,0.4c-0.8,1.2-1.4,2.6-1.5,4.1v2.7c0,0.2,0.1,0.4,0,0.6l0,0L12.7,91.1z" style="fill: rgb(247, 215, 185);" xmlns:spine="http://powtoon.com/" spine:tagging="skin.primary.base"/>
</g><g>
	<path class="c2-30ff26-1eb8532" d="M12.7,91.1c-0.2,0.8-0.1,1.5,0,2.3c0.3,2,1.4,3.9,3.1,5l0.1,0.1c3.4,2.5,8.2,1.7,10.7-1.7   c0.6-1,1.1-2.1,1.3-3.3l0,0L29,54.1c-6.7-12.5-12.6-18.6-17.6-18.2c0.1-1.6,0-2.3-0.4-2L12.7,91.1z" style="fill: rgb(247, 215, 185);" xmlns:spine="http://powtoon.com/" spine:tagging="skin.primary.base"/>
	<path class="c3-30ff26-1eb8532" d="M10.9,42.1c5-0.4,11.3-7.8,18,4.8L29,24.3c1.1-2,1.4-4.4,0.9-6.6c-0.4-2.4-1.8-4.5-3.8-6   c-4.4-3.2-10.5-2.3-13.7,2.1c-0.1,0.1-0.2,0.3-0.3,0.4c-0.8,1.2-1.4,2.6-1.5,4.1V21c0,0.2,0.1,0.4,0.1,0.6l-0.1,0.1L11,33.9   C11.3,36.6,11.1,40.6,10.9,42.1z" style="fill: rgb(153, 153, 153);" xmlns:spine="http://powtoon.com/" spine:tagging="upperBody.tertiary.base"/>
</g><g>
	<path d="M11.4,47.8c0-1.2-0.1-2.6-0.1-3.8c2.4-0.6,11.6-4.2,17.6,5.2L29,45c-3.1-7.9-15.6-5.8-18.6-3.7c0,0-0.5,0.3-0.7,0.5   C8.5,43.3,10.4,47.9,11.4,47.8z" style="fill: rgb(0, 0, 0);" xmlns:spine="http://powtoon.com/" spine:tagging="upperBody.tertiary.outline"/>
</g></g></g><g mapping="skin toparm-L" transform="matrix(0.1925,-0.1595,0.1595,0.1925,8.4427,-229.326)"><g transform="scale(2.1106, 2.1004)"><g class="c0-30ff27-08f5c378">
	<g>
		
	</g>
</g><g>
	<path class="c2-30ff27-08f5c378" d="M29.4,22L29.4,22c-0.1-0.2,0-0.4,0-0.6v-2.7c-0.1-1.5-0.7-2.9-1.5-4.1c-0.1-0.1-0.2-0.3-0.3-0.4   C24.4,9.8,18.4,9,14,12.1c-2,1.5-3.4,3.6-3.8,5.9c-0.5,2.2,0,4,1,5.9l-0.1,30l1.1,39l0,0c0.2,1.2,0.7,2.3,1.3,3.3   c2.5,3.4,7.2,4.2,10.6,1.7l0.1-0.1c1.7-1.1,2.8-3,3.1-4.9c0.1-0.8,0.2-1.5,0-2.3L29.4,22z" style="fill: rgb(247, 215, 185);" xmlns:spine="http://powtoon.com/" spine:tagging="skin.primary.base"/>
</g><g>
	<path class="c2-30ff27-08f5c378" d="M29.2,33.9c-0.4-0.3-0.5,0.4-0.4,2c-5-0.4-10.9,5.7-17.6,18.2l1.1,39.4l0,0c0.2,1.2,0.7,2.3,1.3,3.3   c2.5,3.4,7.3,4.2,10.7,1.7l0.1-0.1c1.7-1.1,2.8-3,3.1-5c0.1-0.8,0.2-1.5,0-2.3L29.2,33.9z" style="fill: rgb(247, 215, 185);" xmlns:spine="http://powtoon.com/" spine:tagging="skin.primary.base"/>
	<path class="c3-30ff27-08f5c378" d="M29.2,33.9l0.4-12.2l-0.1-0.1c0-0.2,0.1-0.4,0.1-0.6v-2.7c-0.1-1.5-0.7-2.9-1.5-4.1c-0.1-0.1-0.2-0.3-0.3-0.4   c-3.2-4.4-9.3-5.3-13.7-2.1c-2,1.5-3.4,3.6-3.8,6c-0.5,2.2-0.2,4.6,0.9,6.6l0,21.3c8.2-6.5,13-3.5,18-3.1   C29,40.9,29.2,35.1,29.2,33.9z" style="fill: rgb(153, 153, 153);" xmlns:spine="http://powtoon.com/" spine:tagging="upperBody.tertiary.base"/>
</g><g>
	<path d="M30.4,41.9c-0.2-0.2-0.7-0.5-0.7-0.5c-3-2.1-15.5-4.2-18.6,3.7l0.1,4.1c6-9.4,15.2-5.8,17.6-5.2c0,1.2-0.1,2.7-0.1,3.8   C29.7,47.9,31.6,43.4,30.4,41.9z" style="fill: rgb(0, 0, 0);" xmlns:spine="http://powtoon.com/" spine:tagging="upperBody.tertiary.outline"/>
</g></g></g><g mapping="skin pelvis" transform="matrix(0.2484,0.0053,-0.0054,0.2499,-15.3874,-182.424)"><g transform="scale(2.1024, 2.1008)"><g>
	<path class="c1-30ff27-e3d70b" d="M64.5,61.8c3.5-0.8,6.2-3.7,6.6-7.3c0.3-2.4,0.5-5,0.6-7.7c0.3-5.1,0.4-9.7,0.3-14L4,33   c0.1,6.9,0.6,13.8,1.3,20.6c0.5,4.3,3.6,7.8,7.8,8.7C29.8,65.8,47.3,65.6,64.5,61.8z" style="fill: rgb(102, 102, 102);" xmlns:spine="http://powtoon.com/" spine:tagging="lowerBody.primary.base"/>
</g></g></g><g mapping="skin torso" transform="matrix(0.2526,0.0148,-0.0146,0.2496,-17.8777,-240.39)"><g transform="scale(2.1114, 2.1017)"><g xmlns:spine="http://powtoon.com/">
	<path class="c0-30ff28-93333394" d="M83,13.1c-2-2.5-5.3-3.8-9.7-4c0,0-1.9,0-4,0c-0.2,0-0.4,0.1-0.6,0.1L58.4,9.5l0,0.8c-6.7,0.2-14.4-0.2-21-0.6   L37.5,9L25.1,8.8c-1-0.1-1.8-0.1-2.3-0.1L23,8.8l-4.3-0.1c-5.7,2-7.8,6-6.1,12.1L20,41.2l0.3,0.6c0.4,4.4,0.1,8.9-1,13.2l-1.2,8.5   c0.7,4.4,3.7,8.1,7.9,9.5l0.7,0.3l1.8,0.5l-2.9,25.4l-0.6,2.1l-0.3,1.1l-5.9,16.8c-2.2,6.6-3.6,14.1-3.9,21.1   c-0.8,20.8,30,17.5,38,17.4c10.1-0.9,30.5-2.8,30.2-15.8c-0.3-7.1-1.5-10.8-3.8-17.4c-1.9-5.3-3.7-10.6-5.4-15.9l-1.7-7.1l-0.1-0.7   l-0.4-1.4l-2.8-25.5l1-0.3c1.4-0.4,2.8-1,4-1.8c2.9-1.9,4.9-4.9,5.4-8.3l-0.4-6.2l-0.7-5.7c-0.7-4.1-0.8-8.3-0.4-12.5l2.1-5.8l0,0   l0.1,0l3.4-8.4c0.5-1.8,0.9-3.7,1.2-5.5C85.1,17.2,84.5,14.8,83,13.1z" style="fill: rgb(153, 153, 153);" spine:tagging="upperBody.primary.base"/>
	<path spine:tagging="upperBody.primary.shadow" class="c1-30ff28-93333394" d="M37.4,73.9l-10.8-0.5l1.8,0.5l-0.5,4L37.4,73.9z M58.3,73.4L69.6,79   l-0.7-5.1v-0.3C68.9,73.6,58.3,73.4,58.3,73.4z" style="fill: rgb(115, 115, 115);"/>
	<path spine:tagging="skin.primary.base" class="c2-30ff28-93333394" d="M59.6,12.1l-0.5-2.5L37.3,8.9l-0.5,3.3c-1.7,9-1.3,16,1.2,20.8   c2.4,4.7,6.7,7,12.7,7.1c4.3-1.3,7.6-4.7,8.9-9C61.2,24.9,61.2,18.3,59.6,12.1z" style="fill: rgb(247, 215, 185);"/>
	<path spine:tagging="upperBody.secondary.base" class="c3-30ff28-93333394" d="M59.1,9.6l0.5,2.5c1.6,6.2,1.6,12.8-0.1,19c-1.3,4.3-4.6,7.7-8.9,9   c-6-0.1-10.2-2.5-12.7-7.1c-2.5-4.8-2.9-11.8-1.2-20.8l0.5-3.3" style="stroke: rgb(0, 0, 0);"/>
</g></g></g><g mapping="skin pelvis" transform="matrix(0.2484,0.0053,-0.0054,0.2499,-15.3874,-182.424)"><g transform="scale(2.1024, 2.1008)"><g>
	<path class="c1-30ff29-851eb854" d="M64.5,61.8c3.5-0.8,6.2-3.7,6.6-7.3c0.3-2.4,0.5-5,0.6-7.7c0.3-5.1,0.4-9.7,0.3-14L4,33   c0.1,6.9,0.6,13.8,1.3,20.6c0.5,4.3,3.6,7.8,7.8,8.7C29.8,65.8,47.3,65.6,64.5,61.8z" style="fill: rgb(102, 102, 102);" xmlns:spine="http://powtoon.com/" spine:tagging="lowerBody.primary.base"/>
</g></g></g><g mapping="skin torso" transform="matrix(0.2526,0.0148,-0.0146,0.2496,-17.8777,-240.39)"><g transform="scale(2.1114, 2.1017)"><g xmlns:spine="http://powtoon.com/">
	<path class="c0-30ff2a-28f5c24c" d="M83,13.1c-2-2.5-5.3-3.8-9.7-4c0,0-1.9,0-4,0c-0.2,0-0.4,0.1-0.6,0.1L58.4,9.5l0,0.8c-6.7,0.2-14.4-0.2-21-0.6   L37.5,9L25.1,8.8c-1-0.1-1.8-0.1-2.3-0.1L23,8.8l-4.3-0.1c-5.7,2-7.8,6-6.1,12.1L20,41.2l0.3,0.6c0.4,4.4,0.1,8.9-1,13.2l-1.2,8.5   c0.7,4.4,3.7,8.1,7.9,9.5l0.7,0.3l1.8,0.5l-2.9,25.4l-0.6,2.1l-0.3,1.1l-5.9,16.8c-2.2,6.6-3.6,14.1-3.9,21.1   c-0.8,20.8,30,17.5,38,17.4c10.1-0.9,30.5-2.8,30.2-15.8c-0.3-7.1-1.5-10.8-3.8-17.4c-1.9-5.3-3.7-10.6-5.4-15.9l-1.7-7.1l-0.1-0.7   l-0.4-1.4l-2.8-25.5l1-0.3c1.4-0.4,2.8-1,4-1.8c2.9-1.9,4.9-4.9,5.4-8.3l-0.4-6.2l-0.7-5.7c-0.7-4.1-0.8-8.3-0.4-12.5l2.1-5.8l0,0   l0.1,0l3.4-8.4c0.5-1.8,0.9-3.7,1.2-5.5C85.1,17.2,84.5,14.8,83,13.1z" style="fill: rgb(153, 153, 153);" spine:tagging="upperBody.primary.base"/>
	<path spine:tagging="upperBody.primary.shadow" class="c1-30ff2a-28f5c24c" d="M37.4,73.9l-10.8-0.5l1.8,0.5l-0.5,4L37.4,73.9z M58.3,73.4L69.6,79   l-0.7-5.1v-0.3C68.9,73.6,58.3,73.4,58.3,73.4z" style="fill: rgb(115, 115, 115);"/>
	<path spine:tagging="skin.primary.base" class="c2-30ff2a-28f5c24c" d="M59.6,12.1l-0.5-2.5L37.3,8.9l-0.5,3.3c-1.7,9-1.3,16,1.2,20.8   c2.4,4.7,6.7,7,12.7,7.1c4.3-1.3,7.6-4.7,8.9-9C61.2,24.9,61.2,18.3,59.6,12.1z" style="fill: rgb(247, 215, 185);"/>
	<path spine:tagging="upperBody.secondary.base" class="c3-30ff2a-28f5c24c" d="M59.1,9.6l0.5,2.5c1.6,6.2,1.6,12.8-0.1,19c-1.3,4.3-4.6,7.7-8.9,9   c-6-0.1-10.2-2.5-12.7-7.1c-2.5-4.8-2.9-11.8-1.2-20.8l0.5-3.3" style="stroke: rgb(0, 0, 0);"/>
</g></g></g><g mapping="skin neck" transform="matrix(0.2402,0.0693,-0.0693,0.2402,4.0283,-262.722)"><g transform="scale(2.1867, 2.1071)"><g filter="url(#Filter_1)"><g/></g><g><path d="M553.89,314.34a9.78,9.78,0,0,0-16.69,6.91v65.51a9.78,9.78,0,0,0,19.56,0V321.25A9.42,9.42,0,0,0,553.89,314.34Z" transform="translate(-527.45 -303.65)" fill="#f7d7b9" style="fill: rgb(247, 215, 185);" xmlns:spine="http://powtoon.com/" spine:tagging="skin.primary.base"/></g><g><path d="M547,396.54a9.8,9.8,0,0,0,9.78-9.78V340l-19.56-4.76v51.5a9.8,9.8,0,0,0,9.78,9.78Z" transform="translate(-527.45 -303.65)" fill="#f7d7b9" style="fill: rgb(247, 215, 185);" xmlns:spine="http://powtoon.com/" spine:tagging="skin.primary.base"/><path d="M556.76,340V321.25a9.78,9.78,0,0,0-19.56,0v14Z" transform="translate(-527.45 -303.65)" fill="#ebb79e" style="fill: rgb(237, 191, 158);" xmlns:spine="http://powtoon.com/" spine:tagging="skin.primary.shadow"/></g></g></g><g mapping="skin head" transform="matrix(0.2391,0.073,-0.073,0.2391,-2.9908,-315.075)"><g transform="scale(2.0983, 2.1033)"><g>
	<g>
		<path class="c4-30ff2b-a3d70998" d="M59.5,31.8c-14,4.3-22.3,10.2-25.1,17.5c-2.2,5.4-3.4,11.2-3.7,17c0,0.8,0,1.6,0,2.4c0,0.4,0.1,0.7,0.2,1.1    c0.3,0.8,0.8,1.6,1.3,2.3c1.1,1.5,4,5.2,6.9,9.7c3.2,4.9,4.8,8.2,3.6,10.1l1.1-0.3l2.1,14.9c2.6,3.6,5.5,7,8.6,10.2    c2.7,2.6,5.6,5,8.7,7.2c3.7,2.6,7.7,4.7,11.9,6.4c4.8,1.9,8.6,2.7,11.4,2.4c2.7-0.4,5.2-1.6,7.1-3.5c2.6-2.3,6.5-6.9,11.7-13.7    c3.3-4.4,5.5-8.5,6.3-12.2c1.3-5.1,0.9-11-1.1-17.7c-0.5-1.8-0.5-4.6-0.1-8.4c0.5-4.3,0.8-8.7,0.8-13.1c-0.1-1.9-0.5-3.7-1-5.5    l-0.9-3.4c-2.1-9.2-7.9-15.9-17.2-20C83.2,31,72.3,29.9,59.5,31.8z" style="fill: rgb(247, 215, 185);" xmlns:spine="http://powtoon.com/" spine:tagging="skin.primary.base"/>
		<path class="c5-30ff2b-a3d70998" d="M43.8,91.5l-1.1,0.3c-0.2,0.1-0.3-0.1-0.5-0.9L41.3,91l-0.9,0.4c0.9,3.5,1.9,6.9,3.3,10.2    c0.2,0.5,0.9,2.1,2.2,4.8L43.8,91.5z" style="fill: rgb(237, 191, 158);" xmlns:spine="http://powtoon.com/" spine:tagging="skin.primary.shadow"/>
	</g>
	<path class="c4-30ff2b-a3d70998" d="M110.6,85.5c-0.5-1.8-0.5-4.6-0.1-8.4c0.5-4.3,0.8-8.7,0.8-13.1c-0.1-1.9-0.5-3.7-1-5.5l-0.9-3.5   c-2.1-9.2-7.9-15.9-17.2-20c-8.9-4-19.7-5.1-32.5-3.2C45.6,36.1,37.2,42,34.4,49.3c-2.2,5.4-3.4,11.2-3.7,17c0,0.8,0,1.6,0,2.4   c0,0.4,0.1,0.7,0.2,1.1c0.3,0.8,0.8,1.6,1.3,2.3c0.5,0.6,1.2,1.5,2,2.6l0,0c-0.1,0-0.2,0-0.4,0c-0.9,0-1.7,0.2-2.5,0.4   c-1.8,0.2-3.4,1.1-4.5,2.6c-1.3,1.9-1.4,4.1-0.3,6.7c0.7,1.6,1.6,3.1,2.7,4.4c1.1,1.4,2.4,2.6,4,3.4c0.9,0.4,1.8,0.6,2.7,0.7   l0.1,0.2l0,0l0.4,1.5c1.2,2.2,2.7,3.1,4.5,2.7L40.4,93l0,0v-0.5l0.3-0.1c0.8,3.1,1.8,6.2,3,9.1c0.2,0.5,0.9,2.1,2.2,4.7v0.1   c2.6,3.6,5.5,7,8.6,10.2c2.7,2.6,5.6,5,8.7,7.2c3.7,2.6,7.7,4.7,11.9,6.3c4.8,1.9,8.6,2.7,11.4,2.4c2.7-0.4,5.2-1.6,7.1-3.5   c2.6-2.3,6.5-6.9,11.7-13.7c3.3-4.4,5.5-8.5,6.3-12.2C112.9,98,112.6,92.1,110.6,85.5z M42.8,91.8C42.7,91.8,42.7,91.8,42.8,91.8   c-0.1,0.1-0.1,0.1-0.1,0.1S42.7,91.8,42.8,91.8z" style="fill: rgb(247, 215, 185);" xmlns:spine="http://powtoon.com/" spine:tagging="skin.primary.base"/>
	<g>
		<g>
			<path class="c4-30ff2b-a3d70998" d="M41.2,78.7c-1.2-1.3-2.6-2.4-4.3-3.3c-0.9-0.4-2.8-0.8-2.8-0.7c-0.1,0-0.2,0-0.4,0c-0.9,0-1.7,0.2-2.5,0.4     c-1.8,0.2-3.4,1.1-4.5,2.6c-1.3,1.9-1.4,4.1-0.3,6.7c0.7,1.6,1.6,3.1,2.7,4.4c1.1,1.4,2.4,2.6,4,3.4c2.1,0.9,4.5,1.1,6.7,0.5     l2.4-0.5c0.1-0.1,0.3-0.2,0.4-0.4h0.1C45.6,87.3,45.1,82.9,41.2,78.7z" style="fill: rgb(247, 215, 185);" xmlns:spine="http://powtoon.com/" spine:tagging="skin.primary.base"/>
		</g>
		<g>
			<path class="c5-30ff2b-a3d70998" d="M30.8,78.5l-0.5,0.4c-0.2,0.1-0.3,0.3-0.4,0.4l-0.2,0.2h-0.1c0,0-1.2,2.2-0.3,3.5c0.7-0.1,2.3-0.3,3.4-0.3     c1.4,0.4,2.8,1.2,3.8,2.2l-0.1-0.4c0,0,0.2-1,0.1-0.7l0.4-0.7l0.6-0.5l1.3-0.5l-0.9-1l-0.1-0.2L36.9,80l-2-1.6     c-0.3-0.2-0.7-0.4-1.1-0.4l-0.6-0.1h-0.6h-0.1h-0.1h-0.2L31.9,78l0,0l-0.2,0.1l-0.1,0.1h-0.2l0,0l-0.2,0.1l-0.1,0.1L30.8,78.5z" style="fill: rgb(237, 191, 158);" xmlns:spine="http://powtoon.com/" spine:tagging="skin.primary.shadow"/>
		</g>
		
			<g>
			<path class="c6-30ff2b-a3d70998" d="M29.5,79.8L29.5,79.8l0.1-0.3l0.1-0.1l0.3-0.3V79l0.2-0.1c0,0,0.6-0.4,0.8-0.5l0.2-0.1l0.2-0.2l0.3-0.1     l0.7-0.1h0.1h0.3H33h0.6l1.3,0.4l1.3,0.7c0,0,0.1,0.1,0.6,0.4s2.6,2.4,2.6,2.4c0.2,0.2,0.2,0.3,0,0.5l-0.1,0.1l0,0L39,82.5h-0.1     h-0.1l0,0l0,0l-0.4,0.1l-0.2,0.1l-0.4,0.2L37.7,83l-0.3,0.2l-0.1,0.2v0.1l0,0v0.2l-0.1,0.4v0.3v0.1v0.2l0,0v0.1l0.1,0.3l0.2,0.3     c0.1,0.1,0.2,0.2,0.3,0.2l0.3,0.2l0.8,0.1H39V86h-0.5H38h-0.6c-0.2,0-0.3-0.1-0.4-0.3c-0.1-0.1-0.2-0.2-0.3-0.4     c-0.1-0.1-0.1-0.3-0.2-0.4v-0.2v-0.1v-0.1v-0.1l0,0v-0.5l0.1-0.2v-0.2l0,0l0.1-0.2l0.1-0.2l0.1-0.1l0.1-0.1l0.1-0.1l0.1-0.1     l0.1-0.1l0.2-0.1l0.3-0.2l0.2-0.1l0.4-0.2l0,0l0,0l-1.8-1.5l-0.1-0.1l-0.8-0.6l-1.8-1.1l-0.5-0.2h-0.5h-0.7h-0.1H32h-0.1h-0.2     l-0.2,0.1l-0.3,0.1c-0.2,0.1-0.4,0.1-0.6,0.3l-0.2,0.1V79l-0.2,0.1l-0.1,0.1L30,79.3" style="fill: rgb(166, 115, 98);" xmlns:spine="http://powtoon.com/" spine:tagging="skin.primary.outline"/>
		</g>
		<g>
			<path class="c7-30ff2b-a3d70998" d="M36,93.1l0.4,1.5c1.2,2.2,2.7,3.1,4.5,2.7L40.4,93H36 M40.4,91.4L40.4,91.4c-0.1-2-1-3-2.8-3s-2.5,0.7-2.3,2     l0.2,0.8L40.4,91.4z" style=""/>
			<path class="c8-30ff2b-a3d70998" d="M40.4,91.4l-4.9-0.1l0.5,1.8h4.5L40.4,91.4z" style=""/>
		</g>
	</g>
</g></g></g><g mapping="skin eyeballs" transform="matrix(0.2398,0.0705,-0.0705,0.2398,13.975,-273.714)"><g transform="scale(2.0911, 2.1097)"><path class="c0-30ff2c-cb851f24" d="M49,18.2H11.7c-3.9,0-7.1-3.2-7.1-7.1V11c0-3.9,3.2-7.1,7.1-7.1H49c3.9,0,7.1,3.2,7.1,7.1v0.2  C56.1,15,52.9,18.2,49,18.2z" style=""/></g></g><g mapping="skin pupils" transform="matrix(0.2398,0.0705,-0.0705,0.2398,13.7554,-274.075)"><g transform="scale(2.1417, 2.1941)"><g>
	<g>
		<path class="c7-30ff2d-7851ec3c" d="M20,9.5c-0.5-1.2-1.5-2.2-2.7-2.7c-2.5-1.2-5.5-0.1-6.7,2.4c-0.6,1.3-0.6,2.7-0.1,4c0.4,1.3,1.4,2.3,2.7,2.8    c1.2,0.6,2.6,0.6,3.8,0.1c1.2-0.5,2.2-1.4,2.8-2.6C20.3,12.2,20.4,10.8,20,9.5z" style="fill: rgb(53, 136, 176);" xmlns:spine="http://powtoon.com/" spine:tagging="head.tertiary.base"/>
	</g>
	<g>
		<path d="M17.6,10.5c-0.2-0.6-0.7-1.1-1.3-1.4c-0.6-0.3-1.3-0.3-2-0.1c-0.6,0.2-1.1,0.7-1.4,1.3c-0.3,0.6-0.3,1.4,0,2    c0.2,0.6,0.7,1.1,1.3,1.4c1.1,0.6,2.5,0.2,3.1-0.9c0.1-0.1,0.1-0.3,0.2-0.4C17.7,11.7,17.8,11.1,17.6,10.5z" style=""/>
	</g>
	<g>
		<path class="c9-30ff2d-7851ec3c" d="M12.6,11.3c0.1,0.3,0.3,0.6,0.6,0.6c0.3,0.1,0.7,0.2,1,0c0.3-0.1,0.6-0.3,0.7-0.6c0.1-0.3,0.1-0.6,0-1    c-0.1-0.3-0.4-0.5-0.7-0.6s-0.6-0.1-0.9,0C12.7,9.9,12.4,10.5,12.6,11.3C12.6,11.2,12.6,11.2,12.6,11.3L12.6,11.3z" style=""/>
	</g>
	<g>
		<path class="c7-30ff2d-7851ec3c" d="M20,9.5c-0.5-1.2-1.5-2.2-2.7-2.7c-2.5-1.2-5.5-0.1-6.7,2.4c-0.6,1.3-0.6,2.7-0.1,4c0.4,1.3,1.4,2.3,2.7,2.8    c1.2,0.6,2.6,0.6,3.8,0.1c1.2-0.5,2.2-1.4,2.8-2.6C20.3,12.2,20.4,10.8,20,9.5z" style="fill: rgb(53, 136, 176);" xmlns:spine="http://powtoon.com/" spine:tagging="head.tertiary.base"/>
	</g>
	<g>
		<path class="c8-30ff2d-7851ec3c" d="M18.1,10.3c-0.6-1.6-2.4-2.4-4.1-1.8c-0.7,0.3-1.4,0.9-1.7,1.6c-0.4,0.8-0.4,1.7-0.1,2.5    c0.7,1.5,2.4,2.3,4,1.8c0.8-0.3,1.4-0.9,1.7-1.7C18.3,11.9,18.4,11,18.1,10.3z" style="fill: rgb(7, 59, 84);" xmlns:spine="http://powtoon.com/" spine:tagging="head.tertiary.outline"/>
	</g>
	<g>
		<path class="c9-30ff2d-7851ec3c" d="M12,11.3c0.1,0.4,0.4,0.7,0.8,0.9c0.4,0.2,0.8,0.2,1.2,0c0.3-0.1,0.6-0.4,0.8-0.8c0.2-0.4,0.2-0.8,0.1-1.1    c-0.2-0.4-0.4-0.6-0.8-0.8c-0.3-0.2-0.7-0.2-1.1-0.1c-0.4,0.2-0.7,0.5-0.8,0.9C11.9,10.5,11.8,10.9,12,11.3z" style=""/>
	</g>
</g><g>
	<g>
		<path class="c7-30ff2d-7851ec3c" d="M50.5,8.1c-0.7-1.1-1.8-2-3-2.3C45,5,42.1,6.5,41.3,9.1v0.1c-0.7,2.7,0.9,5.5,3.5,6.2l0,0    c1.3,0.4,2.6,0.2,3.8-0.5C51,13.5,52,10.5,50.5,8.1L50.5,8.1z" style="fill: rgb(53, 136, 176);" xmlns:spine="http://powtoon.com/" spine:tagging="head.tertiary.base"/>
	</g>
	<g>
		<path d="M48.3,9.3c-0.3-0.6-0.9-1-1.5-1.2c-0.7-0.2-1.4-0.1-2,0.3c-0.6,0.3-1,0.8-1.2,1.5s-0.1,1.4,0.2,2s0.9,1,1.5,1.1    c0.6,0.2,1.3,0.1,1.9-0.2c0.6-0.4,1-0.9,1.2-1.6C48.8,10.5,48.7,9.9,48.3,9.3z" style=""/>
	</g>
	<g>
		<path class="c9-30ff2d-7851ec3c" d="M43.5,10.9c0.1,0.3,0.4,0.5,0.7,0.6s0.7,0,1-0.1s0.5-0.4,0.5-0.7c0.1-0.3,0.1-0.6,0-1    c-0.2-0.3-0.5-0.4-0.8-0.5s-0.6-0.1-0.8,0c-0.3,0.2-0.5,0.4-0.6,0.8C43.5,10.2,43.5,10.6,43.5,10.9z" style=""/>
	</g>
	<g>
		<path class="c7-30ff2d-7851ec3c" d="M50.5,8.1c-0.7-1.1-1.8-2-3-2.3C45,5,42.1,6.5,41.3,9.1v0.1c-0.7,2.7,0.9,5.5,3.5,6.2l0,0    c1.3,0.4,2.6,0.2,3.8-0.5C51,13.5,52,10.5,50.5,8.1L50.5,8.1z" style="fill: rgb(53, 136, 176);" xmlns:spine="http://powtoon.com/" spine:tagging="head.tertiary.base"/>
	</g>
	<g>
		<path class="c8-30ff2d-7851ec3c" d="M48.8,9.1c-0.9-1.4-2.7-1.9-4.2-1.2c-1.5,0.9-2,2.7-1.2,4.3c0.9,1.5,2.7,2,4.2,1.2c0.7-0.4,1.2-1.1,1.5-2    C49.3,10.6,49.2,9.8,48.8,9.1z" style="fill: rgb(7, 59, 84);" xmlns:spine="http://powtoon.com/" spine:tagging="head.tertiary.outline"/>
	</g>
	<g>
		<path class="c9-30ff2d-7851ec3c" d="M43,10.9c0.1,0.4,0.5,0.7,0.8,0.8c0.8,0.1,1.6-0.3,1.8-1.1c0.2-0.4,0.2-0.8,0-1.1c-0.3-0.3-0.6-0.5-1-0.6    s-0.8-0.1-1.1,0c-0.3,0.2-0.5,0.6-0.7,1C42.7,10.2,42.8,10.6,43,10.9z" style=""/>
	</g>
</g></g></g><g mapping="skin mouth" transform="matrix(0.2398,0.0705,-0.0705,0.2398,15.2772,-256.922)"><g transform="scale(2.1345, 2.1034)"><g>
	<g>
		<path class="c0-30ff30-4a3d7048" d="M25.6,11.1c-3.4-0.5-6.9-0.1-10.1,1c-2.8,0.8-4.9,3.1-5.3,6c-0.1,0.6,0,1.1,0.2,1.7c2.7-0.4,5.5-0.6,8.3-0.8    c1.8,0,3.6,0,5.4-0.1L25.6,11.1z" style=""/>
		<path class="c1-30ff30-4a3d7048" d="M25.6,11.1l3.6,0.4c0.3-0.7,0.3-1.4,0-2.1c-0.4-0.8-1.1-1.4-1.9-1.6C26,7.4,24.5,7.3,23,7.6    C20.8,8.2,18.8,9,16.8,10c-5.3,2.5-7.8,5.5-7.5,8.9c0,0.3,0.1,0.5,0.2,0.8c0.1,0.2,0.2,0.5,0.4,0.7c6.2,0.3,12.4,0,18.6-0.8    l-4.2-0.5c-2-0.1-3.8-0.1-5.6-0.1c-2.8,0.1-5.6,0.4-8.3,0.8c-0.2-0.5-0.2-1.1-0.2-1.7c0.4-2.9,2.5-5.2,5.3-6    C18.8,10.9,22.2,10.6,25.6,11.1z" style="fill: rgb(196, 119, 119);" xmlns:spine="http://powtoon.com/" spine:tagging="head.quaternary.shadow"/>
	</g>
</g></g></g><g mapping="skin eyes-flach" transform="matrix(0.2398,0.0705,-0.0705,0.2398,13.891,-273.871)"><g transform="scale(2.1079, 2.1519)"><path class="c1-30ff30-c7ae1438" d="M14.3,5.3h-0.7c-0.7,0.1-1.4,0.1-2.1,0.2c-1.1,0.3-2.1,0.8-3,1.5c-1.4,1-2.2,2.5-2.4,4.2  C6,12,6.2,12.8,6.7,13.6c0.4,0.8,1,1.5,1.7,2c1,0.7,3.4,1.1,7.3,1.4c2,0.1,4.6,0.3,7.7,0.5c0.2-3.3-0.2-5.8-1.3-7.7  C20.7,7.4,18.1,5.9,14.3,5.3z" style=""/><path class="c1-30ff30-c7ae1438" d="M55.8,10.2c-0.3-1.6-1.2-3.1-2.6-4.1c-0.3-0.2-0.5-0.4-0.7-0.5c-1.5-0.9-3.3-1.2-5-1c-1.9,0.3-3.8,1.1-5.4,2.2  C42,6.9,41.9,7,41.8,7.1c-0.9,0.6-1.5,1.4-2,2.3c-1.1,1.9-1.4,4.5-1,7.7c3.1-0.3,5.7-0.6,7.7-0.8c3.9-0.4,6.3-1,7.3-1.7  c0.7-0.5,1.3-1.3,1.7-2.1C55.8,11.8,55.9,11,55.8,10.2z" style=""/><path xmlns:spine="http://powtoon.com/" spine:tagging="skin.primary.base" class="c2-30ff30-c7ae1438" d="M50.4,0.1H0v23.7h50.6C61.4,13.5,54.4,3,50.4,0.1z M23.4,17.5  c-3.1-0.2-5.7-0.4-7.7-0.5c-3.9-0.3-6.3-0.7-7.3-1.4c-0.7-0.5-1.3-1.2-1.7-2C6.2,12.8,6,12,6.1,11.2C6.3,9.5,7.1,8,8.5,7  c0.9-0.7,1.9-1.2,3-1.5c0.7-0.1,1.4-0.1,2.1-0.2h0.7c3.8,0.6,6.4,2.1,7.8,4.5C23.2,11.7,23.6,14.2,23.4,17.5z M53.8,14.6  c-1,0.7-3.4,1.3-7.3,1.7c-2,0.2-4.6,0.5-7.7,0.8c-0.4-3.2-0.1-5.8,1-7.7c0.5-0.9,1.1-1.7,2-2.3C41.9,7,42,6.9,42.1,6.8  c1.6-1.1,3.5-1.9,5.4-2.2c1.7-0.2,3.5,0.1,5,1c0.2,0.1,0.4,0.3,0.7,0.5c1.4,1,2.3,2.5,2.6,4.1c0.1,0.8,0,1.6-0.3,2.3  C55.1,13.3,54.5,14.1,53.8,14.6z" style="fill: rgb(247, 215, 185);"/></g></g><g mapping="skin eyelids" transform="matrix(0.2398,0.0705,-0.0705,0.2398,13.8057,-274.023)"><g transform="scale(2.1248, 2.1941)"><path class="c1-30ff31-d1eb84e8" d="M14.3,5.3h-0.7c-0.7,0.1-1.4,0.1-2.1,0.2c-1.1,0.3-2.1,0.8-3,1.5c-1.4,1-2.2,2.5-2.4,4.2  C6,12,6.2,12.8,6.7,13.6c0.4,0.8,1,1.5,1.7,2c1,0.7,3.4,1.1,7.3,1.4c2,0.1,4.6,0.3,7.7,0.5c0.2-3.3-0.2-5.8-1.3-7.7  C20.7,7.4,18.1,5.9,14.3,5.3z" style=""/><path class="c1-30ff31-d1eb84e8" d="M55.8,10.2c-0.3-1.6-1.2-3.1-2.6-4.1c-0.3-0.2-0.5-0.4-0.7-0.5c-1.5-0.9-3.3-1.2-5-1c-1.9,0.3-3.8,1.1-5.4,2.2  C42,6.9,41.9,7,41.8,7.1c-0.9,0.6-1.5,1.4-2,2.3c-1.1,1.9-1.4,4.5-1,7.7c3.1-0.3,5.7-0.6,7.7-0.8c3.9-0.4,6.3-1,7.3-1.7  c0.7-0.5,1.3-1.3,1.7-2.1C55.8,11.8,55.9,11,55.8,10.2z" style=""/><path xmlns:spine="http://powtoon.com/" spine:tagging="skin.primary.base" class="c2-30ff31-d1eb84e8" d="M50.4,0.1H0v23.7h50.6C61.4,13.5,54.4,3,50.4,0.1z" style="fill: rgb(247, 215, 185);"/><g>
	<path xmlns:spine="http://powtoon.com/" spine:tagging="skin.primary.shadow" class="c8-30ff31-d1eb84e8" d="M6.1,15C6.1,15,6.1,15,6.1,15c-0.4-0.5-0.6-1-0.6-1.6   c-0.1-0.4-0.1-0.8,0-1.1c0.1-2,1.1-3.9,2.7-5.2c1.4-1.2,3.2-1.8,5-1.9h1c0.6,0.1,1.1,0.2,1.7,0.4c2.5,0.5,4.8,2,6.1,4.1   c1,1.9,1.5,4.1,1.4,6.3c0,0.4,0,0.9-0.1,1.4l-0.7-0.1c-1.1-0.1-3.5-0.1-7.1-0.2c-4-0.1-6.6-0.3-7.6-0.8C7.2,16,6.6,15.6,6.1,15z" style="fill: rgb(237, 191, 158);"/>
</g><g>
	<path class="c10-30ff31-d1eb84e8" d="M9.9,15.9l-1.4-0.5L5.8,14l-0.4-0.1l-0.2-0.1H5.1l-0.2-0.1l-0.2,0H4.6   l-0.2-0.1H4.2H4H3.8H3.4H3.3H3.1l-0.2,0.1c-0.1,0-0.1,0.1-0.1,0.1c0,0,0,0,0,0h0.1h0.2h0.3L3.6,14h0.1l0.2,0.1H4l0.3,0.1l0.1,0.1   L5,14.6l1.7,1.2l1.6,0.9l1.9,0.6l1.6,0.3l0.8,0.1c0,0,0.2,0,0.8,0c2.5,0,3.9-0.5,3.9-0.5c0.1,0,0.1-0.1,0.1-0.1c0,0-0.1,0-0.1,0   l-3.1-0.4l-0.8-0.1l-0.7-0.1C12.8,16.5,10.1,16,9.9,15.9z" style=""/>
</g><g>
	<path class="c10-30ff31-d1eb84e8" d="M3.5,14.9c0.1-0.1,0.2-0.1,0.2-0.1l0.2-0.1l0.2-0.1l1.1-0.1h0.1h0h0.2   h0.1h0.2L6,14.5h0.1l0.1,0.1l0.4,0.1l0.4,0.2h0.1l0.6,0.4l0.1,0.2L8,15.5l0.2,0.3V16H8.1H7.8l-0.4-0.2l-0.6-0.2H6.7l-0.1-0.1   l-0.5-0.1l-0.5-0.1H5.5H5.3l0,0H5H4.3l-1.3,0.2l-0.3,0.1C2.8,15.6,2.8,15.2,3.5,14.9z" style=""/>
</g><g>
	<path class="c7-30ff31-d1eb84e8" d="M38.7,17c-0.4-3.2-0.1-5.8,1-7.8c1.3-2.4,3.8-4,7.5-4.8c2-0.3,4.1,0.2,5.8,1.5c1.4,1,2.3,2.4,2.6,4.1   c0.1,0.8,0,1.6-0.4,2.3c-0.3,0.8-0.9,1.6-1.7,2.1c-1,0.7-3.4,1.3-7.3,1.7C44.3,16.4,41.8,16.6,38.7,17z" style=""/>
</g><g>
	<path class="c7-30ff31-d1eb84e8" d="M38.7,17c-0.4-3.2-0.1-5.8,1-7.8c1.3-2.4,3.8-4,7.5-4.8c2-0.3,4.1,0.2,5.8,1.5c1.4,1,2.3,2.4,2.6,4.1   c0.1,0.8,0,1.6-0.4,2.3c-0.3,0.8-0.9,1.6-1.7,2.1c-1,0.7-3.4,1.3-7.3,1.7C44.3,16.4,41.8,16.6,38.7,17z" style=""/>
</g><g>
	<path xmlns:spine="http://powtoon.com/" spine:tagging="skin.primary.shadow" class="c8-30ff31-d1eb84e8" d="M39.2,16.9l-0.7,0.1c0-0.1,0-0.6-0.1-1.4c-0.2-2.3,0.2-4.6,1.1-6.7   c1.3-2.2,3.5-3.7,5.9-4.4c0.5-0.2,1.1-0.3,1.7-0.5h1c1.8,0,3.5,0.5,5,1.5c1.6,1.3,2.6,3.1,2.9,5.1c0,0.4,0.1,0.8,0.1,1.2   c-0.1,0.6-0.3,1.1-0.6,1.5v0.1c-0.5,0.6-1,1.1-1.7,1.4c-1.2,0.6-3.7,1.1-7.5,1.3C43.8,16.4,41.4,16.7,39.2,16.9z" style="fill: rgb(237, 191, 158);"/>
</g><g>
	<path class="c10-30ff31-d1eb84e8" d="M52.5,14.3l2.2-1.2l1-0.4l0.3-0.2l0.3,0l0.3-0.1l1.1-0.1l0.8,0l0.5,0.2   l0.2,0.1c0.1,0,0.1,0.1,0,0.1l-0.6,0h-0.2l-0.7,0.1l-1.2,0.5l-1,0.6l-0.2,0.2l-0.5,0.3l-0.1,0.1l-1.7,1l-1.1,0.4L51.6,16l-0.2,0.1   l-1,0.2l-0.7,0.1l-2.2,0.2l-0.6,0l-2.2-0.2l-0.2,0h-0.2c0,0-0.7,0.1-0.6,0c0,0,0-0.4,1-0.5c0.2,0,0.1,0,0.1,0h0.5l0.5-0.1l1.1-0.1   l0.9-0.1l1-0.2l0.3-0.1l1.8-0.4l0.7-0.2L52.5,14.3z" style=""/>
</g><g>
	<path class="c10-30ff31-d1eb84e8" d="M53.9,13.5L53.9,13.5l0.4-0.1h0.2l0.2-0.1h0.7l0.9,0.1l0.8,0.2l0.2,0.1   l0.2,0.1l0.3,0.1l0.6,0.4l-1.4-0.2h-0.4l-1.1,0.1l-0.3,0.1h-0.1l-0.2,0.1l-0.6,0.2l-0.4-1.1L53.9,13.5z" style=""/>
</g></g></g><g mapping="skin nose" transform="matrix(0.2398,0.0705,-0.0705,0.2398,24.7764,-267.021)"><g transform="scale(2.2083, 2.2161)"><g>
	<path class="c0-30ff33-6f5c29fc" d="M17.5,17.6l0.1,0.1 M18.3,18.9c-1.3,1.8-4.2,3.1-6.4,3C8.1,22,6.2,22.1,6,22.4s-0.2,0-0.2-0.4   c-0.1-1.1-0.1-2.2-0.1-3.2c0-2.9,0-5.6,0-7.9S6.1,7,6.9,6.4c1-0.7,1.9-1.6,2.6-2.6h0.1h0.1l1.8,3.7l0,0l0.1,0.1l0.1,0.2l6.3,9.8   L18.3,18.9z" style="fill: rgb(247, 215, 185);" xmlns:spine="http://powtoon.com/" spine:tagging="skin.primary.base"/>
	<path class="c1-30ff33-6f5c29fc" d="M6.9,25.1c-1-0.7-1.3-1.9-0.9-3c-0.1,0.3-0.1,0.2,0.1-0.1s2.1-0.5,5.9-0.6c2.2,0.1,4.7-0.9,6-2.6l-0.6,1.6   L17,21l-1.6,2.1l-0.5,0.5l-0.1,0.1L14.5,24l-0.3,0.2l-0.5,0.5l-0.3,0.2l-0.2,0.2l-0.7,0.6l-0.1,0.1c0,0,0.1,0.1,0.1,0l0.4-0.3   l-0.3,0.1l-0.1,0.1l0,0C9.8,26.3,8,26.1,6.9,25.1z" style="fill: rgb(237, 191, 158);" xmlns:spine="http://powtoon.com/" spine:tagging="skin.primary.shadow"/>
	<path class="c2-30ff33-6f5c29fc" d="M18.3,17c0.3,0.5,0.4,1.7,0.2,2.4l-0.3,0.9l-0.5,1l-0.3,0.4l-0.3,0.4l-2.1,2l-2.1,1.5l-0.4,0.3h-0.1v-0.1   l1-0.9l0.8-0.7l0.7-0.7l0.5-0.5l1.6-2.1l0.5-0.9l0.2-0.7c0,0,0.3-1.1,0-1.6S16.5,16,16.5,16l0,0l-4.9-8l-0.1-0.2l-0.1-0.1l0,0   l-1.8-4L12,7.1l0,0 M17.3,15.4L17.3,15.4L17.3,15.4" style="fill: rgb(166, 115, 98);" xmlns:spine="http://powtoon.com/" spine:tagging="skin.primary.outline"/>
</g></g></g><g mapping="skin eyebrow5" transform="matrix(0.2399,0.0703,-0.0703,0.2399,10.0838,-283.664)"><g transform="scale(2.1317, 2.2719)"><g><path d="M530.77,267.91a6.12,6.12,0,0,1,6.11-.5q9.42,4.92,16.27,2.89l.46,3q-8,2.88-17.39-4.13A7.48,7.48,0,0,0,530.77,267.91Z" transform="translate(-517.45 -251.31)" fill="#2b1807" style="fill: rgb(43, 24, 7);" xmlns:spine="http://powtoon.com/" spine:tagging="head.secondary.base"/></g><g><path d="M587.31,267.24a6.16,6.16,0,0,0-6.11-.47q-9.39,5-16.24,3l-.44,3q8,2.83,17.35-4.22A7.55,7.55,0,0,1,587.31,267.24Z" transform="translate(-517.45 -251.31)" fill="#2b1807" style="fill: rgb(43, 24, 7);" xmlns:spine="http://powtoon.com/" spine:tagging="head.secondary.base"/></g></g></g><g mapping="skin hair" transform="matrix(0.2398,0.0705,-0.0705,0.2398,-10.7108,-312.052)"><g transform="scale(2.1015, 2.0973)"><g class="c0-30ff34-ae147acc"><g/></g><g><path class="c3-30ff34-ae147acc" d="M569.46,236.38a62,62,0,0,0-26-5.95,67.15,67.15,0,0,0-26.72,5.13c-3.76,1.6-6.37,3.66-7.86,6.19s-2.33,6.47-2.12,11.38q.81,15.31,9.45,15.08t8.91.27A54.38,54.38,0,0,0,552,259.16Q566.09,249.73,569.46,236.38Z" transform="translate(-462.8 -210)" style="fill: rgb(232, 182, 48);" xmlns:spine="http://powtoon.com/" spine:tagging="head.primary.base"/></g><g><path class="c4-30ff34-ae147acc" d="M567.27,242.68l-.21-.3-4.8,4.77L550.14,257l-.38.2-.1.07-.18.06-1.43.9-7.95,4-.35,0-.2.23-4.65,1.6-1.69.34-.28.13-1.61.44-8.7,1,1.19,2.34,9.23-.63a26.36,26.36,0,0,0,5.65-1.44,35.11,35.11,0,0,0,5.59-2.14l7-4.08h.08l.11-.15,3.64-2.88a3,3,0,0,0,1-.88l6-6.12,4.76-6.75Z" transform="translate(-462.8 -210)" style="fill: rgb(211, 162, 29);" xmlns:spine="http://powtoon.com/" spine:tagging="head.primary.shadow"/></g><g><path class="c3-30ff34-ae147acc" d="M567.85,235.62q12,11.32,15.94,19.28Q585.91,239.57,567.85,235.62Z" transform="translate(-462.8 -210)" style="fill: rgb(232, 182, 48);" xmlns:spine="http://powtoon.com/" spine:tagging="head.primary.base"/></g><g><path class="c4-30ff34-ae147acc" d="M551.39,243.39l-.47.27-.89.72-3,2-.28.13-.59.43-.65.33-.58.42-3,1.68-.1.08-.18.05L541,250l-10.29,4.68-.54.17-1.48.63-.38.2-.26.05-.2.14-.72.23-1.31.66.05.26.42.07,1-.1.77,0,.27-.05.18-.05h.52l2.19-.26,4.64-1,1.45-.46.74-.32.81-.22,1.47-.63.38-.2.36-.11,2.16-1.13.18-.06.19-.14.38-.2.29-.21.38-.2,3.28-2.25,4.39-4.4.33-.46.2-.23,1.93-3,.14-.32-.21-.29-.31.29-.39.29-.28.13-.2.22L551.8,243l-.21.23Z" transform="translate(-462.8 -210)" style="fill: rgb(211, 162, 29);" xmlns:spine="http://powtoon.com/" spine:tagging="head.primary.shadow"/></g></g></g><g mapping="skin eyeballs" transform="matrix(0.2415,0.0647,-0.0647,0.2415,3.4581,-283.283)"><g transform="scale(2.09, 2.0962)"><g>
	<g>
		<g transform="matrix( 0.5999908447265625, 0, 0, 0.5999908447265625, 0.55,-26.95) ">
			<g>
				<g transform="matrix( 1, 0, 0, 1, -6.7,-3.55) ">
					<g>
						<g>
							<linearGradient id="SVGID_1_" gradientUnits="userSpaceOnUse" x1="44.3658" y1="59.5932" x2="59.8658" y2="90.5932">
								<stop offset="0" style="stop-color:#FFFFFF;stop-opacity:0.8"/>
								<stop offset="1" style="stop-color:#FFFFFF;stop-opacity:0"/>
							</linearGradient>
							<path class="c0-30ff35-8e147b4" d="M69.4,119.6L49.3,75.4l6.8-2.2l20.6,44.5L69.4,119.6z" style=""/>
						</g>
					</g>
				</g>
				<g transform="matrix( 1, 0, 0, 1, 0.95,-0.4) ">
					<g>
						<g>
							<linearGradient id="SVGID_2_" gradientUnits="userSpaceOnUse" x1="22.6564" y1="63.4729" x2="38.1564" y2="94.4729">
								<stop offset="0" style="stop-color:#FFFFFF;stop-opacity:0.8"/>
								<stop offset="1" style="stop-color:#FFFFFF;stop-opacity:0"/>
							</linearGradient>
							<path class="c1-30ff35-8e147b4" d="M57,118.7c-13.1-0.1-21.8-8.5-26.1-25.1l-3.2-16l8.7-3.1L57,118.7z" style=""/>
						</g>
					</g>
				</g>
			</g>
			<g transform="matrix( -0.92181396484375, 0.0682373046875, 0.0704498291015625, 0.9517669677734375, 33.25,-16.75) ">
				<g transform="matrix( 1, 0, 0, 1, -0.95,-1.65) " class="c2-30ff35-8e147b4">
					<g transform="matrix( 1, 0, 0, 1, 0,0) ">
						<g>
							<g>
								<path class="c3-30ff35-8e147b4" d="M-38.5,133.9c4.4,8.7,11.5,13.7,21.1,14.8c9.7,1.1,17.6-2.1,23.6-9.5c0,0,0-0.2,0.1-0.2          c4.3-6.5,7.3-19.8,8.8-40c-46.3-13.2-92.1-12.7-137.4,1.6l-0.5,0.1c1.5,45.8,19.8,54.5,54.9,26.2l0.2-0.1          C-57.6,119.1-44.9,121.9-38.5,133.9z" style=""/>
							</g>
						</g>
					</g>
				</g>
				<g transform="matrix( 1, 0, 0, 1, 0,0) ">
					<g>
						<g>
							<path d="M37.5,109c0.5-0.9,1.1-2.8,1.4-5.7c0.5-2.9,0.7-5.3,0.6-6.9l-20-0.4c-0.8,0-2.7-0.3-5.8-1l-1,16.9L37.5,109z" style=""/>
						</g>
					</g>
				</g>
				<g transform="matrix( 1, 0, 0, 1, 0,0) ">
					<g>
						<g>
							<path class="c4-30ff35-8e147b4" d="M-121.9,95.4c-0.8,0.3-1.5,0.9-1.9,1.8c-0.4,0.9-0.4,1.7,0.1,2.5c0.3,0.8,0.9,1.4,1.6,1.8         s1.4,0.5,2.2,0.3l5-1.1c0,0,40.8-7.4,58.1-7.6c17.3-0.2,70.1,7.3,70.1,7.3c0.9,0.2,1.8-0.1,2.6-0.6c0.7-0.6,1.1-1.3,1.3-2.2         c0.2-1.7-0.5-2.9-2.1-3.7c0,0-34.2-12.4-71.1-10.9C-87.1,82.5-121.9,95.4-121.9,95.4z" style=""/>
						</g>
					</g>
				</g>
			</g>
		</g>
	</g>
</g></g></g><g mapping="skin hair-front" transform="matrix(0.2481,0.031,-0.031,0.2481,-16.8607,-301.927)"><g transform="scale(2.1125, 2.0991)"><g><path d="M506.69,241.56v.09q-3.42,2.86-5.17,14.85t-1.58,31.38L500,293l-4.11,50.63Q493,380,502.64,378.75q20.21,35.65,30.69,21.62,5.43-38.69,3.09-68.3-.9-15.78-6-39.17-4.23-19.51-6.32-24.18a73.08,73.08,0,0,0,1.44-18.23q-1.75-15.74-8.87-14.79A61,61,0,0,0,506.69,241.56Z" transform="translate(-465.05 -220)" fill="#e8b630" style="fill: rgb(232, 182, 48);" xmlns:spine="http://powtoon.com/" spine:tagging="head.primary.base"/></g><g><path d="M513.66,241.61l-.53,1.2-2.57,9-.36,2.32c-.33,2.16-.53,3.81-.59,4.93v.68l-.11.66.15,9.55q.12,2.06.52,5.52l2.89,14.38,2.36,7.33.56,1.36.26,0-.47-4.15-.1-.44-2.43-20.18,0-.68-.14-1.3-.21-19.67,1.35-11L514,241Z" transform="translate(-465.05 -220)" fill="#d3a21d" style="fill: rgb(211, 162, 29);" xmlns:spine="http://powtoon.com/" spine:tagging="head.primary.shadow"/></g><g><path d="M504.5,259.17l-.06.41-.16.49-.09.58-.17.57-1.42,15.34.39,9.66.07.61v.59l2.29,15,1.21,4.86.19.45.5,1.69.26,0-2.31-50.85-.08-.61-.26.05Z" transform="translate(-465.05 -220)" fill="#d3a21d" style="fill: rgb(211, 162, 29);" xmlns:spine="http://powtoon.com/" spine:tagging="head.primary.shadow"/></g></g></g><g mapping="skin hat" transform="matrix(0.24,0.0699,-0.0699,0.24,-0.304,-328.955)"><g transform="scale(2.0923, 2.0923)"><g xmlns:spine="http://powtoon.com/">
	<path spine:tagging="head.quaternary.base" class="c1-30ff36-cccccc1" d="M40.4,41.2c-2.4,1.2-6.2,0.1-10.1,2.7c-7.1,0.6-18.6,0-19.4,10.8   c-2-24,1.2-40.6,51-39.6C60.7,16.5,42.8,39.8,40.4,41.2z" style="fill: rgb(216, 42, 19);"/>
	<path spine:tagging="head.quaternary.base" class="c1-30ff36-cccccc1" d="M101.6,44.3l8.8,21.4c0,0-56.2-0.1-85.9,19.9   c-0.2-5.1,2.2-27.9,2.2-27.9c0-0.2,0.1-0.8,0.2-1.1c0.4-5.1,1.2-9.3,2.4-13.7c1.4-3.1-3.2-2.4-5.9-2.6   c-2.7-27.3,25.8-23.7,37.2-25.2C69.6,14.1,91.4,23.6,101.6,44.3z" style="fill: rgb(216, 42, 19);"/>
	<path class="c2-30ff36-cccccc1" d="M39.4,77.6c0,0-13.3,9.7-14.6,4.4c-1.3-5.3,2.7-31.7,3.5-34.6c1.1-4.2-4-3.1-4-3.2c0.4-0.9,13-5.3,13.4,6.1   L39.4,77.6z" style=""/>
	<g>
		<path class="c3-30ff36-cccccc1" d="M22.7,83c-1.5-4.8-1.6-13.5,0.8-15c2.9-1.6,11,4.9,14.5,3.5c2.2-0.9,2-16.3,4.4-17.1    c3.2-1.1,11.9,10.8,15.3,10.1c2-0.5,3.9-15.7,8.4-15.8c3.5-0.1,6.9,12.2,10.2,12c4.1-0.2,8.4-12.7,12.2-12.5    c3.1,0.2,8.2,13.4,11.1,13.9c3.8,0.6,7.8-10.8,11.1-9.9c3.2,0.8,2.4,10.7,2,13.2c-0.7,5.1-4.5,12.1-7.2,11.1    c-9.7-3.8-24.7-3.9-40.3-0.4c-14.6,3.3-27,9.4-31.9,15.3C27.2,96.2,24.2,87.9,22.7,83z" style=""/>
	</g>
	<g>
		<circle class="c4-30ff36-cccccc1" cx="12" cy="57.8" r="8"/>
		<path class="c5-30ff36-cccccc1" d="M6.9,59.5c1.1,3.4,2.9,5.8,7.4,4.7" style=""/>
		<path class="c6-30ff36-cccccc1" d="M14,59.2c0.1-0.2-0.1-0.6-0.4-0.7c-0.2-0.1-0.6,0.1-0.7,0.4c-1.2,4.4-3.4,5.2-6.5,4.7    c0.5,0.5,0.9,0.8,1.5,1.1c0.6,0,1.5,0,2.6-0.6C12.2,63,13.3,61.7,14,59.2z" style=""/>
	</g>
	<path class="c11-30ff36-cccccc1" d="M87.5,70.1c0.5-6.4,0.9-12.7,1.4-19.1" style=""/>
	<path class="c11-30ff36-cccccc1" d="M68.2,70.8c-0.5-6.4-1.1-12.7-1.5-19.1" style=""/>
	<path class="c11-30ff36-cccccc1" d="M49.4,76.4c-1.8-6.1-3.7-12.2-5.4-18.4" style=""/>
	<path class="c11-30ff36-cccccc1" d="M33.3,87.3c-2.9-5.7-5.9-11.3-9-17" style=""/>
	<path class="c11-30ff36-cccccc1" d="M102.4,73.5c2.4-5.9,4.6-11.9,6.9-17.8" style=""/>
</g></g></g><g mapping="skin palm-R-base" transform="matrix(-0.1946,-0.0747,0.0747,-0.1946,4.1082,-212.839)"><g transform="scale(2.104, 2.0918)"><g>
	<path class="c4-30ff38-00000038" d="M19.7,31.8C19.7,31.8,19.7,31.8,19.7,31.8C19.7,31.8,19.7,31.8,19.7,31.8C19.7,31.8,19.7,31.8,19.7,31.8z" style="fill: rgb(247, 215, 185);" xmlns:spine="http://powtoon.com/" spine:tagging="skin.primary.base"/>
	<path class="c4-30ff38-00000038" d="M29.8,20c0-0.9-0.2-1.8-0.3-2.9c-0.3-0.8-0.5-1.4-0.7-1.9c-0.1-0.2-0.3-0.4-0.3-0.5l-0.2-0.4   c-0.1-0.3-0.2-0.5-0.3-0.8c-0.7-1.8-1.4-3.7-2.3-5.4c0,0-1.3-3.2-2.6-5.8c-0.8-1.6-3.1-2.1-5-0.4c-0.3,0.3-0.7,1-1.3,1.9   c-0.1,0.3-4.6,10.1-5.4,14.3c-0.1,0.1-0.1,0.3-0.1,0.4l-0.1,1.4c-0.2,1.1-0.4,2.2-0.4,2.3c0,0.1,0,0.2,0.1,0.3l0.3,0   C11.1,22.8,11,23,11,23c-0.1-0.2-0.1-0.3-0.1-0.5l-0.1,0c0.2,0.6,0.4,1.7,0.4,1.9c0.5,1.2,1,1.9,1.4,2c0,0,0-0.1-0.1-0.1   c-0.1,0,2.1,2.4,3.2,2.9c0.4,0.2,0.8,0.3,1.2,0.3c-0.2,0.1-0.3,0.1-0.5,0.1c-0.2,0-0.3,0-0.5-0.1c0.3,0.1,0.8,0.1,1,0.1   c0.2,0.4,0.4,0.9,0.4,0.9c0.2,0.2,0.3,0.4,0.5,0.6c-0.2-0.1-0.3-0.3-0.4-0.5c0,0-0.2-0.3-0.4-0.8c-0.1-0.3-0.1-0.4,0,0   c0.2,0.4,0.4,0.7,0.4,0.7c0.3,0.5,0.8,0.9,1.4,1.1c0.3,0.1,0.6,0.2,0.9,0.2c0.4,0,0.7-0.1,1-0.2h0.1c-0.4,0.1-0.7,0.2-1.1,0.2   c0.4,0,1.5,0,2-0.3c0,0-0.1,0-0.1,0c0.6,0,1.3-0.1,1.8-0.4l0.2-0.1c0.1-0.3,0.2-0.3,0.1,0c0,0.1,0,0.1,0,0.1L23.6,31   c0,0.1,0,0.1,0,0.1c1.2,1.7,4.7,0.1,5.1-1.5c0.1-0.1,0.3-1,0.4-1.4c0.4-0.9,0.7-1.9,0.9-2.8c0-0.2,0.1-0.8,0.1-1.9   C30.1,22.8,30,21.6,29.8,20z M20.5,31.6c-0.2,0-0.5-0.2-0.8-0.5C20.1,31.4,20.4,31.6,20.5,31.6L20.5,31.6z M21.5,31.5   C21.5,31.5,21.5,31.5,21.5,31.5c0.2-0.2,0.5-0.3,0.8-0.5C22,31.2,21.7,31.3,21.5,31.5z" style="fill: rgb(247, 215, 185);" xmlns:spine="http://powtoon.com/" spine:tagging="skin.primary.base"/>
	<path class="c4-30ff38-00000038" d="M17.9,31.1c0.5,0.4,1,0.6,1.7,0.7c-0.3,0-0.6-0.1-0.8-0.2C18.4,31.5,18.1,31.3,17.9,31.1z" style="fill: rgb(247, 215, 185);" xmlns:spine="http://powtoon.com/" spine:tagging="skin.primary.base"/>
	<path class="c4-30ff38-00000038" d="M19.6,31.8C19.6,31.8,19.6,31.8,19.6,31.8C19.7,31.8,19.7,31.8,19.6,31.8C19.6,31.8,19.6,31.8,19.6,31.8z" style="fill: rgb(247, 215, 185);" xmlns:spine="http://powtoon.com/" spine:tagging="skin.primary.base"/>
	<path class="c4-30ff38-00000038" d="M15.6,29.2c-1.1-0.5-1.8-1.6-1.8-2.8c-0.2-0.3-0.5-1-1-2c-0.4-0.6-0.7-0.5-0.7,0.2c0,0.8,0.1,1.4,0.5,1.8   c0,0,0,0,0,0c0.2,0.4,0.6,0.8,0.7,1.2c0.1,0.3,0.4,0.6,0.7,0.7c0.1,0.3,0.3,0.5,0.5,0.7c0.4,0.3,1,0.5,1.5,0.5   c0.1,0,0.3,0.1,0.4,0.1c0.1,0,0.3,0,0.4-0.1C16.4,29.5,16,29.4,15.6,29.2z" style="fill: rgb(247, 215, 185);" xmlns:spine="http://powtoon.com/" spine:tagging="skin.primary.base"/>
</g><path xmlns:spine="http://powtoon.com/" spine:tagging="skin.primary.shadow" class="c10-30ff38-00000038" d="M23.6,31l0.1,0.1c-0.5,0.2-1.1,0.4-1.7,0.4c-0.1,0-0.1,0-0.2,0  C22.4,31.5,23,31.3,23.6,31L23.6,31z" style="fill: rgb(237, 191, 158);"/><path xmlns:spine="http://powtoon.com/" spine:tagging="skin.primary.shadow" class="c10-30ff38-00000038" d="M11.3,18.5c0-0.1,0-0.3,0.1-0.4c0.9-4.6,3.8-11,5.6-14.2  c-0.7,2.8-1.6,5.6-2.7,8.3c-1,2.2-1.6,4.6-1.9,7c-0.3,0.5-0.4,1-0.4,1.7l-0.3,1.8c-0.1,0.2-0.2,0.4-0.4,0.6  c-0.1-0.1-0.2-0.2-0.3-0.3c-0.1-0.3-0.2-0.6-0.2-0.8c0-0.1,0.2-1.2,0.4-2.3L11.3,18.5z" style="fill: rgb(237, 191, 158);"/><path xmlns:spine="http://powtoon.com/" spine:tagging="skin.primary.shadow" class="c10-30ff38-00000038" d="M22.3,31c0.1,0,0.2-0.2,0.3-0.3c0.1-0.1,0.1-0.1,0.1-0.2s0.1-0.2,0.2-0.2  c0.4-0.6,0.8-1.2,1-1.9c0.2-0.7,0.4-1.4,0.8-1.9l1.4-1.3c0.1-0.1,0.3-0.1,0.5-0.1c-0.7,1.8-1.5,3.4-2.6,5c-0.1,0.3-0.2,0.6-0.3,0.9  c0,0.1,0,0.1,0,0.1l0,0L23.6,31l-0.2,0.1c-0.5,0.3-1.2,0.4-1.8,0.4c-0.1,0-0.1,0-0.2,0C21.7,31.3,22,31.2,22.3,31z" style="fill: rgb(237, 191, 158);"/><path xmlns:spine="http://powtoon.com/" spine:tagging="skin.primary.shadow" class="c10-30ff38-00000038" d="M21.8,22.4c1.2,0.4,2.4,0.7,3.7,0.9c0.6,0,1.1-0.1,1.7-0.2  c0.6-0.2,1.1-0.2,1.7-0.1v0.1c-0.5,0.3-1.1,0.5-1.6,0.6c-0.6,0.2-1.2,0.3-1.9,0.3c-1.3,0-2.6-0.3-3.8-0.8c-1.2-0.4-2.4-0.7-3.7-0.8  c-0.4,0-0.9-0.1-1.4-0.3c-0.6-0.2-1.2-0.6-1.7-1.3c1,0.3,2,0.6,3,0.7C19.2,21.6,20.5,21.9,21.8,22.4z" style="fill: rgb(237, 191, 158);"/><path xmlns:spine="http://powtoon.com/" spine:tagging="skin.primary.shadow" class="c10-30ff38-00000038" d="M12.9,24.4c0.5,1,0.8,1.7,1,2c0,1.2,0.7,2.3,1.8,2.8  c0.4,0.2,0.8,0.3,1.2,0.3c-0.3,0.1-0.6,0.1-0.9,0c-0.5,0-1.1-0.2-1.5-0.5c-0.2-0.2-0.4-0.4-0.5-0.7c-0.3-0.1-0.6-0.4-0.7-0.7  c-0.2-0.4-0.6-0.9-0.8-1.3c-0.1,0-0.5-1-0.5-1.8C12,23.8,12.5,23.8,12.9,24.4z" style="fill: rgb(237, 191, 158);"/><path xmlns:spine="http://powtoon.com/" spine:tagging="skin.primary.shadow" class="c10-30ff38-00000038" d="M17.4,30.6c0,0-0.8-1.4-0.6-2.5c0-0.2,0-0.5-0.1-0.7  c-0.1-0.3-0.1-0.6-0.1-0.9v-0.1l1.5,2.6c0.7,1.7,1.6,2.5,2.5,2.6h0.2c-0.4,0.1-0.7,0.2-1.1,0.2C18.8,31.7,17.9,31.4,17.4,30.6z" style="fill: rgb(237, 191, 158);"/></g></g><g mapping="skin forearm-R" transform="matrix(-0.1103,-0.1799,0.1799,-0.1103,-34.0014,-192.824)"><g transform="scale(2.1304, 2.102)"><g>
	
	<g class="c0-30ff38-9ae1471">
		
	</g>
	<g>
		<path class="c1-30ff38-9ae1471" d="M4.7,10c-0.8,2.6-1.3,5.2-1.7,7.9c-2.1,15.5-0.1,39,6,70.7c0.4,1,1.5,1.5,3.2,1.5c1.3,0,2.4-0.9,2.6-2.2    l3.1-77C16.1,5.7,11.7,5.4,4.7,10z" style="fill: rgb(247, 215, 185);" xmlns:spine="http://powtoon.com/" spine:tagging="skin.primary.base"/>
	</g>
</g></g></g><g mapping="skin palm-L-base" transform="matrix(-0.1989,0.0637,-0.0637,-0.1989,32.3627,-218.918)"><g transform="scale(2.104, 2.0918)"><path class="c0-30ff39-428f5d3" d="M31.5,22.6c0-0.1-0.2-1.2-0.4-2.3L31,18.9c0-0.1,0-0.3-0.1-0.4C30,14,27.3,7.9,25.5,4.6c0-0.1-0.1-0.2-0.1-0.3  c-0.5-1-1-1.7-1.3-1.9c-1.8-1.7-4.1-1.2-5,0.4c-1.4,2.6-2.6,5.8-2.6,5.8c-0.9,1.7-1.6,3.6-2.3,5.4c-0.1,0.3-0.2,0.5-0.3,0.8  l-0.2,0.4c0,0.1-0.2,0.3-0.3,0.5c-0.2,0.5-0.4,1.1-0.7,1.9c-0.1,1.1-0.3,2-0.3,2.9c-0.2,1.6-0.3,2.8-0.3,3.5c0,1.1,0.1,1.7,0.1,1.9  c0.2,0.9,0.5,1.9,0.9,2.8c0.1,0.4,0.3,1.3,0.4,1.4c0.4,1.6,3.9,3.2,5.1,1.5c0,0,0,0,0-0.1c-0.1-0.3-0.1-0.4,0-0.1c0,0.1,0,0.1,0,0.1  l0.1-0.1h0.1c0.5,0.3,1.1,0.5,1.7,0.5c0,0,0,0,0.1,0c0,0,0.1,0.1,0.1,0.1c-0.1,0-0.1,0-0.2,0c0.6,0.3,2.1,0.3,2.1,0.3  c-0.4,0-0.3-0.1,0-0.1c1-0.1,1.8-0.5,2.3-1.3c0,0,0.2-0.5,0.4-0.9c0.2,0,0.7,0,1-0.1c0.5,0,1.1-0.2,1.5-0.5c0.2-0.2,0.4-0.4,0.5-0.7  c0.3-0.1,0.6-0.4,0.7-0.7c0.2-0.4,0.4-0.8,0.6-1.2c0.4,0,0.9-0.7,1.4-2c0-0.2,0.3-0.9,0.4-1.4C31.4,23.5,31.5,22.8,31.5,22.6z" style="fill: rgb(247, 215, 185);" xmlns:spine="http://powtoon.com/" spine:tagging="skin.primary.base"/><path xmlns:spine="http://powtoon.com/" spine:tagging="skin.primary.shadow" class="c6-30ff39-428f5d3" d="M18.7,31.4l-0.1,0.1c0.5,0.2,1.1,0.4,1.7,0.4c0.1,0,0.1,0,0.2,0  C19.9,31.9,19.3,31.7,18.7,31.4L18.7,31.4z" style="fill: rgb(237, 191, 158);"/><g>
	<path xmlns:spine="http://powtoon.com/" spine:tagging="skin.primary.shadow" class="c6-30ff39-428f5d3" d="M31,18.9c0-0.1,0-0.3-0.1-0.4c-0.9-4.6-3.8-11-5.6-14.2   c0.7,2.8,1.6,5.6,2.7,8.3c1,2.2,1.6,4.6,1.9,7c0.3,0.5,0.4,1,0.4,1.7l0.3,1.8c0.1,0.2,0.2,0.4,0.4,0.6c0.1-0.1,0.2-0.2,0.3-0.3   c0.1-0.3,0.2-0.6,0.2-0.8c0-0.1-0.2-1.2-0.4-2.3L31,18.9z" style="fill: rgb(237, 191, 158);"/>
	<path xmlns:spine="http://powtoon.com/" spine:tagging="skin.primary.shadow" class="c6-30ff39-428f5d3" d="M19.9,31.4c-0.1,0-0.2-0.2-0.3-0.3c-0.1-0.1-0.1-0.1-0.1-0.2   s-0.1-0.2-0.2-0.2c-0.4-0.6-0.7-1.2-0.9-1.9c-0.2-0.7-0.5-1.3-0.9-1.8l-1.3-1.3c-0.1-0.1-0.3-0.2-0.5-0.2c0.7,1.8,1.5,3.4,2.6,5   c0.1,0.3,0.2,0.6,0.3,0.9c0,0.1,0,0.1,0,0.1l0,0l0.1-0.1h0.1c0.5,0.3,1.1,0.5,1.7,0.5c0.1,0,0.1,0,0.2,0   C20.5,31.7,20.2,31.6,19.9,31.4z" style="fill: rgb(237, 191, 158);"/>
	<path xmlns:spine="http://powtoon.com/" spine:tagging="skin.primary.shadow" class="c6-30ff39-428f5d3" d="M20.5,22.8c-1.2,0.4-2.4,0.7-3.7,0.9c-0.6,0-1.1-0.1-1.7-0.2   c-0.6-0.2-1.1-0.2-1.7-0.1v0.1c0.5,0.3,1.1,0.5,1.6,0.6c0.6,0.2,1.2,0.3,1.9,0.3c1.3,0,2.6-0.3,3.8-0.8c1.2-0.4,2.4-0.7,3.7-0.8   c0.4,0,0.9-0.1,1.4-0.3c0.6-0.2,1.2-0.6,1.7-1.3c-1,0.3-2,0.6-3,0.7C23.1,22,21.8,22.3,20.5,22.8z" style="fill: rgb(237, 191, 158);"/>
	<path xmlns:spine="http://powtoon.com/" spine:tagging="skin.primary.shadow" class="c6-30ff39-428f5d3" d="M29.4,24.8c-0.5,1-0.8,1.7-1,2c0,1.2-0.7,2.3-1.8,2.8   c-0.4,0.2-0.8,0.3-1.2,0.3c0.3,0.1,0.6,0.1,0.9,0c0.5,0,1.1-0.2,1.5-0.5c0.2-0.2,0.4-0.4,0.5-0.7c0.3-0.1,0.6-0.4,0.7-0.7   c0.2-0.4,0.4-0.8,0.6-1.2c0.4-0.4,0.5-1,0.5-1.8C30.1,24.3,29.8,24.2,29.4,24.8z" style="fill: rgb(237, 191, 158);"/>
	<path xmlns:spine="http://powtoon.com/" spine:tagging="skin.primary.shadow" class="c6-30ff39-428f5d3" d="M24.8,30.9c0,0,0.8-1.2,0.6-2.3c0-0.2,0-0.5,0.1-0.7   c0.1-0.3,0.1-0.6,0.1-0.9v-0.1l-1.4,2.5c-0.7,1.7-1.6,2.5-2.5,2.6h-0.2c0.4,0.1,0.7,0.2,1.1,0.2C23.5,32.1,24.3,31.7,24.8,30.9z" style="fill: rgb(237, 191, 158);"/>
</g></g></g><g mapping="skin forearn-L" transform="matrix(-0.1292,0.1614,-0.1614,-0.1292,55.8157,-198.252)"><g transform="scale(2.1739, 2.102)"><g>
	<path class="c1-30ff39-cccccc8" d="M5.9,10.9l3.1,77c0.2,1.3,1.3,2.2,2.6,2.2c1.7,0,2.8-0.5,3.2-1.5c6.1-31.7,8.1-55.2,6-70.7   c-0.4-2.7-0.9-5.3-1.7-7.9C12.1,5.4,7.7,5.7,5.9,10.9z" style="fill: rgb(247, 215, 185);" xmlns:spine="http://powtoon.com/" spine:tagging="skin.primary.base"/>
</g></g></g></g></svg>